<svg width="120" height="115" viewBox="0 0 120 115" fill="none" xmlns="http://www.w3.org/2000/svg">
<path d="M37.7 66.65C42.4 60.35 46.3 54.5 49.4 49.1C52.6 43.7 54.2 38.7 54.2 34.1C54.2 28.5 52.7 24.25 49.7 21.35C46.8 18.35 42.4 16.85 36.5 16.85C31.1 16.85 26.75 18.35 23.45 21.35C20.15 24.35 17.4 28 15.2 32.3L1.25 24.8C4.75 18.1 9.35 12.45 15.05 7.84999C20.75 3.24999 28.05 0.949994 36.95 0.949994C48.05 0.949994 56.55 3.85 62.45 9.65C68.35 15.35 71.3 22.85 71.3 32.15C71.3 44.25 65.3 57.65 53.3 72.35L32.9 98.15H75.65V113H0.65L37.7 66.65ZM108.723 114.5C105.723 114.5 103.173 113.5 101.073 111.5C98.9727 109.4 97.9227 106.85 97.9227 103.85C97.9227 100.75 98.9227 98.2 100.923 96.2C103.023 94.1 105.623 93.05 108.723 93.05C111.823 93.05 114.373 94.1 116.373 96.2C118.473 98.2 119.523 100.75 119.523 103.85C119.523 106.85 118.473 109.4 116.373 111.5C114.373 113.5 111.823 114.5 108.723 114.5Z" fill="#EEF0F2"/>
</svg>
