<svg width="121" height="114" viewBox="0 0 121 114" fill="none" xmlns="http://www.w3.org/2000/svg">
<path d="M33.55 113.25C27.15 113.25 20.7 112.35 14.2 110.55C7.8 108.65 3.15 106.25 0.250001 103.35L7.3 89.1C10.3 91.5 14.1 93.6 18.7 95.4C23.3 97.1 28 97.95 32.8 97.95C49.9 97.95 58.45 91 58.45 77.1C58.45 71.2 56.1 66.45 51.4 62.85C46.8 59.25 40.55 57.45 32.65 57.45C27.15 57.45 22.5 57.75 18.7 58.35L46.3 15.45H4.9V0.749998H76.15L44.95 45.3C51.25 45.5 56.8 47 61.6 49.8C66.5 52.6 70.25 56.3 72.85 60.9C75.45 65.4 76.75 70.4 76.75 75.9C76.75 83.1 75.05 89.55 71.65 95.25C68.25 100.85 63.3 105.25 56.8 108.45C50.3 111.65 42.55 113.25 33.55 113.25ZM109.258 112.5C106.258 112.5 103.708 111.5 101.608 109.5C99.5078 107.4 98.4578 104.85 98.4578 101.85C98.4578 98.75 99.4578 96.2 101.458 94.2C103.558 92.1 106.158 91.05 109.258 91.05C112.358 91.05 114.908 92.1 116.908 94.2C119.008 96.2 120.058 98.75 120.058 101.85C120.058 104.85 119.008 107.4 116.908 109.5C114.908 111.5 112.358 112.5 109.258 112.5Z" fill="#EEF0F2"/>
</svg>
