<svg width="125" height="116" viewBox="0 0 125 116" fill="none" xmlns="http://www.w3.org/2000/svg">
<path d="M51.15 86.4H0.75L32.4 -7.51019e-06L48 5.85L24.15 70.65H51.15L52.05 45.6H68.7V70.65H84V86.4H68.7V114H51.15V86.4ZM113.895 115.5C110.895 115.5 108.345 114.5 106.245 112.5C104.145 110.4 103.095 107.85 103.095 104.85C103.095 101.75 104.095 99.2 106.095 97.2C108.195 95.1 110.795 94.05 113.895 94.05C116.995 94.05 119.545 95.1 121.545 97.2C123.645 99.2 124.695 101.75 124.695 104.85C124.695 107.85 123.645 110.4 121.545 112.5C119.545 114.5 116.995 115.5 113.895 115.5Z" fill="#EEF0F2"/>
</svg>
