<svg width="34" height="34" viewBox="0 0 34 34" fill="none" xmlns="http://www.w3.org/2000/svg">
<path d="M17.0013 16.9987C20.9133 16.9987 24.0846 13.8274 24.0846 9.91536C24.0846 6.00335 20.9133 2.83203 17.0013 2.83203C13.0893 2.83203 9.91797 6.00335 9.91797 9.91536C9.91797 13.8274 13.0893 16.9987 17.0013 16.9987Z" stroke="#EEF0F2" stroke-width="2"/>
<path d="M24.0841 19.832H24.5827C25.6184 19.8323 26.6184 20.2108 27.3947 20.8963C28.171 21.5819 28.6703 22.5273 28.7987 23.555L29.3527 27.9807C29.4025 28.3794 29.3669 28.7841 29.2484 29.168C29.1298 29.5519 28.931 29.9062 28.665 30.2074C28.3991 30.5086 28.0721 30.7498 27.7059 30.9149C27.3396 31.0801 26.9424 31.1655 26.5406 31.1654H7.4609C7.05911 31.1655 6.6619 31.0801 6.29562 30.9149C5.92934 30.7498 5.60238 30.5086 5.33644 30.2074C5.07049 29.9062 4.87164 29.5519 4.75309 29.168C4.63454 28.7841 4.599 28.3794 4.64882 27.9807L5.20132 23.555C5.32981 22.5268 5.82949 21.581 6.60642 20.8954C7.38334 20.2098 8.38397 19.8316 9.42015 19.832H9.9174" stroke="#EEF0F2" stroke-width="2" stroke-linecap="round" stroke-linejoin="round"/>
</svg>
