<svg width="28" height="28" viewBox="0 0 28 28" fill="none" xmlns="http://www.w3.org/2000/svg">
<path d="M14.0013 13.9987C17.223 13.9987 19.8346 11.387 19.8346 8.16536C19.8346 4.9437 17.223 2.33203 14.0013 2.33203C10.7796 2.33203 8.16797 4.9437 8.16797 8.16536C8.16797 11.387 10.7796 13.9987 14.0013 13.9987Z" stroke="#EEF0F2" stroke-width="2"/>
<path d="M19.8341 16.332H20.2447C21.0976 16.3323 21.9211 16.644 22.5605 17.2085C23.1998 17.7731 23.611 18.5517 23.7167 19.398L24.1729 23.0427C24.2139 23.371 24.1846 23.7043 24.087 24.0205C23.9894 24.3367 23.8256 24.6284 23.6066 24.8765C23.3876 25.1245 23.1183 25.3231 22.8167 25.4591C22.5151 25.5951 22.1879 25.6654 21.8571 25.6654H6.14439C5.8135 25.6654 5.48638 25.5951 5.18474 25.4591C4.8831 25.3231 4.61384 25.1245 4.39483 24.8765C4.17581 24.6284 4.01206 24.3367 3.91443 24.0205C3.8168 23.7043 3.78753 23.371 3.82856 23.0427L4.28356 19.398C4.38937 18.5513 4.80087 17.7724 5.44069 17.2078C6.08051 16.6431 6.90456 16.3317 7.75789 16.332H8.16739" stroke="#EEF0F2" stroke-width="2" stroke-linecap="round" stroke-linejoin="round"/>
</svg>
