<svg width="27" height="27" viewBox="0 0 27 27" fill="none" xmlns="http://www.w3.org/2000/svg">
<path d="M13.3333 0C5.97333 0 0 5.97333 0 13.3333C0 20.6933 5.97333 26.6667 13.3333 26.6667C20.6933 26.6667 26.6667 20.6933 26.6667 13.3333C26.6667 5.97333 20.6933 0 13.3333 0ZM12 23.9067C6.73333 23.2533 2.66667 18.7733 2.66667 13.3333C2.66667 12.5067 2.77333 11.72 2.94667 10.9467L9.33333 17.3333V18.6667C9.33333 20.1333 10.5333 21.3333 12 21.3333V23.9067ZM21.2 20.52C20.8533 19.44 19.8667 18.6667 18.6667 18.6667H17.3333V14.6667C17.3333 13.9333 16.7333 13.3333 16 13.3333H8V10.6667H10.6667C11.4 10.6667 12 10.0667 12 9.33333V6.66667H14.6667C16.1333 6.66667 17.3333 5.46667 17.3333 4V3.45333C21.24 5.04 24 8.86667 24 13.3333C24 16.1067 22.9333 18.6267 21.2 20.52Z" fill="#2E3092"/>
</svg>
