<svg width="32" height="32" viewBox="0 0 32 32" fill="none" xmlns="http://www.w3.org/2000/svg">
<path d="M16 5.20996C7.16344 5.20996 0 12.3734 0 21.21C0 23.1725 0.353493 25.0527 1 26.79H5.37499C4.49773 25.123 4 23.2246 4 21.21C4 14.5825 9.37256 9.20996 16 9.20996C22.6274 9.20996 28 14.5825 28 21.21C28 23.2246 27.5023 25.123 26.625 26.79H31C31.6465 25.0528 32 23.1725 32 21.21C32 12.3734 24.8366 5.20996 16 5.20996ZM16 11.4932C14.8954 11.4932 14 12.3886 14 13.4932C14 14.5977 14.8954 15.4932 16 15.4932C17.1046 15.4932 18 14.5977 18 13.4932C18 12.3886 17.1046 11.4932 16 11.4932ZM10.0019 13.4521C8.89739 13.4521 8.00195 14.3476 8.00195 15.4521C8.00195 16.5567 8.89739 17.4521 10.0019 17.4521C11.1065 17.4521 12.0019 16.5567 12.0019 15.4521C12.0019 14.3476 11.1065 13.4521 10.0019 13.4521ZM21.9981 13.4521C20.8935 13.4521 19.9981 14.3476 19.9981 15.4521C19.9981 16.5567 20.8935 17.4521 21.9981 17.4521C23.1026 17.4521 23.9981 16.5567 23.9981 15.4521C23.9981 14.3476 23.1026 13.4521 21.9981 13.4521ZM16 17.3779L14.4317 25.2217V26.7901H17.5684V25.2217L16 17.3779Z" fill="#2E3092"/>
</svg>
