<svg width="337" height="228" viewBox="0 0 337 228" fill="none" xmlns="http://www.w3.org/2000/svg">
<path d="M263.985 144.506H160.211V76.6176H245.421V123.533C245.421 135.107 253.732 144.506 263.985 144.506Z" fill="#EB225A"/>
<path d="M150.734 227.075H336.612V96.7356C336.612 88.8127 330.708 76.9283 316.649 76.9283L150.812 77.006V227.075H150.734Z" fill="#F7F7F7"/>
<path d="M301.192 76.9283C290.938 76.9283 282.627 86.327 282.627 97.9006V123.533C282.627 129.359 280.53 134.563 277.19 138.369C273.85 142.176 269.189 144.506 264.063 144.506C253.81 144.506 245.498 135.107 245.498 123.533V76.6176L301.192 76.9283Z" fill="#D72355"/>
<path d="M78.0305 144.506H264.063C264.063 144.506 263.908 144.506 263.597 144.506C253.421 143.884 245.421 135.34 245.421 125.165V20.9243H59.3884V131.689C59.3884 135.262 61.0973 138.68 64.0489 140.7C66.8453 142.642 71.1951 144.273 78.0305 144.506Z" fill="white"/>
<path d="M111.586 144.894H78.0305C71.9718 144.661 67.2336 143.341 63.8159 141.01C60.7865 138.913 59 135.496 59 131.767V20.9244C59 20.6914 59.1554 20.536 59.3884 20.536C59.6214 20.536 59.7768 20.6914 59.7768 20.9244V131.767C59.7768 135.185 61.4079 138.447 64.2042 140.311C67.4666 142.564 72.1271 143.807 77.9528 144.04H111.509C111.742 144.04 111.897 144.195 111.897 144.428C111.897 144.661 111.819 144.894 111.586 144.894Z" fill="white"/>
<path d="M245.421 21.3904H80.8267C80.5937 21.3904 80.4384 21.2351 80.4384 21.002C80.4384 20.769 80.5937 20.6136 80.8267 20.6136H245.421C245.654 20.6136 245.809 20.769 245.809 21.002C245.809 21.1574 245.654 21.3904 245.421 21.3904Z" fill="white"/>
<path d="M245.809 90.366C245.654 90.366 245.498 90.2884 245.421 90.133C245.343 89.9 245.421 89.667 245.576 89.5893C252.567 85.7832 259.402 81.3557 265.772 76.3068C273.229 70.4812 280.219 63.7234 286.589 56.2666C290.55 51.6837 294.279 46.7125 297.852 41.5859C298.007 41.4306 298.24 41.3529 298.473 41.5083C298.628 41.6636 298.706 41.8966 298.551 42.1297C295.055 47.3339 291.249 52.2275 287.288 56.888C280.841 64.3448 273.85 71.1026 266.315 77.0059C259.868 82.0548 253.033 86.56 245.965 90.366C245.887 90.366 245.809 90.366 245.809 90.366Z" fill="#373737"/>
<path d="M256.295 74.365C256.295 74.365 225.381 61.0825 250.858 30.3231C250.858 30.4008 277.967 42.9065 256.295 74.365Z" fill="#7F9922"/>
<path d="M252.722 86.327C252.645 86.327 252.567 86.327 252.567 86.327C252.334 86.2493 252.256 86.0163 252.334 85.7832C258.548 72.1901 254.509 53.6257 254.431 53.3926C254.353 53.1596 254.509 52.9266 254.742 52.9266C254.975 52.8489 255.208 53.0043 255.208 53.2373C255.286 53.3926 259.325 72.2677 253.033 86.1716C253.033 86.2493 252.878 86.327 252.722 86.327Z" fill="#373737"/>
<path d="M287.909 44.0716C287.909 44.0716 269.966 32.6533 283.948 19.8369C283.948 19.8369 299.949 28.0705 287.909 44.0716Z" fill="#AFC547"/>
<path d="M284.569 59.6843C284.492 59.6843 284.414 59.6843 284.414 59.6066C284.181 59.529 284.103 59.2183 284.258 59.0629C290.395 46.5572 286.2 31.3328 286.123 31.1775C286.045 30.9444 286.2 30.7114 286.433 30.6337C286.666 30.5561 286.899 30.7114 286.977 30.9444C287.055 31.0998 291.327 46.6349 285.035 59.3736C284.88 59.6066 284.725 59.6843 284.569 59.6843Z" fill="#373737"/>
<path d="M282.161 70.9473C282.161 70.9473 283.948 95.4151 310.746 85.4726C310.746 85.4726 308.26 58.2086 282.161 70.9473Z" fill="#7F9922"/>
<path d="M295.754 77.0836C295.677 77.0836 295.521 77.0836 295.444 77.0059C295.366 76.9283 286.045 68.9277 272.219 72.0347C271.986 72.1124 271.753 71.957 271.753 71.724C271.675 71.491 271.83 71.258 272.063 71.258C286.356 68.0733 295.91 76.3845 295.987 76.4622C296.143 76.6176 296.143 76.8506 295.987 77.0836C295.987 77.0836 295.91 77.0836 295.754 77.0836Z" fill="#373737"/>
<path d="M247.984 98.1337C247.984 98.1337 243.324 131.223 279.831 124.854C279.909 124.854 281.151 90.9099 247.984 98.1337Z" fill="#7F9922"/>
<path d="M263.908 108.853C263.83 108.853 263.674 108.775 263.597 108.697C260.49 105.513 256.528 102.561 252.023 100.231C249.926 99.0657 247.751 98.1336 245.654 97.4345C245.421 97.3569 245.343 97.1238 245.421 96.8908C245.498 96.6578 245.731 96.5801 245.965 96.6578C248.139 97.3569 250.314 98.289 252.489 99.4541C256.994 101.862 261.034 104.814 264.218 108.076C264.374 108.231 264.374 108.542 264.218 108.697C264.141 108.853 263.985 108.853 263.908 108.853Z" fill="#373737"/>
<path d="M313.309 42.9841C313.309 42.9841 304.221 35.9933 298.861 46.4795C298.784 46.4795 306.241 53.7033 313.309 42.9841Z" fill="#AFC547"/>
<path d="M284.103 98.056C284.103 98.056 292.803 81.5889 276.569 77.0837C276.569 77.006 266.315 90.6769 284.103 98.056Z" fill="#AFC547"/>
<path d="M233.381 76.1515C233.381 76.1515 240.061 88.5018 250.858 76.9282C250.858 76.9282 246.042 63.6457 233.381 76.1515Z" fill="#AFC547"/>
<path d="M279.365 88.5019C279.21 88.5019 279.054 88.4242 278.976 88.2689C278.821 87.8028 274.86 77.705 276.413 70.8696C276.491 70.6366 276.724 70.4812 276.957 70.5589C277.19 70.6366 277.345 70.8696 277.268 71.1026C275.714 77.705 279.753 87.9582 279.753 88.0359C279.831 88.2689 279.753 88.5019 279.52 88.5796C279.443 88.5019 279.365 88.5019 279.365 88.5019Z" fill="#373737"/>
<path d="M254.82 79.5693C254.742 79.5693 254.586 79.5693 254.509 79.4916C254.431 79.4139 250.314 75.7632 241.692 76.0739C241.459 76.0739 241.226 75.9185 241.226 75.6855C241.226 75.4525 241.382 75.2194 241.615 75.2194C250.703 74.9087 254.897 78.7148 255.053 78.8702C255.208 79.0255 255.208 79.2586 255.053 79.4916C255.053 79.5693 254.975 79.5693 254.82 79.5693Z" fill="#373737"/>
<path d="M298.628 46.8679C297.386 46.8679 296.22 46.7902 295.133 46.5572C294.9 46.4795 294.745 46.3241 294.822 46.0911C294.9 45.8581 295.055 45.7027 295.288 45.7804C299.638 46.7125 305.93 45.2367 306.551 45.0037C306.707 44.926 306.94 44.926 307.095 45.0813C307.25 45.2367 307.25 45.5474 307.017 45.7027C306.784 45.8581 302.667 46.8679 298.628 46.8679Z" fill="#373737"/>
<path d="M163.007 78.9479H78.3412V89.8224H163.007V78.9479Z" fill="#EB225A"/>
<path d="M221.808 39.5665H78.3412V50.4411H221.808V39.5665Z" fill="#EB225A"/>
<path d="M221.808 59.2183H78.3412V70.0928H221.808V59.2183Z" fill="#EB225A"/>
<path d="M221.807 104.581H221.031C220.409 104.581 219.866 104.192 219.71 103.571C219.477 102.794 219.244 102.095 218.934 101.318C218.7 100.775 218.856 100.231 219.244 99.8425L220.254 98.8327C220.798 98.289 220.798 97.4346 220.254 96.9685L215.36 92.075C214.817 91.5312 213.962 91.5312 213.496 92.075L212.953 92.6187C212.486 93.0847 211.865 93.1624 211.321 92.8517C210.622 92.4633 209.923 92.1526 209.224 91.8419C208.68 91.6089 208.37 91.1429 208.37 90.5991V89.201C208.37 88.4242 207.748 87.8805 207.049 87.8805H200.058C199.282 87.8805 198.738 88.5019 198.738 89.201V89.9777C198.738 90.5991 198.35 91.1429 197.728 91.2982C196.951 91.5312 196.252 91.7643 195.476 92.075C194.932 92.308 194.388 92.1526 194 91.7643L192.99 90.7545C192.446 90.2108 191.592 90.2108 191.126 90.7545L186.232 95.648C185.688 96.1918 185.688 97.0462 186.232 97.5122L186.776 98.056C187.242 98.522 187.32 99.1434 187.009 99.6871C186.621 100.386 186.31 101.085 185.999 101.784C185.766 102.328 185.3 102.639 184.756 102.639H183.358C182.581 102.639 182.038 103.26 182.038 103.959V110.95C182.038 111.727 182.659 112.271 183.358 112.271H184.135C184.756 112.271 185.3 112.659 185.455 113.28C185.688 114.057 185.921 114.756 186.232 115.533C186.465 116.077 186.31 116.62 185.921 117.009L184.912 118.019C184.368 118.562 184.368 119.417 184.912 119.883L189.805 124.776C190.349 125.32 191.203 125.32 191.669 124.776L192.213 124.233C192.679 123.766 193.301 123.689 193.844 124C194.543 124.388 195.243 124.699 195.942 125.009C196.485 125.242 196.796 125.708 196.796 126.252V127.65C196.796 128.427 197.417 128.971 198.117 128.971H205.107C205.884 128.971 206.428 128.349 206.428 127.65V126.874C206.428 126.252 206.816 125.708 207.438 125.553C208.214 125.32 208.913 125.087 209.69 124.776C210.234 124.543 210.778 124.699 211.166 125.087L212.176 126.097C212.719 126.64 213.574 126.64 214.04 126.097L218.934 121.203C219.477 120.659 219.477 119.805 218.934 119.339L218.39 118.795C217.924 118.329 217.846 117.708 218.157 117.164C218.545 116.465 218.856 115.766 219.167 115.067C219.4 114.523 219.866 114.212 220.409 114.212H221.807C222.584 114.212 223.128 113.591 223.128 112.892V105.901C223.128 105.202 222.507 104.581 221.807 104.581ZM211.244 102.328C205.263 108.309 202.466 116.077 202.466 116.154C202.233 116.698 201.767 117.086 201.224 117.164C201.146 117.164 201.146 117.164 201.068 117.164C200.524 117.164 200.058 116.931 199.748 116.465C199.67 116.387 195.786 110.018 193.611 107.765C193.068 107.144 193.068 106.212 193.689 105.668C194.31 105.124 195.243 105.124 195.786 105.746C197.262 107.299 199.359 110.329 200.757 112.504C202.156 109.474 204.874 104.503 209.146 100.309C209.768 99.6871 210.7 99.6871 211.244 100.309C211.865 100.775 211.865 101.707 211.244 102.328Z" fill="#EB225A"/>
<path d="M59.8785 179.8C59.7785 179.8 59.6785 179.8 59.4785 179.7C59.0785 179.5 58.8785 179 59.0785 178.6L60.2785 176.2C60.4785 175.8 60.9785 175.6 61.3785 175.8C61.7785 176 61.9785 176.5 61.7785 176.9L60.5785 179.3C60.4785 179.7 60.1785 179.8 59.8785 179.8Z" fill="#ADADAD"/>
<path d="M63.4784 172.5C63.3784 172.5 63.2784 172.5 63.0784 172.4C62.6784 172.2 62.4784 171.7 62.6784 171.3L65.0784 166.4C65.2784 166 65.7784 165.8 66.1784 166C66.5784 166.2 66.7784 166.7 66.5784 167.1L64.1784 172C64.0784 172.3 63.7784 172.5 63.4784 172.5ZM68.3784 162.7C68.2784 162.7 68.1784 162.7 67.9784 162.6C67.5784 162.4 67.3784 161.9 67.5784 161.5L69.9784 156.6C70.1784 156.2 70.6784 156 71.0784 156.2C71.4784 156.4 71.6784 156.9 71.4784 157.3L69.0784 162.2C68.9784 162.5 68.6784 162.7 68.3784 162.7ZM73.1784 152.8C73.0784 152.8 72.9784 152.8 72.7784 152.7C72.3784 152.5 72.1784 152 72.3784 151.6L74.7784 146.7C74.9784 146.3 75.4784 146.1 75.8784 146.3C76.2784 146.5 76.4784 147 76.2784 147.4L73.8784 152.3C73.7784 152.7 73.4784 152.8 73.1784 152.8ZM78.0784 143C77.9784 143 77.8784 143 77.6784 142.9C77.2784 142.7 77.0784 142.2 77.2784 141.8L79.6784 136.9C79.8784 136.5 80.3784 136.3 80.7784 136.5C81.1784 136.7 81.3784 137.2 81.1784 137.6L78.7784 142.5C78.5784 142.8 78.3784 143 78.0784 143ZM82.8784 133.2C82.7784 133.2 82.6784 133.2 82.4784 133.1C82.0784 132.9 81.8784 132.4 82.0784 132L84.4784 127.1C84.6784 126.7 85.1784 126.5 85.5784 126.7C85.9784 126.9 86.1784 127.4 85.9784 127.8L83.5784 132.7C83.4784 133 83.1784 133.2 82.8784 133.2ZM87.6784 123.3C87.5784 123.3 87.4784 123.3 87.2784 123.2C86.8784 123 86.6784 122.5 86.8784 122.1L89.2784 117.2C89.4784 116.8 89.9784 116.6 90.3784 116.8C90.7784 117 90.9784 117.5 90.7784 117.9L88.3784 122.8C88.2784 123.1 87.9784 123.3 87.6784 123.3Z" fill="#ADADAD"/>
<path d="M94.9784 113.5C94.6784 113.5 94.3784 113.3 94.2784 113L93.7784 112L93.2784 113C93.0784 113.4 92.5784 113.6 92.1784 113.4C91.7784 113.2 91.5784 112.7 91.7784 112.3L93.6784 108.4L95.5784 112.3C95.7784 112.7 95.5784 113.2 95.1784 113.4C95.1784 113.5 95.0784 113.5 94.9784 113.5Z" fill="#ADADAD"/>
<path d="M123.978 172.5C123.678 172.5 123.378 172.3 123.278 172L120.878 167.1C120.678 166.7 120.878 166.2 121.278 166C121.678 165.8 122.178 166 122.378 166.4L124.778 171.3C124.978 171.7 124.778 172.2 124.378 172.4C124.278 172.5 124.178 172.5 123.978 172.5ZM119.178 162.7C118.878 162.7 118.578 162.5 118.478 162.2L116.078 157.3C115.878 156.9 116.078 156.4 116.478 156.2C116.878 156 117.378 156.2 117.578 156.6L119.978 161.5C120.178 161.9 119.978 162.4 119.578 162.6C119.378 162.6 119.278 162.7 119.178 162.7ZM114.378 152.8C114.078 152.8 113.778 152.6 113.678 152.3L111.278 147.4C111.078 147 111.278 146.5 111.678 146.3C112.078 146.1 112.578 146.3 112.778 146.7L115.178 151.6C115.378 152 115.178 152.5 114.778 152.7C114.578 152.8 114.478 152.8 114.378 152.8ZM109.478 143C109.178 143 108.878 142.8 108.778 142.5L106.378 137.6C106.178 137.2 106.378 136.7 106.778 136.5C107.178 136.3 107.678 136.5 107.878 136.9L110.278 141.8C110.478 142.2 110.278 142.7 109.878 142.9C109.778 143 109.578 143 109.478 143ZM104.678 133.2C104.378 133.2 104.078 133 103.978 132.7L101.578 127.8C101.378 127.4 101.578 126.9 101.978 126.7C102.378 126.5 102.878 126.7 103.078 127.1L105.478 132C105.678 132.4 105.478 132.9 105.078 133.1C104.878 133.1 104.778 133.2 104.678 133.2ZM99.7784 123.3C99.4784 123.3 99.1784 123.1 99.0784 122.8L96.6784 117.9C96.4784 117.5 96.6784 117 97.0784 116.8C97.4784 116.6 97.9784 116.8 98.1784 117.2L100.578 122.1C100.778 122.5 100.578 123 100.178 123.2C100.078 123.3 99.8784 123.3 99.7784 123.3Z" fill="#ADADAD"/>
<path d="M127.678 179.8C127.378 179.8 127.078 179.6 126.978 179.3L125.778 176.9C125.578 176.5 125.778 176 126.178 175.8C126.578 175.6 127.078 175.8 127.278 176.2L128.478 178.6C128.678 179 128.478 179.5 128.078 179.7C127.878 179.8 127.778 179.8 127.678 179.8Z" fill="#ADADAD"/>
<path d="M62.0784 151.5C62.6784 150.1 63.4784 148.7 64.2784 147.4C65.0784 146.1 66.0784 144.9 67.0784 143.8C69.7784 140.7 73.1784 138.2 76.9784 136.5C77.8784 136.1 78.8784 135.7 79.8784 135.4C81.8784 134.7 84.0784 134.2 86.2784 134C86.4784 134 86.6784 133.9 86.8784 133.9C87.6784 133.8 98.3784 133.8 99.1784 133.8V194.6C98.8784 194.6 88.5784 194.6 88.2784 194.6C87.5784 194.6 86.9784 194.5 86.2784 194.4C85.3784 194.3 84.5784 194.2 83.7784 194C82.2784 193.7 80.7784 193.3 79.2784 192.7C67.6784 188.4 59.3784 177.2 59.3784 164.1C59.3784 159.6 60.3784 155.3 62.0784 151.5Z" fill="#1D1E5A"/>
<path d="M128.578 164.1C128.578 177.2 120.278 188.4 108.678 192.7C107.278 193.2 105.778 193.7 104.178 194C103.378 194.2 102.478 194.3 101.678 194.4C100.978 194.5 100.378 194.5 99.6785 194.6C99.1785 194.6 98.6785 194.6 98.1785 194.6C93.3785 194.6 88.7785 193.5 84.6785 191.5C82.4785 190.4 80.4785 189.1 78.6785 187.6C75.9785 185.4 73.6785 182.6 71.8785 179.6C69.2785 175.1 67.6785 169.8 67.6785 164.2C67.6785 150 77.3785 138.1 90.5785 134.7C92.9785 134.1 95.4785 133.8 98.0785 133.8C99.0785 133.8 100.078 133.8 100.978 133.9C101.178 133.9 101.378 133.9 101.578 134C103.778 134.2 105.878 134.7 107.978 135.4C108.978 135.7 109.878 136.1 110.878 136.5C114.678 138.3 118.078 140.8 120.778 143.8C121.778 144.9 122.778 146.2 123.578 147.4C124.378 148.7 125.178 150 125.778 151.5C127.678 155.4 128.578 159.6 128.578 164.1Z" fill="#2E3092"/>
<path d="M80.4784 164.1C80.4784 168.1 81.7784 171.8 83.9784 174.7L78.6784 187.5C75.9784 185.2 73.6784 182.5 71.8784 179.5L80.4784 159V164.1Z" fill="#2E3092"/>
<path d="M101.078 133.8L95.7784 146.4H89.5784C89.5784 151 86.2784 154.7 81.8784 155.4L90.5784 134.6C92.9784 134 95.4784 133.7 98.0784 133.7C99.1784 133.7 100.178 133.7 101.078 133.8Z" fill="#2E3092"/>
<path d="M125.878 151.5L108.678 192.7C107.278 193.2 105.778 193.7 104.178 194L112.078 175C113.978 172.6 115.278 169.6 115.678 166.4L123.578 147.4C124.478 148.7 125.278 150.1 125.878 151.5Z" fill="#2E3092"/>
<path d="M98.1785 181.8C100.878 181.8 103.378 181.2 105.678 180.1L99.6785 194.5C99.1785 194.5 98.6785 194.5 98.1785 194.5C93.2785 194.5 88.7785 193.4 84.6785 191.4L89.5785 179.6C92.1785 181 95.0785 181.8 98.1785 181.8Z" fill="#2E3092"/>
<path d="M115.878 155.7V155.6C110.778 155.6 106.678 151.5 106.678 146.4H103.478L108.078 135.3C109.078 135.6 109.978 136 110.978 136.5C114.778 138.2 118.178 140.8 120.878 143.8L115.878 155.7Z" fill="#2E3092"/>
<path d="M95.8784 146.4L84.0784 174.7C81.8784 171.7 80.5784 168.1 80.5784 164.1V158.9L82.0784 155.4C86.4784 154.7 89.7784 150.9 89.7784 146.4H95.8784Z" fill="#EDEDED"/>
<path d="M80.4784 155.6C80.9784 155.6 81.4784 155.6 81.9784 155.5L80.4784 159V155.6Z" fill="#2E3092"/>
<path d="M115.878 155.6V155.7L105.678 180.2C103.378 181.3 100.878 181.9 98.1784 181.9C95.0784 181.9 92.1784 181.1 89.5784 179.7L103.478 146.5H106.678C106.678 151.5 110.778 155.6 115.878 155.6Z" fill="#EDEDED"/>
<path d="M95.8784 146.4H103.478L89.5784 179.6C87.3784 178.4 85.4784 176.7 83.9784 174.7L95.8784 146.4Z" fill="white"/>
<path d="M115.778 166.4C115.378 169.6 114.078 172.5 112.178 175L115.778 166.4Z" fill="#EDEDED"/>
<path d="M115.878 155.7V164.1C115.878 164.9 115.878 165.6 115.778 166.4L112.178 175C110.478 177.2 108.278 179 105.678 180.2L115.878 155.7Z" fill="white"/>
<path d="M84.6784 191.7H84.5784C82.3784 190.6 80.3784 189.3 78.4784 187.8C75.7784 185.5 73.4784 182.8 71.6784 179.7C68.9784 175 67.4784 169.7 67.4784 164.2C67.4784 150.1 76.9784 137.9 90.5784 134.5C90.6784 134.5 90.8784 134.6 90.8784 134.7C90.8784 134.8 90.7784 135 90.6784 135C77.3784 138.3 67.9784 150.3 67.9784 164.1C67.9784 169.5 69.3784 174.7 72.0784 179.3C73.8784 182.3 76.0784 185 78.7784 187.2C80.5784 188.7 82.5784 190 84.6784 191.1C84.7784 191.2 84.8784 191.3 84.7784 191.5C84.8784 191.6 84.7784 191.7 84.6784 191.7Z" fill="white"/>
<path d="M68.8784 156H62.2784C62.1784 156 61.9784 155.9 61.9784 155.7C61.9784 155.6 62.0784 155.4 62.2784 155.4H68.8784C68.9784 155.4 69.1784 155.5 69.1784 155.7C69.1784 155.9 69.0784 156 68.8784 156Z" fill="white"/>
<path d="M68.2785 158.3H63.4785C63.3785 158.3 63.1785 158.2 63.1785 158C63.1785 157.9 63.2785 157.7 63.4785 157.7H68.2785C68.3785 157.7 68.5785 157.8 68.5785 158C68.5785 158.1 68.4785 158.3 68.2785 158.3Z" fill="white"/>
<path d="M76.1784 143.4H70.6784C70.5784 143.4 70.3784 143.3 70.3784 143.1C70.3784 143 70.4784 142.8 70.6784 142.8H76.1784C76.2784 142.8 76.4784 142.9 76.4784 143.1C76.4784 143.3 76.2784 143.4 76.1784 143.4Z" fill="white"/>
<path d="M74.1784 145.7H67.2784C67.1784 145.7 66.9784 145.6 66.9784 145.4C66.9784 145.3 67.0784 145.1 67.2784 145.1H74.1784C74.2784 145.1 74.4784 145.2 74.4784 145.4C74.4784 145.5 74.3784 145.7 74.1784 145.7Z" fill="white"/>
<path d="M69.5784 174.7H65.5784C65.4784 174.7 65.2784 174.6 65.2784 174.4C65.2784 174.3 65.3784 174.1 65.5784 174.1H69.4784C69.5784 174.1 69.7784 174.2 69.7784 174.4C69.7784 174.6 69.6784 174.7 69.5784 174.7Z" fill="white"/>
<path d="M114.778 195.4H72.6785C65.1785 195.4 59.0785 189.3 59.0785 181.8C59.0785 181.4 59.4785 181 59.8785 181C60.2785 181 60.6785 181.4 60.6785 181.8C60.6785 188.4 66.0785 193.8 72.6785 193.8H114.778C121.378 193.8 126.778 188.4 126.778 181.8C126.778 181.4 127.178 181 127.578 181C127.978 181 128.378 181.4 128.378 181.8C128.478 189.3 122.378 195.4 114.778 195.4Z" fill="#ADADAD"/>
<path d="M96.3784 111C96.3784 112.7 94.9784 114 93.3784 114C91.6784 114 90.3784 112.6 90.3784 111C90.3784 109.3 91.7784 108 93.3784 108C94.9784 108 96.3784 109.4 96.3784 111Z" fill="#D3C3AF"/>
<path d="M296.474 186.569C296.295 186.569 296.115 186.449 296.056 186.269L295.338 184.833C295.218 184.594 295.338 184.295 295.577 184.175C295.816 184.056 296.115 184.175 296.235 184.415L296.953 185.851C297.073 186.09 296.953 186.389 296.714 186.509C296.594 186.569 296.534 186.569 296.474 186.569Z" fill="#ADADAD"/>
<path d="M294.32 182.26C294.141 182.26 293.961 182.141 293.902 181.961L292.525 179.089C292.406 178.85 292.525 178.551 292.765 178.431C293.004 178.311 293.303 178.431 293.423 178.67L294.799 181.542C294.919 181.782 294.799 182.081 294.56 182.201C294.5 182.26 294.44 182.26 294.32 182.26ZM291.508 176.576C291.329 176.576 291.149 176.457 291.089 176.277L289.713 173.405C289.593 173.166 289.713 172.866 289.952 172.747C290.192 172.627 290.491 172.747 290.611 172.986L291.987 175.858C292.106 176.098 291.987 176.397 291.747 176.516C291.688 176.576 291.628 176.576 291.508 176.576ZM288.756 170.892C288.576 170.892 288.397 170.772 288.337 170.593L286.961 167.721C286.841 167.481 286.961 167.182 287.2 167.062C287.439 166.943 287.739 167.062 287.858 167.302L289.234 170.174C289.354 170.413 289.234 170.712 288.995 170.832C288.875 170.892 288.816 170.892 288.756 170.892ZM285.943 165.208C285.764 165.208 285.584 165.088 285.525 164.908L284.148 162.036C284.029 161.797 284.148 161.498 284.388 161.378C284.627 161.259 284.926 161.378 285.046 161.618L286.422 164.49C286.542 164.729 286.422 165.028 286.183 165.148C286.063 165.148 286.003 165.208 285.943 165.208ZM283.131 159.463C282.952 159.463 282.772 159.344 282.712 159.164L281.336 156.292C281.217 156.053 281.336 155.754 281.576 155.634C281.815 155.514 282.114 155.634 282.234 155.873L283.61 158.745C283.73 158.985 283.61 159.284 283.371 159.404C283.251 159.463 283.191 159.463 283.131 159.463ZM280.319 153.779C280.14 153.779 279.96 153.66 279.9 153.48L278.524 150.608C278.404 150.369 278.524 150.069 278.763 149.95C279.003 149.83 279.302 149.95 279.421 150.189L280.798 153.061C280.917 153.3 280.798 153.6 280.558 153.719C280.439 153.779 280.379 153.779 280.319 153.779ZM277.507 148.095C277.327 148.095 277.148 147.975 277.088 147.796L275.712 144.924C275.592 144.684 275.712 144.385 275.951 144.265C276.19 144.146 276.49 144.265 276.609 144.505L277.926 147.377C278.045 147.616 277.926 147.915 277.686 148.035C277.626 148.095 277.567 148.095 277.507 148.095Z" fill="#ADADAD"/>
<path d="M274.695 142.411C274.515 142.411 274.336 142.291 274.276 142.111L273.977 141.513L273.677 142.111C273.558 142.351 273.259 142.47 273.019 142.351C272.78 142.231 272.66 141.932 272.78 141.693L273.917 139.359L275.054 141.693C275.173 141.932 275.054 142.231 274.814 142.351C274.874 142.351 274.754 142.411 274.695 142.411Z" fill="#ADADAD"/>
<path d="M253.633 182.26C253.573 182.26 253.513 182.26 253.393 182.201C253.154 182.081 253.034 181.782 253.154 181.542L254.53 178.67C254.65 178.431 254.949 178.311 255.188 178.431C255.428 178.551 255.547 178.85 255.428 179.089L254.052 181.961C253.992 182.201 253.812 182.26 253.633 182.26ZM256.445 176.576C256.385 176.576 256.325 176.576 256.206 176.516C255.966 176.397 255.847 176.098 255.966 175.858L257.342 172.986C257.462 172.747 257.761 172.627 258.001 172.747C258.24 172.866 258.36 173.166 258.24 173.405L256.864 176.277C256.804 176.457 256.624 176.576 256.445 176.576ZM259.257 170.892C259.197 170.892 259.138 170.892 259.018 170.832C258.779 170.712 258.659 170.413 258.779 170.174L260.155 167.302C260.274 167.062 260.574 166.943 260.813 167.062C261.052 167.182 261.172 167.481 261.052 167.721L259.676 170.593C259.616 170.772 259.437 170.892 259.257 170.892ZM262.069 165.208C262.01 165.208 261.95 165.208 261.83 165.148C261.591 165.028 261.471 164.729 261.591 164.49L262.967 161.618C263.087 161.378 263.386 161.259 263.625 161.378C263.864 161.498 263.984 161.797 263.864 162.036L262.488 164.908C262.428 165.088 262.249 165.208 262.069 165.208ZM264.882 159.463C264.822 159.463 264.762 159.463 264.642 159.404C264.403 159.284 264.283 158.985 264.403 158.745L265.779 155.873C265.899 155.634 266.198 155.514 266.437 155.634C266.677 155.754 266.796 156.053 266.677 156.292L265.301 159.164C265.181 159.404 265.061 159.463 264.882 159.463ZM267.634 153.779C267.574 153.779 267.514 153.779 267.395 153.719C267.155 153.6 267.036 153.3 267.155 153.061L268.532 150.189C268.651 149.95 268.95 149.83 269.19 149.95C269.429 150.069 269.549 150.369 269.429 150.608L268.053 153.48C267.993 153.66 267.814 153.779 267.634 153.779ZM270.446 148.095C270.386 148.095 270.327 148.095 270.207 148.035C269.968 147.915 269.848 147.616 269.968 147.377L271.344 144.505C271.463 144.265 271.763 144.146 272.002 144.265C272.241 144.385 272.361 144.684 272.241 144.924L270.865 147.796C270.805 147.975 270.626 148.095 270.446 148.095Z" fill="#ADADAD"/>
<path d="M251.538 186.569C251.479 186.569 251.419 186.569 251.299 186.509C251.06 186.389 250.94 186.09 251.06 185.851L251.778 184.415C251.898 184.175 252.197 184.056 252.436 184.175C252.675 184.295 252.795 184.594 252.675 184.833L251.957 186.269C251.898 186.509 251.718 186.569 251.538 186.569Z" fill="#ADADAD"/>
<path d="M294.44 168.02C294.021 167.063 293.543 166.225 292.944 165.327C292.406 164.49 291.747 163.712 291.089 162.934C289.294 160.9 287.08 159.284 284.567 158.087C283.969 157.788 283.311 157.549 282.712 157.309C281.396 156.831 279.96 156.532 278.524 156.352C278.404 156.352 278.225 156.292 278.105 156.292C277.626 156.232 270.506 156.232 269.968 156.232V196.322C270.147 196.322 276.968 196.322 277.148 196.322C277.567 196.322 278.045 196.262 278.464 196.202C279.003 196.142 279.601 196.082 280.14 195.963C281.157 195.783 282.114 195.484 283.071 195.125C290.73 192.313 296.175 184.953 296.175 176.337C296.235 173.405 295.577 170.593 294.44 168.02Z" fill="#1A1B56"/>
<path d="M291.628 176.337C291.628 184.953 286.183 192.313 278.524 195.125C277.567 195.484 276.609 195.783 275.592 195.963C275.054 196.082 274.515 196.142 273.917 196.202C273.498 196.262 273.019 196.262 272.6 196.322C272.301 196.322 271.942 196.322 271.583 196.322C268.412 196.322 265.36 195.604 262.728 194.227C261.292 193.509 259.975 192.672 258.779 191.655C256.983 190.159 255.488 188.364 254.291 186.389C252.556 183.397 251.539 179.987 251.539 176.277C251.539 166.943 257.941 159.045 266.617 156.891C268.232 156.472 269.848 156.292 271.583 156.292C272.241 156.292 272.84 156.352 273.498 156.412C273.618 156.412 273.797 156.412 273.917 156.472C275.353 156.651 276.789 156.95 278.105 157.429C278.763 157.668 279.362 157.908 279.96 158.207C282.473 159.344 284.687 161.019 286.482 163.054C287.14 163.831 287.798 164.609 288.337 165.447C288.875 166.285 289.414 167.182 289.833 168.14C290.97 170.593 291.628 173.405 291.628 176.337Z" fill="#2E3092"/>
<path d="M260.274 181.543H263.027L258.778 191.774C256.983 190.278 255.488 188.483 254.291 186.509L260.274 172.208V181.543Z" fill="#2E3092"/>
<path d="M273.498 156.412L269.908 165.028H266.437V171.131H260.693L266.617 156.891C268.173 156.472 269.848 156.292 271.583 156.292C272.241 156.292 272.84 156.352 273.498 156.412Z" fill="#2E3092"/>
<path d="M289.833 168.02L278.524 195.125C277.567 195.484 276.609 195.783 275.592 195.963L281.635 181.483H282.952V178.371L288.397 165.327C288.875 166.225 289.414 167.122 289.833 168.02Z" fill="#2E3092"/>
<path d="M266.378 187.646H276.19L272.541 196.382C272.241 196.382 271.882 196.382 271.523 196.382C268.352 196.382 265.301 195.664 262.668 194.287L266.378 185.432V187.646Z" fill="#2E3092"/>
<path d="M276.789 181.542H278.763L276.789 186.329V181.542Z" fill="#2E3092"/>
<path d="M282.892 171.61V171.131H276.729V165.028H274.934L278.105 157.369C278.763 157.609 279.362 157.848 279.96 158.147C282.473 159.284 284.687 160.959 286.482 162.994L282.892 171.61Z" fill="#2E3092"/>
<path d="M269.908 165.028L263.027 181.543H260.274V172.149L260.693 171.191H266.378V165.028H269.908Z" fill="#EDEDED"/>
<path d="M260.274 171.191H260.693L260.274 172.149V171.191Z" fill="#2E3092"/>
<path d="M282.892 171.191V171.61L278.763 181.543H276.789V186.329L276.19 187.646H266.378V185.432L274.934 165.028H276.789V171.191H282.892Z" fill="#EDEDED"/>
<path d="M269.908 165.028H274.934L266.378 185.432V181.543H263.027L269.908 165.028Z" fill="white"/>
<path d="M276.19 187.646L276.789 186.329V187.646H276.19Z" fill="#2E3092"/>
<path d="M282.892 178.431V181.543H281.576L282.892 178.431Z" fill="#EDEDED"/>
<path d="M282.892 171.61V178.431L281.576 181.543H278.763L282.892 171.61Z" fill="white"/>
<path d="M278.524 195.305C278.464 195.305 278.404 195.245 278.344 195.185C278.285 195.125 278.344 195.005 278.464 195.005C286.243 192.133 291.448 184.654 291.448 176.337C291.448 173.465 290.85 170.712 289.653 168.08C289.234 167.182 288.756 166.285 288.217 165.447C287.679 164.609 287.02 163.831 286.362 163.054C284.567 161.019 282.353 159.404 279.9 158.267C279.84 158.207 279.78 158.147 279.84 158.027C279.9 157.968 279.96 157.908 280.08 157.968C282.593 159.105 284.807 160.78 286.661 162.814C287.32 163.532 287.978 164.37 288.516 165.208C289.055 166.105 289.593 167.003 290.012 167.9C291.209 170.533 291.807 173.345 291.807 176.277C291.807 184.774 286.482 192.373 278.524 195.305Z" fill="white"/>
<path d="M287.978 161.558H284.926C284.866 161.558 284.747 161.498 284.747 161.378C284.747 161.318 284.807 161.199 284.926 161.199H287.978C288.038 161.199 288.157 161.259 288.157 161.378C288.157 161.498 288.038 161.558 287.978 161.558Z" fill="white"/>
<path d="M291.269 163.891H287.2C287.14 163.891 287.021 163.832 287.021 163.712C287.021 163.652 287.08 163.532 287.2 163.532H291.269C291.329 163.532 291.448 163.592 291.448 163.712C291.388 163.832 291.329 163.891 291.269 163.891Z" fill="white"/>
<path d="M289.354 165.088H288.157C288.098 165.088 287.978 165.028 287.978 164.909C287.978 164.849 288.038 164.729 288.157 164.729H289.354C289.414 164.729 289.534 164.789 289.534 164.909C289.474 164.968 289.414 165.088 289.354 165.088Z" fill="white"/>
<path d="M295.218 175.2H291.628C291.568 175.2 291.448 175.14 291.448 175.021C291.448 174.961 291.508 174.841 291.628 174.841H295.218C295.278 174.841 295.397 174.901 295.397 175.021C295.397 175.14 295.278 175.2 295.218 175.2Z" fill="white"/>
<path d="M295.936 173.046H291.329C291.269 173.046 291.149 172.986 291.149 172.867C291.149 172.807 291.209 172.687 291.329 172.687H295.936C295.996 172.687 296.115 172.747 296.115 172.867C296.115 172.926 295.996 173.046 295.936 173.046Z" fill="white"/>
<path d="M293.961 176.756H291.628C291.568 176.756 291.448 176.696 291.448 176.576C291.448 176.516 291.508 176.397 291.628 176.397H293.961C294.021 176.397 294.141 176.457 294.141 176.576C294.081 176.636 294.021 176.756 293.961 176.756Z" fill="white"/>
<path d="M288.995 196.92H258.958C254.59 196.92 251 193.33 251 188.962C251 188.723 251.239 188.483 251.479 188.483C251.718 188.483 251.957 188.723 251.957 188.962C251.957 192.791 255.069 195.963 258.958 195.963H288.995C292.824 195.963 295.996 192.851 295.996 188.962C295.996 188.723 296.235 188.483 296.474 188.483C296.714 188.483 296.953 188.723 296.953 188.962C296.953 193.33 293.363 196.92 288.995 196.92Z" fill="#ADADAD"/>
<path d="M271.942 141.034C271.942 142.171 272.84 143.069 273.977 143.069C275.113 143.069 276.011 142.171 276.011 141.034C276.011 139.898 275.113 139 273.977 139C272.84 139 271.942 139.898 271.942 141.034Z" fill="#D3C3AF"/>
<path d="M58.7822 73.8999C58.7018 73.8999 58.6214 73.8999 58.6214 73.8195C58.541 73.8195 50.4997 69.9597 41.2521 60.6317C32.6479 52.1079 21.3096 36.9902 15.761 13.6702C15.6806 13.429 15.8414 13.1878 16.0827 13.1073C16.3239 13.0269 16.5652 13.1878 16.6456 13.429C22.1137 36.5881 33.2912 51.545 41.815 60.0688C50.9821 69.236 58.8627 73.0958 58.9431 73.0958C59.1843 73.1762 59.2647 73.4979 59.1843 73.6587C59.1039 73.8195 58.9431 73.8999 58.7822 73.8999Z" fill="#373737"/>
<path d="M34.4975 43.7449C34.4975 43.7449 56.5307 44.9511 51.0626 18.6559C51.0626 18.6559 28.4664 18.9775 34.4975 43.7449Z" fill="#7F9922"/>
<path d="M34.0149 52.0275C33.9345 52.0275 33.7737 51.9471 33.7737 51.8667C32.4871 41.1717 41.815 31.6025 41.8954 31.5221C41.9758 31.4417 42.1367 31.4417 42.2171 31.5221C42.2975 31.6025 42.2975 31.7633 42.2171 31.8438C42.1367 31.9242 32.9695 41.3325 34.2561 51.8667C34.2561 51.8667 34.1757 52.0275 34.0149 52.0275Z" fill="#EB225A"/>
<path d="M20.9075 14.1528C20.9075 14.1528 34.8191 11.3383 29.1097 0C29.0293 0 17.2085 1.28662 20.9075 14.1528Z" fill="#AFC547"/>
<path d="M19.2993 24.9282C19.058 24.9282 18.8972 24.7674 18.8972 24.5261C18.0127 15.0373 24.2045 6.5135 24.4457 6.11144C24.6066 5.95061 24.8478 5.8702 25.089 6.03102C25.2499 6.19185 25.3303 6.43309 25.1695 6.67433C25.089 6.75475 18.8972 15.2786 19.7818 24.4457C19.7818 24.687 19.6209 24.9282 19.2993 24.9282C19.2993 24.9282 19.3797 24.9282 19.2993 24.9282Z" fill="#373737"/>
<path d="M16.9672 36.0252C16.9672 36.0252 1.7691 41.9758 0 22.9982C0 22.9982 17.1281 16.6456 16.9672 36.0252Z" fill="#AFC547"/>
<path d="M25.2498 38.6789C17.0476 38.116 7.39803 30.718 6.99596 30.3963C6.83513 30.2355 6.75472 29.9943 6.91555 29.753C7.07637 29.5922 7.31761 29.5118 7.55885 29.6726C7.63927 29.753 17.3693 37.2315 25.3302 37.7944C25.5715 37.7944 25.7323 38.0356 25.7323 38.2769C25.7323 38.5181 25.4911 38.6789 25.2498 38.6789Z" fill="#373737"/>
<path d="M34.0149 60.471C34.0149 60.471 29.1097 82.1826 7.88049 69.5577C7.88049 69.5577 15.1177 48.0873 34.0149 60.471Z" fill="#7F9922"/>
<path d="M21.7116 63.607C21.5508 63.607 21.39 63.5266 21.3096 63.3658C21.2292 63.1245 21.3096 62.8833 21.5508 62.8029C22.0333 62.5617 33.9345 57.0935 43.6645 61.9183C43.9058 61.9988 43.9862 62.3204 43.8254 62.4812C43.7449 62.7225 43.4233 62.8029 43.2625 62.6421C33.9345 57.9781 22.0333 63.4462 21.9529 63.5266C21.7921 63.5266 21.7921 63.607 21.7116 63.607Z" fill="#373737"/>
<path d="M34.4975 43.7449C34.4975 43.7449 56.5307 44.9511 51.0626 18.6559C51.0626 18.6559 28.4664 18.9775 34.4975 43.7449Z" fill="#7F9922"/>
<path d="M34.0149 52.2687C33.7737 52.2687 33.6129 52.1079 33.6129 51.8666C32.2458 41.0108 41.3326 31.6828 41.7346 31.2808C41.8955 31.1199 42.2171 31.1199 42.3779 31.2808C42.5388 31.4416 42.5388 31.7633 42.3779 31.9241C42.2975 32.0045 33.2108 41.3325 34.417 51.7862C34.4974 51.947 34.2562 52.1883 34.0149 52.2687Z" fill="#373737"/>
</svg>
