<svg width="461" height="360" viewBox="0 0 461 360" fill="none" xmlns="http://www.w3.org/2000/svg">
<path d="M194.002 242.756L184.047 311.451H299.536L284.493 242.756H194.002Z" fill="#2E3092"/>
<path d="M0 22.7992V227.264C0 244.084 13.4039 257.839 30.2184 258.273C104.9 260.199 366.097 264.868 437.188 263.82C449.407 263.639 459.306 253.862 459.657 241.647C461.028 194.147 463.255 79.9245 455.016 26.8959C453.281 15.729 443.854 7.37783 432.558 7.01692C369.985 5.01569 93.0987 -1.34077 22.0412 0.254039C9.78506 0.530407 0 10.5414 0 22.7992Z" fill="url(#paint0_linear_5740_3889)"/>
<path d="M12.83 21.8042V216.06C12.83 225.881 20.713 233.883 30.5322 234.029L426.96 238.927C436.694 239.073 444.675 231.241 444.711 221.505L445.374 28.9833C445.4 22.0221 439.853 16.3175 432.893 16.1484L27.0256 7.94844C19.2417 7.75823 12.8284 14.0172 12.8284 21.8042H12.83Z" fill="#585BDA"/>
<path d="M447.695 246.888H447.685L12.8202 239.478C12.5162 239.473 12.2756 239.223 12.2805 238.919C12.2854 238.615 12.539 238.382 12.8397 238.378L447.705 245.787C448.009 245.792 448.25 246.043 448.245 246.347C448.24 246.647 447.994 246.888 447.695 246.888Z" fill="#2E3092"/>
<path d="M234.552 255.938C231.754 255.938 229.478 253.662 229.478 250.865C229.478 248.067 231.754 245.791 234.552 245.791C237.35 245.791 239.626 248.067 239.626 250.865C239.626 253.662 237.35 255.938 234.552 255.938ZM234.552 246.888C232.361 246.888 230.577 248.671 230.577 250.863C230.577 253.054 232.361 254.838 234.552 254.838C236.743 254.838 238.527 253.054 238.527 250.863C238.527 248.671 236.743 246.888 234.552 246.888Z" fill="#2E3092"/>
<path d="M324.412 329.717H155.386C150.793 329.717 147.345 326.448 148.232 322.937L150.401 314.359C151.053 311.779 153.892 309.886 157.262 309.781L320.21 304.696C323.731 304.586 326.849 306.455 327.617 309.136L331.526 322.798C332.542 326.347 329.078 329.717 324.411 329.717H324.412Z" fill="url(#paint1_linear_5740_3889)"/>
<path d="M246.376 312.103C246.077 312.103 245.831 311.862 245.826 311.562C245.821 311.258 246.064 311.009 246.368 311.004L253.35 310.902C253.641 310.902 253.903 311.141 253.908 311.443C253.912 311.747 253.67 311.996 253.366 312.001L246.384 312.103H246.376Z" fill="#2E3092"/>
<path d="M154.491 324.987C154.462 324.987 154.433 324.985 154.404 324.98C154.105 324.933 153.9 324.65 153.947 324.351L154.943 318.112C155.478 314.759 158.33 312.292 161.724 312.241L235.784 311.158H235.792C236.092 311.158 236.337 311.399 236.342 311.7C236.347 312.004 236.105 312.253 235.801 312.257L161.74 313.34C158.882 313.382 156.48 315.462 156.029 318.284L155.033 324.523C154.989 324.793 154.756 324.987 154.491 324.987Z" fill="#2E3092"/>
<g opacity="0.53">
<path opacity="0.53" d="M243.339 35.382H232.912V219.29H243.339V35.382Z" fill="white"/>
<path opacity="0.53" d="M260.761 35.3821H250.334V219.29H260.761V35.3821Z" fill="white"/>
<path opacity="0.53" d="M278.184 35.3821H267.757V219.29H278.184V35.3821Z" fill="white"/>
<path opacity="0.53" d="M295.607 35.3821H285.179V219.29H295.607V35.3821Z" fill="white"/>
<path opacity="0.53" d="M313.028 35.3821H302.6V219.29H313.028V35.3821Z" fill="white"/>
<path opacity="0.53" d="M330.45 35.3821H320.023V219.29H330.45V35.3821Z" fill="white"/>
<path opacity="0.53" d="M347.873 35.3821H337.445V219.29H347.873V35.3821Z" fill="white"/>
</g>
<path d="M243.339 123.045H232.912V219.291H243.339V123.045Z" fill="#EB225A"/>
<path d="M260.761 156.122H250.334V219.29H260.761V156.122Z" fill="#EB225A"/>
<path d="M278.184 74.3711H267.757V219.29H278.184V74.3711Z" fill="#EB225A"/>
<path d="M295.607 184.476H285.179V219.292H295.607V184.476Z" fill="#EB225A"/>
<path d="M313.028 93.7462H302.6V219.291H313.028V93.7462Z" fill="#EB225A"/>
<path d="M330.45 115.483H320.023V219.29H330.45V115.483Z" fill="#EB225A"/>
<path d="M347.873 139.111H337.445V219.29H347.873V139.111Z" fill="#EB225A"/>
<path opacity="0.57" d="M60.9457 26.9783C46.9566 26.9783 35.6157 38.3191 35.6157 52.3082C35.6157 66.2973 46.9566 77.6382 60.9457 77.6382C74.9348 77.6382 86.2756 66.2973 86.2756 52.3082C86.2756 38.3191 74.9348 26.9783 60.9457 26.9783ZM60.9457 66.7395C52.9749 66.7395 46.5144 60.279 46.5144 52.3082C46.5144 44.3374 52.9749 37.8769 60.9457 37.8769C68.9165 37.8769 75.377 44.3374 75.377 52.3082C75.377 60.279 68.9165 66.7395 60.9457 66.7395Z" fill="white"/>
<path d="M100.816 46.7369H25.5722V78.5794H100.816V46.7369Z" fill="#EEF0F2"/>
<path opacity="0.57" d="M122.693 26.9783C108.704 26.9783 97.3629 38.3191 97.3629 52.3082C97.3629 66.2973 108.704 77.6382 122.693 77.6382C136.682 77.6382 148.023 66.2973 148.023 52.3082C148.023 38.3191 136.682 26.9783 122.693 26.9783ZM122.693 66.7395C114.722 66.7395 108.262 60.279 108.262 52.3082C108.262 44.3374 114.722 37.8769 122.693 37.8769C130.664 37.8769 137.124 44.3374 137.124 52.3082C137.124 60.279 130.664 66.7395 122.693 66.7395Z" fill="white"/>
<path d="M162.563 34.4303H87.3193V78.5809H162.563V34.4303Z" fill="#EEF0F2"/>
<path opacity="0.57" d="M184.442 26.9783C170.453 26.9783 159.112 38.3191 159.112 52.3082C159.112 66.2973 170.453 77.6382 184.442 77.6382C198.431 77.6382 209.772 66.2973 209.772 52.3082C209.772 38.3191 198.431 26.9783 184.442 26.9783ZM184.442 66.7395C176.471 66.7395 170.01 60.279 170.01 52.3082C170.01 44.3374 176.471 37.8769 184.442 37.8769C192.412 37.8769 198.873 44.3374 198.873 52.3082C198.873 60.279 192.412 66.7395 184.442 66.7395Z" fill="white"/>
<path d="M224.312 62.6589H149.068V78.5794H224.312V62.6589Z" fill="#EEF0F2"/>
<path opacity="0.44" d="M203.893 220.308L41.4081 219.087C38.2022 219.063 35.6173 216.458 35.6173 213.252V129.77C35.6173 126.548 38.2298 123.935 41.452 123.935H203.939C207.161 123.935 209.773 126.548 209.773 129.77V214.473C209.773 217.713 207.135 220.332 203.895 220.308H203.893Z" fill="white"/>
<path opacity="0.44" d="M178.69 161.627L157.796 139.537L127.838 172.122L106.699 149.312L86.8739 171.724L71.6704 153.253L41.7072 184.448V207.006C41.7072 209.988 44.1116 212.412 47.0931 212.433L198.216 213.568C201.229 213.591 203.683 211.154 203.683 208.141V146.773L178.691 161.627H178.69Z" fill="white"/>
<path d="M179.366 161.014H178.817V213.569H179.366V161.014Z" fill="white"/>
<path d="M158.07 139.537H157.52V213.265H158.07V139.537Z" fill="white"/>
<path d="M128.111 171.724H127.562V213.039H128.111V171.724Z" fill="white"/>
<path d="M107.533 150.12H106.984V213.039H107.533V150.12Z" fill="white"/>
<path d="M87.1454 171.054H86.5959V213.039H87.1454V171.054Z" fill="white"/>
<path d="M72.2637 151.687H71.7143V212.638H72.2637V151.687Z" fill="white"/>
<path d="M76.2309 153.445C77.2012 151.102 76.0888 148.417 73.7463 147.447C71.4038 146.476 68.7182 147.589 67.7479 149.931C66.7776 152.274 67.89 154.959 70.2325 155.93C72.575 156.9 75.2606 155.788 76.2309 153.445Z" fill="#EEF0F2"/>
<path d="M89.896 171.054C89.896 172.724 88.5418 174.078 86.8723 174.078C85.2027 174.078 83.8485 172.724 83.8485 171.054C83.8485 169.385 85.2027 168.03 86.8723 168.03C88.5418 168.03 89.896 169.385 89.896 171.054Z" fill="#EEF0F2"/>
<path d="M110.282 150.12C110.282 151.79 108.928 153.144 107.258 153.144C105.589 153.144 104.235 151.79 104.235 150.12C104.235 148.451 105.589 147.096 107.258 147.096C108.928 147.096 110.282 148.451 110.282 150.12Z" fill="#EEF0F2"/>
<path d="M130.86 171.724C130.86 173.394 129.506 174.748 127.837 174.748C126.167 174.748 124.813 173.394 124.813 171.724C124.813 170.055 126.167 168.7 127.837 168.7C129.506 168.7 130.86 170.055 130.86 171.724Z" fill="#EEF0F2"/>
<path d="M160.82 139.537C160.82 141.206 159.466 142.561 157.796 142.561C156.127 142.561 154.773 141.206 154.773 139.537C154.773 137.867 156.127 136.513 157.796 136.513C159.466 136.513 160.82 137.867 160.82 139.537Z" fill="#EEF0F2"/>
<path d="M182.117 161.014C182.117 162.683 180.763 164.038 179.093 164.038C177.423 164.038 176.069 162.683 176.069 161.014C176.069 159.344 177.423 157.99 179.093 157.99C180.763 157.99 182.117 159.344 182.117 161.014Z" fill="#EB225A"/>
<g opacity="0.48">
<path opacity="0.48" d="M82.5658 110.037H38.0234C36.1603 110.037 34.6501 111.089 34.6501 112.386C34.6501 113.683 36.1603 114.735 38.0234 114.735H82.5658C84.4288 114.735 85.9391 113.683 85.9391 112.386C85.9391 111.089 84.4288 110.037 82.5658 110.037Z" fill="white"/>
<path opacity="0.48" d="M82.5658 99.6322H38.0234C36.1603 99.6322 34.6501 100.684 34.6501 101.981C34.6501 103.279 36.1603 104.33 38.0234 104.33H82.5658C84.4288 104.33 85.9391 103.279 85.9391 101.981C85.9391 100.684 84.4288 99.6322 82.5658 99.6322Z" fill="white"/>
<path opacity="0.48" d="M82.5658 89.2295H38.0234C36.1603 89.2295 34.6501 90.2813 34.6501 91.5786C34.6501 92.8759 36.1603 93.9277 38.0234 93.9277H82.5658C84.4288 93.9277 85.9391 92.8759 85.9391 91.5786C85.9391 90.2813 84.4288 89.2295 82.5658 89.2295Z" fill="white"/>
</g>
<g opacity="0.48">
<path opacity="0.48" d="M144.482 110.037H99.9396C98.0766 110.037 96.5663 111.089 96.5663 112.386C96.5663 113.683 98.0766 114.735 99.9396 114.735H144.482C146.345 114.735 147.855 113.683 147.855 112.386C147.855 111.089 146.345 110.037 144.482 110.037Z" fill="white"/>
<path opacity="0.48" d="M144.482 99.6322H99.9396C98.0766 99.6322 96.5663 100.684 96.5663 101.981C96.5663 103.279 98.0766 104.33 99.9396 104.33H144.482C146.345 104.33 147.855 103.279 147.855 101.981C147.855 100.684 146.345 99.6322 144.482 99.6322Z" fill="white"/>
<path opacity="0.48" d="M144.482 89.2295H99.9396C98.0766 89.2295 96.5663 90.2813 96.5663 91.5786C96.5663 92.8759 98.0766 93.9277 99.9396 93.9277H144.482C146.345 93.9277 147.855 92.8759 147.855 91.5786C147.855 90.2813 146.345 89.2295 144.482 89.2295Z" fill="white"/>
</g>
<g opacity="0.48">
<path opacity="0.48" d="M206.398 110.037H161.856C159.993 110.037 158.482 111.089 158.482 112.386C158.482 113.683 159.993 114.735 161.856 114.735H206.398C208.261 114.735 209.772 113.683 209.772 112.386C209.772 111.089 208.261 110.037 206.398 110.037Z" fill="white"/>
<path opacity="0.48" d="M206.398 99.6322H161.856C159.993 99.6322 158.482 100.684 158.482 101.981C158.482 103.279 159.993 104.33 161.856 104.33H206.398C208.261 104.33 209.772 103.279 209.772 101.981C209.772 100.684 208.261 99.6322 206.398 99.6322Z" fill="white"/>
<path opacity="0.48" d="M206.398 89.2295H161.856C159.993 89.2295 158.482 90.2813 158.482 91.5786C158.482 92.8759 159.993 93.9277 161.856 93.9277H206.398C208.261 93.9277 209.772 92.8759 209.772 91.5786C209.772 90.2813 208.261 89.2295 206.398 89.2295Z" fill="white"/>
</g>
<path d="M409.424 134.388C417.473 126.339 417.473 113.29 409.424 105.241C401.375 97.1917 388.325 97.1917 380.277 105.241C372.228 113.29 372.228 126.339 380.277 134.388C388.325 142.437 401.375 142.437 409.424 134.388Z" fill="url(#paint2_linear_5740_3889)"/>
<path d="M407.097 115.457C407.734 117.008 408.088 118.707 408.088 120.487C408.088 127.798 402.161 133.725 394.85 133.725C387.54 133.725 381.612 127.798 381.612 120.487C381.612 113.176 387.54 107.249 394.85 107.249C395.075 107.249 395.297 107.255 395.519 107.265V103.91C395.297 103.902 395.075 103.895 394.85 103.895C385.686 103.895 378.259 111.323 378.259 120.487C378.259 129.651 385.686 137.079 394.85 137.079C404.014 137.079 411.442 129.651 411.442 120.487C411.442 118.23 410.99 116.08 410.176 114.119L407.097 115.457Z" fill="#EB225A"/>
<path opacity="0.5" d="M411.792 149.153H378.207C376.098 149.153 374.389 150.861 374.389 152.97C374.389 155.078 376.098 156.787 378.207 156.787H411.792C413.9 156.787 415.609 155.078 415.609 152.97C415.609 150.861 413.9 149.153 411.792 149.153Z" fill="white"/>
<path d="M409.337 68.1459C417.386 60.097 417.386 47.0471 409.337 38.9982C401.288 30.9492 388.238 30.9492 380.189 38.9982C372.14 47.0471 372.14 60.097 380.189 68.1459C388.238 76.1948 401.288 76.1948 409.337 68.1459Z" fill="url(#paint3_linear_5740_3889)"/>
<path d="M401.768 65.446C399.726 66.7352 397.308 67.4847 394.714 67.4847C387.403 67.4847 381.476 61.5574 381.476 54.2466C381.476 46.9359 387.403 41.0086 394.714 41.0086C394.938 41.0086 395.161 41.0151 395.382 41.0248V37.6694C395.161 37.6613 394.938 37.6548 394.714 37.6548C385.55 37.6548 378.122 45.0826 378.122 54.2466C378.122 63.4107 385.55 70.8385 394.714 70.8385C397.912 70.8385 400.898 69.933 403.431 68.3658L401.768 65.4477V65.446Z" fill="#EB225A"/>
<path opacity="0.5" d="M411.88 82.9108H378.294C376.186 82.9108 374.477 84.6194 374.477 86.7279C374.477 88.8364 376.186 90.545 378.294 90.545H411.88C413.988 90.545 415.697 88.8364 415.697 86.7279C415.697 84.6194 413.988 82.9108 411.88 82.9108Z" fill="white"/>
<path opacity="0.91" d="M409.498 200.966C417.547 192.917 417.547 179.867 409.498 171.818C401.449 163.769 388.399 163.769 380.35 171.818C372.301 179.867 372.301 192.917 380.35 200.966C388.399 209.015 401.449 209.015 409.498 200.966Z" fill="white"/>
<path d="M406.149 193.837C403.766 197.335 399.752 199.632 395.202 199.632C387.891 199.632 381.964 193.705 381.964 186.394C381.964 179.084 387.891 173.156 395.202 173.156C395.426 173.156 395.649 173.163 395.87 173.173V169.817C395.649 169.809 395.426 169.802 395.202 169.802C386.037 169.802 378.61 177.23 378.61 186.394C378.61 195.558 386.037 202.986 395.202 202.986C400.87 202.986 405.874 200.143 408.867 195.805L406.149 193.838V193.837Z" fill="#231F20"/>
<path opacity="0.5" d="M378.132 222.693H411.717C413.826 222.693 415.534 220.984 415.534 218.876C415.534 216.767 413.826 215.058 411.717 215.058H378.132C376.023 215.058 374.315 216.767 374.315 218.876C374.315 220.984 376.023 222.693 378.132 222.693Z" fill="white"/>
<path d="M115.347 348.105C115.347 348.105 114.658 352.008 114.32 355.874C114.188 357.384 115.352 358.696 116.867 358.759C122.014 358.973 133.022 359.391 136.972 359.214C137.566 359.188 137.954 358.58 137.735 358.027C137.551 357.564 137.195 357.19 136.743 356.982L118.559 348.624L115.347 348.105Z" fill="#2E3092"/>
<path d="M114.783 345.811L115.337 350.481C115.337 350.481 118.522 351.963 120.698 350.294L119.378 345.09L114.783 345.811Z" fill="url(#paint4_linear_5740_3889)"/>
<path d="M115.199 258.018C114.959 259.238 113.914 318.873 120.288 345.598C120.393 346.034 120.171 346.484 119.756 346.653C118.778 347.052 116.862 347.631 114.565 347.708C113.854 347.732 113.216 347.269 113.014 346.586C111.192 340.386 102.461 309.319 101.322 279.643C100.049 246.481 101.322 278.514 101.322 278.514L102.068 258.015L115.197 258.018H115.199Z" fill="#2E3092"/>
<path d="M94.4296 350.142C94.4296 350.142 93.3318 352.113 92.2692 357.35C92.0776 358.295 92.7381 359.202 93.6985 359.296C95.3976 359.464 98.0142 359.678 100.109 359.664C101.075 359.658 101.829 358.816 101.712 357.857C101.48 355.945 100.757 352.809 98.5234 350.365L94.4296 350.143V350.142Z" fill="url(#paint5_linear_5740_3889)"/>
<path d="M93.4653 344.135L94.7598 351.197C94.7598 351.197 96.0404 352.148 98.5725 351.459L97.955 343.861L93.4666 344.136L93.4653 344.135Z" fill="url(#paint6_linear_5740_3889)"/>
<path d="M89.9677 259.848C84.7546 291.312 91.0983 337.615 93.2385 346.677C93.3696 347.231 93.817 347.656 94.3791 347.75C95.3345 347.908 96.9063 348.037 98.4566 347.587C98.991 347.432 99.3653 346.95 99.388 346.395C99.6754 339.068 99.1587 294.089 104.016 276.313C104.262 275.412 104.813 274.626 105.574 274.086L115.003 267.383L115.727 256.548L89.9689 259.849L89.9677 259.848Z" fill="url(#paint7_linear_5740_3889)"/>
<path d="M123.188 200.229C107.564 199.971 90.3257 204.332 90.3257 204.332C85.6684 231.507 89.5114 262.851 89.5114 262.851C101.608 266.023 115.252 260.911 115.252 260.911C117.262 249.552 126.642 217.587 126.642 217.587C134.276 216.639 140.565 214.437 145.744 211.525C141.793 206.946 139.931 201.119 139.123 197.676C133.598 199.392 128.008 200.31 123.19 200.229H123.188Z" fill="#EEF0F2"/>
<path d="M169.34 177.217C167.805 175.363 165.862 176.24 165.862 176.24C163.563 185.951 151.508 193.826 139.121 197.676C139.931 201.12 141.792 206.946 145.742 211.525C166.297 199.968 169.339 177.217 169.339 177.217H169.34Z" fill="url(#paint8_linear_5740_3889)"/>
<path d="M168.967 177.688C169.127 178.198 167.268 178.976 166.172 176.888C166.135 175.887 165.526 171.599 166.123 170.785C169.308 166.442 175.483 161 175.483 161C176.527 162.03 175.667 163.042 175.667 163.042L172.671 166.163C173.298 167.295 174.061 168.251 174.421 169.62C174.692 170.657 174.526 171.765 174.002 172.709C173.477 173.657 172.759 174.889 172.081 175.851C170.798 177.675 168.967 177.689 168.967 177.689V177.688Z" fill="url(#paint9_linear_5740_3889)"/>
<path d="M171.362 168.186L168.632 170.5L167.774 172.804L170.208 175.504C170.208 175.504 171.026 170.932 171.635 169.943C172.244 168.953 171.928 168.476 171.362 168.186Z" fill="url(#paint10_linear_5740_3889)"/>
<path d="M96.3189 219.461L90.3257 204.332C90.3257 204.332 75.7325 214.247 73.3315 226.82C76.0892 227.023 81.107 227.74 86.0176 230.221C87.0965 224.284 96.3177 219.462 96.3177 219.462L96.3189 219.461Z" fill="#EEF0F2"/>
<path d="M109.072 233.696C109.072 233.696 92.6864 242.956 87.1582 235.048C86.01 233.406 85.7365 231.775 86.0188 230.22C81.107 227.739 76.0893 227.022 73.3327 226.819C72.6092 230.609 72.9912 234.64 75.2183 238.714C84.9021 256.429 111.241 237.734 111.241 237.734L109.073 233.695L109.072 233.696Z" fill="url(#paint11_linear_5740_3889)"/>
<path d="M107.103 245.411L116.046 214.183C116.148 213.829 116.449 213.571 116.816 213.528C118.435 213.339 123.131 212.808 128.552 212.349C135.081 211.797 142.663 211.35 147.194 211.731C147.838 211.785 148.228 212.465 147.942 213.045C145.366 218.258 134.767 239.462 129.459 246.408C129.284 246.639 129.012 246.773 128.722 246.77L107.974 246.577C107.37 246.572 106.938 245.992 107.104 245.413L107.103 245.411Z" fill="url(#paint12_linear_5740_3889)"/>
<path d="M129.478 209.641L135.962 208.56C136.307 208.502 136.589 208.833 136.48 209.165L135.838 211.11C135.783 211.279 135.634 211.403 135.457 211.425L129.218 212.258C128.896 212.301 128.63 212.009 128.704 211.691L129.101 209.993C129.144 209.811 129.293 209.671 129.478 209.641Z" fill="url(#paint13_linear_5740_3889)"/>
<path d="M124.624 215.13L125.159 212.348C125.213 212.069 125.442 211.858 125.726 211.83L138.82 210.501C139.261 210.456 139.614 210.861 139.511 211.292L138.678 214.758C138.611 215.035 138.37 215.235 138.085 215.249L125.29 215.893C124.874 215.915 124.547 215.539 124.625 215.13H124.624Z" fill="url(#paint14_linear_5740_3889)"/>
<path d="M109.263 237.866C109.263 237.866 108.018 232.744 108.52 230.927C109.023 229.109 109.996 226.772 113.241 227.291C116.487 227.811 120.315 229.178 120.315 229.178C120.315 229.178 120.122 231.545 117.655 230.782L119.184 231.965C119.184 231.965 118.966 233.861 116.883 232.847L118.306 234.417C118.306 234.417 117.411 235.973 115.878 234.975C114.345 233.977 113.611 238.483 109.265 237.865L109.263 237.866Z" fill="url(#paint15_linear_5740_3889)"/>
<path d="M107.363 187.546L102.392 201.922C102.31 202.16 102.407 202.424 102.627 202.546C103.982 203.295 108.865 205.461 114.749 201.73C115.361 201.342 115.778 200.708 115.872 199.988L117.481 187.546H107.363Z" fill="url(#paint16_linear_5740_3889)"/>
<path d="M118.492 172.695C118.642 172.903 123.313 189.187 123.313 189.187L113.958 191.657L107.238 176.881C107.238 176.881 115.985 169.214 118.492 172.695Z" fill="url(#paint17_linear_5740_3889)"/>
<path d="M110.954 177.974C110.724 178.34 110.676 178.787 110.824 179.193L113.71 187.132C113.754 187.253 113.812 187.365 113.888 187.469C114.304 188.04 115.775 189.751 117.481 188.141C118.936 186.767 120.291 185.525 121.559 185.151C122.299 184.932 123.071 185.371 123.282 186.114C123.714 187.643 124.525 190.747 124.857 193.606C124.94 194.323 124.451 194.98 123.744 195.118C121.876 195.484 118.207 196.089 115.088 195.919C114.575 195.891 114.122 195.585 113.904 195.119C112.945 193.075 110.231 187.358 109.218 185.862C108.275 184.471 106.035 184.492 105.009 184.582C104.62 184.616 104.238 184.489 103.947 184.228C103.076 183.443 101.644 181.632 103.702 179.435C104.214 178.889 104.175 178.021 103.639 177.498C102.679 176.56 101.749 174.97 103.313 172.99C104.896 170.986 106.992 171.185 108.358 171.628C108.963 171.823 109.655 171.62 110.006 171.09C110.161 170.854 110.413 170.675 110.817 170.671C111.58 170.665 112.193 170.086 112.191 169.324C112.189 168.015 112.692 166.415 114.919 165.699C119.003 164.385 121.594 168.319 121.875 171.27C122.156 174.221 117.646 175.393 114.987 175.218C113.033 175.089 111.584 176.967 110.952 177.974H110.954Z" fill="#2E3092"/>
<path d="M110.313 188.783C110.313 188.783 109.604 183.663 107.469 183.431C105.333 183.201 103.274 184.972 105.422 187.83C108.092 191.385 110.313 188.783 110.313 188.783Z" fill="url(#paint18_linear_5740_3889)"/>
<defs>
<linearGradient id="paint0_linear_5740_3889" x1="239.06" y1="-88.1269" x2="224.543" y2="258.057" gradientUnits="userSpaceOnUse">
<stop stop-color="#09005D"/>
<stop offset="1" stop-color="#1A0F91"/>
</linearGradient>
<linearGradient id="paint1_linear_5740_3889" x1="237.782" y1="194.913" x2="240.016" y2="331.154" gradientUnits="userSpaceOnUse">
<stop stop-color="#09005D"/>
<stop offset="1" stop-color="#1A0F91"/>
</linearGradient>
<linearGradient id="paint2_linear_5740_3889" x1="374.241" y1="119.815" x2="415.46" y2="119.815" gradientUnits="userSpaceOnUse">
<stop stop-color="#DAE3FE"/>
<stop offset="1" stop-color="#E9EFFD"/>
</linearGradient>
<linearGradient id="paint3_linear_5740_3889" x1="374.153" y1="53.5725" x2="415.374" y2="53.5725" gradientUnits="userSpaceOnUse">
<stop stop-color="#DAE3FE"/>
<stop offset="1" stop-color="#E9EFFD"/>
</linearGradient>
<linearGradient id="paint4_linear_5740_3889" x1="114.783" y1="348.088" x2="120.698" y2="348.088" gradientUnits="userSpaceOnUse">
<stop stop-color="#FEBBBA"/>
<stop offset="1" stop-color="#FF928E"/>
</linearGradient>
<linearGradient id="paint5_linear_5740_3889" x1="121.458" y1="328.976" x2="54.8689" y2="401.407" gradientUnits="userSpaceOnUse">
<stop stop-color="#09005D"/>
<stop offset="1" stop-color="#1A0F91"/>
</linearGradient>
<linearGradient id="paint6_linear_5740_3889" x1="93.4653" y1="347.785" x2="98.5725" y2="347.785" gradientUnits="userSpaceOnUse">
<stop stop-color="#FEBBBA"/>
<stop offset="1" stop-color="#FF928E"/>
</linearGradient>
<linearGradient id="paint7_linear_5740_3889" x1="87.9611" y1="302.222" x2="115.727" y2="302.222" gradientUnits="userSpaceOnUse">
<stop stop-color="#4F52FF"/>
<stop offset="1" stop-color="#4042E2"/>
</linearGradient>
<linearGradient id="paint8_linear_5740_3889" x1="139.121" y1="193.779" x2="169.34" y2="193.779" gradientUnits="userSpaceOnUse">
<stop stop-color="#FEBBBA"/>
<stop offset="1" stop-color="#FF928E"/>
</linearGradient>
<linearGradient id="paint9_linear_5740_3889" x1="162.608" y1="188.713" x2="142.332" y2="234.848" gradientUnits="userSpaceOnUse">
<stop stop-color="#FEBBBA"/>
<stop offset="1" stop-color="#FF928E"/>
</linearGradient>
<linearGradient id="paint10_linear_5740_3889" x1="169.195" y1="173.348" x2="177.655" y2="160.341" gradientUnits="userSpaceOnUse">
<stop stop-color="#FEBBBA"/>
<stop offset="1" stop-color="#FF928E"/>
</linearGradient>
<linearGradient id="paint11_linear_5740_3889" x1="73" y1="236.581" x2="111.24" y2="236.581" gradientUnits="userSpaceOnUse">
<stop stop-color="#FEBBBA"/>
<stop offset="1" stop-color="#FF928E"/>
</linearGradient>
<linearGradient id="paint12_linear_5740_3889" x1="122.809" y1="209.392" x2="143.837" y2="297.007" gradientUnits="userSpaceOnUse">
<stop stop-color="#09005D"/>
<stop offset="1" stop-color="#1A0F91"/>
</linearGradient>
<linearGradient id="paint13_linear_5740_3889" x1="135.974" y1="195.582" x2="131.496" y2="215.248" gradientUnits="userSpaceOnUse">
<stop stop-color="#4F52FF"/>
<stop offset="1" stop-color="#4042E2"/>
</linearGradient>
<linearGradient id="paint14_linear_5740_3889" x1="133.631" y1="203.831" x2="131.488" y2="216.682" gradientUnits="userSpaceOnUse">
<stop stop-color="#4F52FF"/>
<stop offset="1" stop-color="#4042E2"/>
</linearGradient>
<linearGradient id="paint15_linear_5740_3889" x1="108.401" y1="232.571" x2="120.315" y2="232.571" gradientUnits="userSpaceOnUse">
<stop stop-color="#FEBBBA"/>
<stop offset="1" stop-color="#FF928E"/>
</linearGradient>
<linearGradient id="paint16_linear_5740_3889" x1="102.363" y1="195.699" x2="117.483" y2="195.699" gradientUnits="userSpaceOnUse">
<stop stop-color="#FEBBBA"/>
<stop offset="1" stop-color="#FF928E"/>
</linearGradient>
<linearGradient id="paint17_linear_5740_3889" x1="115.474" y1="175.012" x2="114.722" y2="207.231" gradientUnits="userSpaceOnUse">
<stop stop-color="#FEBBBA"/>
<stop offset="1" stop-color="#FF928E"/>
</linearGradient>
<linearGradient id="paint18_linear_5740_3889" x1="104.269" y1="208.165" x2="107.576" y2="186.079" gradientUnits="userSpaceOnUse">
<stop stop-color="#FEBBBA"/>
<stop offset="1" stop-color="#FF928E"/>
</linearGradient>
</defs>
</svg>
