<svg width="551" height="461" viewBox="0 0 551 461" fill="none" xmlns="http://www.w3.org/2000/svg">
<g clip-path="url(#clip0_5424_3993)">
<path d="M55.3834 247.891C55.1212 247.444 54.5659 246.92 54.6431 246.519C55.7998 240.772 52.2833 237.382 48.4739 233.992C39.6559 226.29 32.6378 216.748 27.9151 206.039C19.5096 186.238 19.7409 166.73 31.8017 148.393C39.035 137.422 49.9545 131.258 62.3699 127.375C78.1939 122.428 94.7581 120.487 110.613 115.864C127.27 111.025 143.094 104.507 155.771 92.334C164.516 83.9359 167.878 73.8428 165.025 61.3151C162.172 48.587 161.663 35.5969 170.207 24.2403C177.394 14.7019 187.28 9.01589 198.431 5.31766C214.24 0.0939106 230.588 -0.645736 246.89 0.417506C263.535 1.53875 280.049 4.11685 296.243 8.12216C315.802 12.9866 334.917 19.4866 353.385 27.5533C371.216 35.3924 388.535 44.3476 405.237 54.3655C427.199 67.338 448.371 81.6012 468.641 97.08C481.57 106.621 493.068 117.959 502.787 130.749C513.219 144.947 519.681 161.663 521.511 179.181C523.684 198.182 520.444 217.411 512.165 234.654C502.587 255.195 487.38 270.912 468.101 282.901C463.767 285.582 458.431 287.015 455.377 291.622C453.693 285.41 454.467 278.789 457.536 273.131C461.192 271.405 465.078 272.561 468.841 272.16C470.6 271.976 472.959 272.654 473.083 269.664C473.761 262.561 471.756 255.518 472.666 248.415C479.082 241.172 476.044 232.79 475.35 224.761C474.116 210.523 470.091 196.686 468.826 182.432C468.766 180.842 468.292 179.295 467.451 177.944C466.609 176.593 465.43 175.484 464.03 174.727C460.39 172.515 456.989 169.933 453.881 167.023C451.676 164.203 450.704 160.613 448.19 157.978C447.501 156.971 447.11 155.791 447.064 154.572C447.234 151.968 449.301 150.304 450.241 148.085C451.676 143.231 453.326 138.469 454.961 133.693C457.243 126.928 456.256 123.337 450.55 118.761C448.757 117.294 447.233 115.526 446.046 113.537C442.962 108.683 441.759 108.206 436.392 109.731C435.851 109.831 435.297 109.831 434.757 109.731C433.395 109.401 431.993 109.261 430.593 109.315C429.031 109.228 427.466 109.411 425.966 109.854C424.451 110.125 422.991 110.646 421.647 111.395C420.963 111.852 420.17 112.118 419.349 112.166C415.817 111.858 414.722 113.707 415.031 116.789C411.437 122.274 412.856 128.299 413.026 134.232C413.134 137.73 416.203 139.517 417.221 142.43C418.239 145.342 419.719 147.992 420.305 150.997C420.259 151.405 420.105 151.793 419.858 152.122C419.257 152.277 418.626 152.265 418.031 152.089C417.436 151.912 416.9 151.578 416.481 151.12C406.678 143.178 395.973 136.418 384.586 130.98C383.976 130.663 383.424 130.247 382.951 129.748C379.311 125.772 374.268 124.955 369.379 123.754C369.019 123.678 368.678 123.531 368.376 123.322C367.882 122.811 367.267 122.431 366.588 122.219C365.909 122.006 365.188 121.967 364.49 122.105C364.144 122.059 363.812 121.938 363.518 121.75C362.871 121.057 361.976 121.226 361.236 121.257C360.906 121.223 360.586 121.124 360.295 120.964C359.647 119.716 358.105 120.41 357.21 119.578C346.423 116.403 335.263 114.662 324.02 114.4C317.681 114.169 317.635 114.138 317.62 120.564C317.62 141.274 317.62 161.984 317.62 182.694C317.62 188.658 317.62 188.534 311.728 189.582C307.98 190.245 310.679 192.248 311.127 193.743C313.116 197.364 317.589 198.843 319.116 202.896C319.856 216.872 319.332 230.879 319.409 244.855C319.409 248.785 320.18 252.822 318.576 256.659C318.325 256.976 317.999 257.225 317.627 257.384C317.256 257.543 316.85 257.606 316.447 257.568C315.368 257.373 314.274 257.27 313.178 257.26C284.321 257.26 255.465 257.167 226.64 257.26C226.263 257.341 225.903 257.487 225.575 257.691C224.881 258.508 225.174 259.232 225.73 260.033C246.011 280.589 266.585 300.853 286.913 321.347C288.239 322.672 290.537 323.612 289.889 326.216C287.915 327.896 285.262 324.675 283.381 327.156C281.083 327.295 280.065 325.384 278.754 324.074C260.514 306.046 242.335 287.94 224.218 269.757C220.702 266.243 220.81 266.397 217.185 269.603C205.017 280.389 194.144 292.378 182.006 303.118C181.019 303.996 180.201 305.29 178.551 304.936C177.471 303.472 175.081 303.996 174.294 302.116C174.294 300.036 175.975 299.034 177.194 297.832C188.422 286.532 199.67 275.273 210.939 264.055C212.346 262.959 213.499 261.571 214.317 259.987C214.317 259.016 213.499 258.616 212.96 258.015C212.519 257.468 212.179 256.847 211.957 256.181C211.494 254.995 210.307 254.748 209.335 254.224C206.172 254.008 202.998 254.008 199.835 254.224C155.221 254.224 110.608 254.224 65.9943 254.224C64.6063 254.224 63.2336 254.301 61.861 254.224C58.653 254.055 57.4192 255.565 57.4963 258.677C57.4963 260.681 57.8819 262.869 56.0928 264.471C54.6276 261.066 55.5993 257.491 55.4296 254.008C55.3371 252.005 56.9719 252.082 58.3446 252.067H69.4182C70.4524 251.684 71.5675 251.572 72.6571 251.743H211.464C195.948 251.743 179.862 251.743 163.776 251.743C133.794 251.743 103.811 251.743 73.8292 251.743C72.3292 251.922 70.8083 251.726 69.4028 251.173L66.9351 250.341C67.5521 248.03 69.4337 249.185 70.6521 249.17C91.2725 249.093 111.908 249.17 132.529 249.17C158.121 249.17 183.702 249.17 209.273 249.17C210.476 249.17 211.942 249.894 212.79 248.785C212.559 249.648 211.556 249.154 210.847 249.154C163.118 249.154 115.394 249.154 67.6754 249.154C67.1429 249.17 66.6143 249.059 66.1331 248.831C62.5859 248.214 58.8689 249.802 55.4296 247.937C55.832 247.589 56.2843 247.303 56.7714 247.09C57.2735 246.94 57.7909 246.847 58.3137 246.812C108.778 246.709 159.247 246.709 209.721 246.812C210.606 246.83 211.492 246.794 212.373 246.704C212.744 246.612 213.129 246.535 213.499 246.427C213.773 246.301 214.008 246.105 214.181 245.858C214.355 245.612 214.46 245.325 214.486 245.025C214.486 194.59 214.61 144.171 214.486 93.7824C214.388 93.3769 214.192 93.0014 213.916 92.6884C213.567 92.4865 213.186 92.3458 212.79 92.2723H211.556C172.814 92.4881 138.796 105.247 109.502 130.549C82.1422 154.341 65.4391 184.327 58.761 219.923C57.2301 227.465 56.45 235.141 56.4321 242.837C56.4784 244.547 56.7714 246.412 55.3834 247.891Z" fill="#EEF0F2"/>
<path d="M329.681 377.53C318.977 389.117 306.238 398.024 292.496 405.559C289.257 407.331 285.941 408.949 282.656 410.644C281.416 412.144 279.74 413.221 277.86 413.726C254.148 423.283 228.466 426.933 203.028 424.359C187.105 422.923 171.513 418.965 156.836 412.632C155.294 412 153.751 411.538 152.857 409.889C138.565 403.074 125.321 394.253 113.528 383.693C111.255 381.909 109.222 379.837 107.482 377.53C107.899 372.83 112.109 370.811 114.855 368.084C128.458 354.863 142.097 341.693 155.772 328.574C165.982 318.789 176.222 309.035 186.324 299.143C194.93 290.698 203.907 282.639 212.25 273.918C213.793 272.377 215.628 271.113 217.247 269.634C220.548 266.675 221.35 266.814 224.373 269.819C236.619 282.023 248.88 294.181 261.033 306.462C273.186 318.743 285.71 331.117 297.925 343.444C307.086 352.69 316.432 361.797 325.563 371.073C327.321 372.907 329.388 374.633 329.681 377.53Z" fill="#2E3092"/>
<path d="M289.951 326.339C289.519 324.798 288.131 323.981 287.083 322.949C267.321 303.163 247.554 283.393 227.781 263.638C226.717 262.591 225.792 261.404 224.805 260.279C226.239 258.815 228.121 259.139 229.863 259.124C258.165 259.124 286.466 259.201 314.767 259.016C318.052 259.016 319.193 260.48 319.394 263.361C319.594 265.688 319.394 267.984 319.548 270.341C320.828 273.023 323.342 272.129 325.347 272.129C341.248 272.221 357.149 272.129 373.065 272.129C375.253 271.928 377.46 272.131 379.574 272.73C381.579 274.009 381.27 276.027 381.116 277.892C379.696 291.982 376.327 305.807 371.107 318.973C370.727 320.582 369.814 322.016 368.516 323.041C362.47 335.569 355.853 347.696 347.016 358.575C344.147 362.088 340.986 365.371 338.148 368.899C336.313 371.195 335.063 371.072 333.012 368.992C320.057 355.878 306.963 342.873 293.899 329.868C292.65 328.558 291.231 327.495 289.951 326.339Z" fill="#EB225A"/>
<path d="M457.831 273.732C455.857 279.557 455.81 285.628 455.394 291.653C453.96 304.366 450.058 316.616 449.225 329.529C448.549 337.627 447.38 345.675 445.724 353.63C445.379 354.881 445.285 356.188 445.447 357.475C445.608 358.763 446.022 360.006 446.664 361.134C450.659 367.637 453.882 374.602 458.494 380.735C461.363 387.915 455.579 394.603 446.464 394.526C445.743 393.976 445.173 393.252 444.809 392.422C444.445 391.591 444.298 390.682 444.382 389.78C447.467 388.948 450.798 388.67 453.142 385.604C449.256 385.604 446.711 388.932 443.086 388.686C442.421 388.24 441.64 387.995 440.838 387.981C440.037 387.968 439.248 388.186 438.567 388.609C436.532 388.285 435.791 386.59 434.835 385.111C430.184 377.873 426.006 370.343 422.327 362.567C421.186 357.836 418.086 354.092 415.711 350.008C413.12 345.54 409.619 341.225 408.076 336.602C406.025 330.439 401.09 325.015 402.339 317.803C402.273 316.737 402.012 315.692 401.568 314.721C399.655 313.18 399.393 310.961 399.085 308.819C397.82 299.882 395.908 291.006 396.247 281.915C396.355 279.033 394.843 276.29 395.615 273.378C399.27 271.39 402.987 272.284 406.688 273.239C409.094 274.21 411.624 274.873 414.014 275.843C417.531 277.277 420.569 277.138 423.083 274.01C423.284 273.989 423.487 274.011 423.678 274.075C423.87 274.139 424.045 274.243 424.193 274.38C425.982 280.405 425.982 280.405 432.599 279.68C433.971 279.542 435.282 279.11 436.67 279.064C441.621 280.513 445.354 277.878 449.132 275.366C450.258 274.811 451.23 274.025 452.309 273.409C454.222 272.746 456.103 271.714 457.831 273.732Z" fill="#B4D6F3"/>
<path d="M90.9035 284.165C96.2861 282.177 101.993 281.653 107.499 280.235C111.462 280.913 114.886 278.694 118.572 278.001C123.708 276.969 129.06 276.66 133.995 274.395C138.715 273.116 143.542 272.361 148.308 271.313C152.41 270.82 156.382 269.555 160.014 267.584C161.623 266.57 163.513 266.09 165.412 266.213C169.561 267.184 173.247 265.196 177.102 264.395C185.269 262.927 193.356 261.045 201.332 258.755C203.877 257.815 206.637 258.061 209.197 257.121C209.447 257.008 209.717 256.948 209.992 256.945C210.266 256.943 210.537 256.998 210.789 257.107C211.04 257.216 211.266 257.376 211.451 257.578C211.637 257.779 211.778 258.018 211.866 258.277C210.771 261.005 208.025 261.713 205.851 262.9C188.454 272.608 171.103 282.367 153.798 292.178C152.204 292.918 150.547 293.517 148.848 293.965C135.481 301.372 122.161 308.784 108.887 316.201C98.9235 321.763 88.9602 327.311 79.0895 333.028C76.8378 334.322 76.005 333.952 74.7711 331.702C68.7507 320.125 64.0284 307.919 60.69 295.306C59.7029 291.623 60.3815 289.943 64.2835 289.805C65.5048 289.678 66.7158 289.467 67.9079 289.173C75.7185 288.258 83.4206 286.581 90.9035 284.165Z" fill="#EB225A"/>
<path d="M215.689 259.431C215.581 261.326 213.947 262.143 212.821 263.268C199.999 276.242 187.147 289.191 174.263 302.114C160.413 315.849 146.564 329.579 132.714 343.303C124.046 351.933 115.348 360.531 106.819 369.268C104.937 371.21 103.904 371.333 102.022 369.268C93.3973 360.018 85.8533 349.819 79.5356 338.866C78.6102 337.248 77.6694 335.922 80.1217 334.566C101.374 322.783 122.596 310.97 143.788 299.125C148.41 297.763 152.601 295.231 155.956 291.775C160.086 288.324 164.782 285.613 169.837 283.762C174.51 282.708 178.789 280.352 182.175 276.966C183.885 274.88 186.298 273.489 188.961 273.052C193.681 272.529 197.197 269.4 201.084 267.212C203.752 265.671 207.022 264.855 208.795 261.927C210.739 259.924 212.62 258.044 215.689 259.431Z" fill="#2E3092"/>
<path d="M56.0934 264.408L56.186 263.175C56.3865 259.816 54.5357 255.363 56.8492 253.375C58.7925 251.726 63.1263 252.758 66.396 252.758C113.693 252.758 160.959 252.758 208.194 252.758C208.889 252.758 212.143 250.617 210.77 254.438C209.444 255.856 207.578 255.979 205.881 256.38C176.315 263.298 146.672 269.894 117.091 276.751C114.654 277.321 112.14 276.627 109.765 277.475C95.5453 280.557 81.3254 283.731 67.1209 286.905C59.2243 288.678 59.1626 288.755 58.0059 280.742C57.2193 275.348 56.7104 269.863 56.0934 264.408Z" fill="#807476"/>
<path d="M152.856 409.797C166.454 415.786 180.782 419.961 195.47 422.217C223.945 426.46 253.039 422.798 279.571 411.631C280.574 411.215 281.622 410.906 282.656 410.552C286.635 411.893 290.645 413.187 294.578 414.635C295.719 414.922 296.751 415.538 297.543 416.406C298.336 417.275 298.855 418.358 299.035 419.52C299.251 422.078 296.829 422.694 295.056 423.681C286.373 428.581 276.548 429.629 267.032 431.015C243.343 434.436 219.406 434.267 195.593 433.373C177.918 432.71 160.12 431.632 143.155 425.484C139.978 424.312 136.014 423.496 135.737 419.397C135.413 414.774 140.071 414.697 142.878 413.233C145.947 411.554 149.741 411.6 152.856 409.797Z" fill="#EEF0F2"/>
<path d="M395.876 273.702C397.035 276.471 397.592 279.454 397.511 282.454C397.511 293.395 399.439 304.027 401.613 314.814C392.298 317.413 382.977 320.007 373.651 322.596C371.986 323.058 370.305 323.859 368.516 323.042C372.942 310.946 377.091 298.773 378.849 285.937C379.42 281.869 379.851 277.785 380.391 273.702C382.807 272.543 385.453 271.941 388.134 271.941C390.814 271.941 393.46 272.543 395.876 273.702Z" fill="#EEF0F2"/>
<path d="M462.687 408.873C467.078 409.894 471.379 411.264 475.55 412.972C476.265 413.197 476.906 413.611 477.406 414.169C477.905 414.728 478.245 415.411 478.388 416.146C478.712 418.026 477.493 418.92 476.182 419.69C470.738 422.896 464.553 423.589 458.508 424.498C447.187 426.193 435.774 425.484 424.408 425.253C416.901 425.033 409.449 423.905 402.214 421.894C401.82 421.775 401.443 421.609 401.088 421.401C398.898 420.137 395.505 419.536 395.551 416.578C395.551 413.373 398.913 412.726 401.504 411.739C405.452 410.195 409.613 409.265 413.843 408.981C416.619 408.812 417.344 407.856 417.282 405.283C417.282 403.48 416.48 401.43 418.1 399.812C419.919 402.093 419.025 404.805 419.272 407.332C419.272 407.594 419.179 408.01 419.272 408.118C423.744 411.292 426.351 417.364 433.152 416.855C436.237 416.624 439.322 415.884 442.499 415.9C444.149 415.9 445.784 415.73 446.987 417.179C447.619 417.379 446.077 418.412 447.218 418.15C448.648 417.733 450.168 417.733 451.598 418.15C451.96 418.298 452.348 418.377 452.739 418.381C452.462 418.026 451.799 418.381 451.66 417.718C451.714 417.305 451.912 416.924 452.22 416.642C452.527 416.36 452.924 416.195 453.341 416.177C455.433 415.973 457.422 415.177 459.078 413.884C460.733 412.59 461.985 410.852 462.687 408.873Z" fill="#EEF0F2"/>
<path d="M418.178 408.025V399.812H418.27C421.078 397.039 424.594 395.088 428.434 394.172C432.351 393.263 434.85 394.958 436.886 399.426C437.441 403.186 440.155 405.267 443.271 407.439C445.199 403.679 444.196 399.904 443.903 396.191C443.953 395.604 444.216 395.055 444.643 394.65C444.88 394.468 445.151 394.339 445.441 394.27C445.731 394.201 446.032 394.194 446.325 394.249C449.779 393.201 453.496 393.016 456.118 389.78C458.354 387.007 459.897 384.372 458.54 380.781C461.086 383.26 463.295 386.063 465.11 389.118C463.938 392.6 463.413 396.252 461.593 399.596C460.406 401.738 460.853 404.435 461.501 406.838C461.759 407.486 461.877 408.182 461.845 408.878C461.813 409.575 461.632 410.257 461.315 410.878C460.999 411.499 460.553 412.046 460.008 412.481C459.462 412.917 458.83 413.231 458.154 413.403C452.895 415.021 447.62 417.425 441.852 415.052C439.909 414.25 437.78 415.052 435.76 415.375C431.256 416.099 427.077 416.269 423.992 411.862C422.666 409.889 419.936 409.597 418.178 408.025Z" fill="#2E3092"/>
<path d="M329.681 377.53C324.021 370.534 317.343 364.493 311.174 358.099C306.038 352.875 300.902 347.605 295.751 342.443C289.751 336.526 283.952 330.377 277.675 324.722C272.848 320.377 268.56 315.399 263.933 310.854C257.764 304.69 251.718 298.434 245.426 292.363C240.213 287.401 235.339 282.085 230.296 276.953C227.72 274.334 225.16 271.683 222.476 269.172C221.644 268.386 220.641 267.738 219.299 269.033C211.588 276.506 203.753 283.826 196.026 291.284C185.616 301.315 175.282 311.439 164.887 321.517C155.988 330.162 147.105 338.837 138.128 347.405C130.617 354.585 122.813 361.473 115.503 368.839C112.773 371.597 109.565 374.032 107.637 377.545C105.632 374.956 107.791 373.585 109.303 372.121C124.962 357.02 140.622 341.939 156.281 326.879C163.792 319.622 171.226 312.287 178.706 304.998C191.816 292.486 204.925 280.05 217.973 267.415C220.209 265.242 221.258 265.273 223.417 267.415C242.377 286.522 261.399 305.568 280.482 324.553C281.438 325.508 282.487 326.386 283.567 327.295L328.031 371.982C329.357 373.492 331.486 374.849 329.681 377.53Z" fill="#5257A3"/>
<path d="M8.20447 427.949C7.41844 426.828 6.92054 425.532 6.75472 424.173C5.87561 421.215 7.03233 419.72 10.1015 419.751C14.1085 419.704 18.0469 418.706 21.5916 416.838C23.8391 415.818 26.2242 415.133 28.6707 414.804C32.8349 414.126 36.6752 414.065 38.8344 419.027C40.2225 422.247 42.6747 425.005 44.4792 428.072C45.3275 429.613 46.33 431.246 44.9419 433.034C34.1459 435.16 23.5194 433.311 12.9702 431.123C10.9652 430.722 9.73134 429.073 8.20447 427.949Z" fill="#A8A8A8"/>
<path d="M516.313 453.619C515.51 452.715 514.976 451.604 514.771 450.413C513.383 445.791 513.506 445.698 518.318 445.082C520.924 444.743 523.793 444.974 525.906 442.832C526.659 441.92 527.668 441.254 528.803 440.919C529.938 440.584 531.147 440.596 532.276 440.952C537.365 439.411 541.36 439.966 543.997 445.575C545.771 449.319 549.226 452.247 549.503 456.762C549.183 457.052 548.787 457.244 548.362 457.317C545.164 457.858 541.916 458.055 538.676 457.902C537.128 457.957 535.578 457.859 534.049 457.61C529.777 456.777 525.382 456.824 521.171 455.714C519.259 455.514 518.025 454.019 516.313 453.619Z" fill="#A8A8A8"/>
<path d="M436.146 399.843C434.357 395.019 431.288 393.679 426.522 395.744C423.715 396.961 421.417 399.242 418.271 399.781C417.33 393.047 418.826 386.421 419.335 379.749C419.736 374.556 420.075 369.193 422.25 364.262C423.299 363.831 423.792 364.555 424.178 365.279C428.46 374.301 433.572 382.905 439.447 390.982C439.553 394.254 438.368 397.437 436.146 399.843Z" fill="#B5D6F2"/>
<path d="M84.2554 435.963C84.26 435.685 84.3068 435.41 84.3942 435.146C85.3504 433.297 86.4917 430.986 88.836 431.741C91.1803 432.496 89.638 434.93 89.2061 436.656C91.9822 437.411 94.0798 432.403 96.2544 435.978C98.0743 438.968 94.7121 440.462 92.8305 442.743C96.5166 443.328 99.9251 443.806 103.318 444.422C104.506 444.638 106.171 444.869 106.248 446.256C106.326 447.643 104.552 447.89 103.457 448.105C92.2202 450.278 80.6707 450.278 69.4339 448.105C68.3389 447.905 66.5652 447.782 66.6578 446.256C66.7503 444.731 68.4314 444.638 69.6036 444.438C73.521 443.775 77.4538 443.251 81.5255 442.65C79.9832 439.861 74.2459 439.23 76.8986 434.73C78.1016 432.696 80.924 432.696 82.7902 435.023C83.1141 435.562 82.9753 436.872 84.2554 435.963Z" fill="#585EA7"/>
<path d="M532.199 440.955L525.829 442.835C522.544 438.628 519.444 434.498 513.568 433.219C509.882 432.418 511.948 429.351 512.75 427.133C513.12 426.193 512.966 424.991 514.154 424.482L517.994 419.859C517.716 428.966 525.243 433.219 528.096 440.246C530.98 433.343 538.553 429.136 538.152 420.537C540.203 421.015 540.542 423.157 541.977 424.066C542.535 424.354 542.996 424.8 543.304 425.348C543.611 425.896 543.75 426.522 543.704 427.148C545.323 432.094 545.246 431.94 540.234 433.851C536.778 435.16 533.92 437.686 532.199 440.955Z" fill="#595EA7"/>
<path d="M109.766 277.537C124.309 274.147 138.838 270.726 153.397 267.367C171.689 263.134 189.996 258.928 208.318 254.747C209.129 254.61 209.948 254.527 210.77 254.5C211.773 254.577 213.331 254.099 212.39 256.118C208.611 258.676 203.846 257.921 199.851 259.77C191.708 262.004 183.302 263.191 175.174 265.518C171.843 265.61 168.851 267.844 165.381 267.059L160.291 268.307C155.572 270.449 150.405 270.911 145.47 272.221C140.638 273.007 135.87 274.145 131.204 275.626C125.821 276.705 120.485 278.03 115.087 279.032C114.755 279.094 114.413 279.072 114.092 278.966C113.771 278.861 113.482 278.677 113.251 278.431C112.341 277.182 110.938 277.814 109.766 277.537Z" fill="#F1F2F9"/>
<path d="M418.178 408.024C419.344 407.836 420.54 407.995 421.616 408.483C422.691 408.971 423.599 409.766 424.224 410.767C426.599 414.696 430.054 414.881 433.863 414.604C437.352 414.157 440.888 414.24 444.351 414.85C449.651 415.75 455.093 414.526 459.496 411.445C461.039 410.304 461.239 408.363 460.684 406.205C459.034 399.749 462.504 394.494 465.11 389.07C466.761 392.352 465.11 395.373 463.568 397.838C461.301 401.583 461.594 405.096 462.751 408.871C462.843 413.494 460.052 415.574 456.072 416.684L451.831 417.855C451.155 418.249 450.386 418.456 449.603 418.456C448.82 418.456 448.051 418.249 447.374 417.855C444.397 415.96 441.205 417.239 438.197 417.393C435.745 417.516 433.324 417.947 430.871 418.055C428.419 418.163 426.245 417.531 425.319 415.328C424.913 414.252 424.208 413.314 423.288 412.624C422.367 411.933 421.269 411.519 420.122 411.429C418.132 410.982 417.808 409.734 418.178 408.024Z" fill="#4C4A70"/>
<path d="M42.1817 434.543C28.3011 438.103 14.513 439.598 0 435.237C3.1617 431.307 7.71147 433.172 10.7961 431.199C12.1224 430.259 13.4951 431.061 14.7443 431.307C22.5153 432.853 30.4179 433.643 38.3414 433.665C39.6524 433.649 41.1176 433.31 42.1817 434.543Z" fill="#EEF0F2"/>
<path d="M170.192 284.072L155.926 292.316C154.383 293.934 152.841 295.228 150.42 294.904C150.24 294.637 149.993 294.422 149.703 294.281C149.413 294.14 149.091 294.079 148.77 294.103L190.674 270.234L211.479 258.415C211.88 257.845 212.358 257.444 213.114 257.768C213.665 257.735 214.212 257.879 214.675 258.178C215.138 258.478 215.494 258.917 215.69 259.432C212.79 259.155 210.955 261.266 208.765 262.514C202.732 266.937 196.186 270.616 189.27 273.47L182.33 277.384C178.79 280.428 174.657 282.705 170.192 284.072Z" fill="#F2F0F7"/>
<path d="M66.102 248.801H212.959V249.54H209.011C163.225 249.54 117.424 249.54 71.608 249.54C70.0657 249.54 68.2766 248.909 66.9811 250.342C66.7087 250.188 66.483 249.964 66.3282 249.693C66.1734 249.421 66.0952 249.113 66.102 248.801Z" fill="#F8F7FC"/>
<path d="M69.4023 251.172H211.293V251.927H69.4023C69.4178 251.675 69.4178 251.423 69.4023 251.172Z" fill="#F6F5FB"/>
<path d="M548.747 456.796L549.426 456.719C551.986 457.52 550.968 458.398 549.426 459.138C547.406 460.078 545.169 459.877 543.01 460.201C534.918 461.48 526.659 461.234 518.657 459.477C517.439 459.199 515.48 459.615 515.264 457.843C515.048 456.071 517.331 456.395 518.118 455.332C518.137 455.232 518.179 455.139 518.242 455.059C518.304 454.979 518.384 454.915 518.475 454.871C518.567 454.828 518.667 454.806 518.768 454.809C518.87 454.811 518.969 454.837 519.058 454.885C521.449 455.477 523.868 455.945 526.307 456.287C527.686 456.747 529.149 456.905 530.595 456.749C531.451 456.715 532.309 456.767 533.155 456.903C534.441 457.145 535.748 457.264 537.057 457.258C540.942 457.943 544.929 457.785 548.747 456.796Z" fill="#EEECF6"/>
<path d="M42.182 434.544C31.6255 434.637 21.0937 433.51 10.7963 431.185C9.59051 430.435 8.68076 429.292 8.2207 427.949C19.9421 433.389 32.5273 432.387 44.9119 433.034C44.2103 433.845 43.2426 434.381 42.182 434.544Z" fill="#8D8D8E"/>
<path d="M113.251 278.462L131.249 275.072C131.647 274.823 132.107 274.691 132.576 274.691C133.045 274.691 133.505 274.823 133.902 275.072C129.121 278.154 123.43 277.969 118.14 279.048C114.716 279.741 111.277 282.13 107.498 280.173L113.251 278.462Z" fill="#EB225A"/>
<path d="M438.783 390.705C432.614 383.339 428.512 374.756 423.977 366.404C423.515 365.541 423.206 364.694 422.25 364.293C422.25 363.738 422.327 363.184 422.373 362.629C424.301 362.875 424.533 364.632 425.103 365.911C428.188 372.969 432.661 379.302 436.485 385.943C437.138 386.837 437.911 387.635 438.783 388.316C439.017 388.491 439.196 388.729 439.3 389.002C439.404 389.275 439.428 389.571 439.369 389.857C439.262 390.191 439.058 390.486 438.783 390.705Z" fill="#A5C6E3"/>
<path d="M90.9028 284.164C90.6714 284.626 90.5018 285.458 90.2088 285.505C83.0063 286.583 76.143 289.234 68.8634 289.896C68.5395 289.896 68.1848 289.527 67.8301 289.311C75.449 287.261 83.1296 285.474 90.9028 284.164Z" fill="#EB225A"/>
<path d="M514.155 424.483C513.908 425.485 514.155 426.733 512.751 427.134C511.44 425.67 512.242 424.406 513.353 423.435C513.723 423.112 513.985 424.021 514.155 424.483Z" fill="#E2C680"/>
<path d="M543.704 427.179C542.393 426.578 542.486 425.16 541.977 424.097C542.331 423.588 543.056 422.695 543.318 423.496C543.658 424.621 545.57 425.792 543.704 427.179Z" fill="#FFE176"/>
<path d="M518.72 455.177L518.104 455.331L516.314 453.621C517.965 452.357 518.998 455.085 520.587 454.299C520.587 455.932 519.615 455.455 518.72 455.177Z" fill="#8F8F90"/>
<path d="M84.2547 435.96C84.2547 436.545 84.2547 437.5 83.4219 437.285C82.2189 436.977 82.8204 435.836 82.7741 435.02L84.2547 435.96Z" fill="#666AAF"/>
<path d="M318.176 271.003C317.883 267.49 319.718 262.852 317.343 260.771C315.43 259.076 310.896 260.278 307.534 260.278H224.759C223.972 259.677 224.157 258.737 224.096 257.982C224.284 257.805 224.508 257.67 224.753 257.588C224.998 257.505 225.258 257.477 225.515 257.505C255.435 257.397 285.356 257.505 315.292 257.428C316.186 257.304 317.219 257.751 317.975 256.888C318.16 238.397 318.376 219.906 317.867 201.415C316.325 197.932 316.988 194.28 316.957 190.628C317.422 184.872 317.541 179.094 317.312 173.324C317.312 156.373 317.312 139.423 317.312 122.581C317.312 121.471 317.312 120.377 317.312 119.268C317.451 114.229 317.867 113.782 322.772 114.059C334.312 114.455 345.771 116.145 356.933 119.098C358.011 119.69 359.13 120.205 360.28 120.639C360.357 120.726 360.459 120.788 360.572 120.815C360.685 120.843 360.804 120.835 360.913 120.793C361.73 121.24 362.887 120.5 363.55 121.548C365.169 122.196 367.205 121.548 368.532 123.089C373.714 124.491 378.973 125.709 383.338 129.13C396.378 135.314 408.607 143.077 419.751 152.244C421.016 152.151 421.725 153.076 422.558 153.785C423.391 154.493 424.301 155.587 425.211 156.45C426.28 157.637 427.504 158.673 428.851 159.532C431.735 161.795 434.298 164.438 436.47 167.391C456.334 189.056 468.087 214.667 473.577 243.343C473.994 244.804 473.994 246.352 473.577 247.812C472.96 253.575 474.749 259.215 474.487 264.963C474.41 266.611 474.41 268.245 474.364 269.878C472.636 271.342 470.539 271.111 468.518 271.173C461.177 271.358 453.82 270.772 446.479 271.542C444.66 271.943 442.776 271.943 440.958 271.542C437.131 271.237 433.291 271.124 429.452 271.203C393.702 271.203 357.951 271.203 322.201 271.203C320.864 271.479 319.479 271.41 318.176 271.003Z" fill="#2E3092"/>
<path d="M56.2314 247.784L55.3986 247.908C53.9797 175.206 107.652 108.731 179.245 94.3693C190.127 91.9558 201.26 90.8642 212.404 91.118C213.777 92.5818 213.545 94.431 213.545 96.203C213.545 144.434 213.545 192.67 213.545 240.912C213.545 246.798 213.222 247.075 207.129 247.075C158.712 247.075 110.289 247.075 61.8608 247.075C59.9792 247.091 57.9896 246.644 56.2314 247.784Z" fill="#2E3092"/>
<path d="M473.592 248.091C471.572 239.477 469.86 230.801 467.053 222.357C460.489 202.262 449.775 183.767 435.605 168.07C437.734 165.974 440.495 166.329 443.116 166.098C443.634 166.153 444.131 166.333 444.564 166.623C444.997 166.913 445.352 167.304 445.6 167.762C445.821 168.621 446.252 169.412 446.855 170.063C447.458 170.714 448.214 171.204 449.054 171.491C452.139 171.136 451.306 167.269 453.681 166.329C458.709 168.64 462.333 172.97 467.161 175.574C469.212 176.699 469.829 179.473 469.968 181.738C470.801 195.606 475.104 208.982 476.214 222.819C476.615 227.75 477.417 232.635 477.756 237.566C478.111 241.788 477.432 245.625 473.592 248.091Z" fill="#2E3092"/>
<path d="M421.479 110.857C421.982 110.26 422.638 109.81 423.377 109.555C424.115 109.3 424.909 109.25 425.674 109.408C428.095 109.131 430.547 109.408 432.953 108.992C433.24 108.892 433.544 108.853 433.847 108.877C434.15 108.901 434.444 108.987 434.712 109.131C436.963 110.672 436.593 106.943 438.49 107.297C440.68 107.698 443.349 107.744 444.474 109.547C447.22 113.816 450.472 117.738 454.16 121.227C460.946 127.838 455.918 133.955 453.944 139.919C452.972 142.862 452.818 146.083 451.122 148.795C448.392 149.873 448.253 147.654 447.744 146.067C445.982 140.296 444.758 134.374 444.089 128.377C444.119 127.692 443.996 127.009 443.729 126.378C443.463 125.746 443.059 125.182 442.547 124.725C440.792 126.607 438.474 127.869 435.941 128.322C433.407 128.775 430.795 128.394 428.496 127.237C423.869 125.249 423.869 125.326 422.08 130.719C421.093 133.925 421.34 137.423 419.921 140.504C419.32 141.814 419.119 143.879 416.744 143.124C414.215 139.58 410.251 136.544 412.719 131.243C412.795 130.846 412.785 130.436 412.69 130.043C412.594 129.649 412.414 129.281 412.163 128.963C409.958 125.881 410.004 123.261 412.842 120.642C413.337 120.166 413.72 119.586 413.963 118.943C414.206 118.301 414.302 117.612 414.245 116.928C414.297 115.812 414.761 114.755 415.547 113.961C416.333 113.167 417.386 112.693 418.502 112.629C419.094 112.557 419.665 112.362 420.178 112.057C420.69 111.752 421.133 111.343 421.479 110.857Z" fill="#4D3F3E"/>
<path d="M444.612 127.361C446.37 133.371 446.617 139.688 448.761 145.683C449.255 147.039 448.761 148.857 451.059 148.764C450.565 151.045 447.974 152.185 447.789 154.62C447.496 154.897 447.172 155.175 446.833 155.437C444.143 157.266 441.075 158.464 437.857 158.941C434.639 159.419 431.354 159.164 428.248 158.195C427.063 157.971 425.956 157.439 425.04 156.654C424.278 156.125 423.584 155.504 422.974 154.805C421.778 153.745 420.739 152.521 419.889 151.168C418.301 148.687 417.201 145.926 416.65 143.032C417.663 142.368 418.482 141.448 419.024 140.366C419.566 139.283 419.811 138.076 419.735 136.868C419.933 134.418 420.522 132.015 421.478 129.749C421.743 129.118 422.134 128.547 422.626 128.071C423.118 127.594 423.701 127.221 424.34 126.975C424.98 126.729 425.662 126.615 426.347 126.639C427.032 126.662 427.705 126.824 428.326 127.114C432.305 128.547 436.284 128.963 440.124 126.359C441.651 125.373 443.471 125.204 444.612 127.361Z" fill="#C37872"/>
<path d="M56.2324 247.783C57.0036 245.148 59.209 246.242 60.7513 246.242C109.364 246.18 157.972 246.18 206.575 246.242C212.39 246.242 212.39 246.242 212.39 240.525C212.39 190.722 212.39 140.899 212.39 91.0547H213.192C214.58 92.5956 214.348 94.3677 214.364 96.1243C214.364 144.756 214.364 193.393 214.364 242.035C214.615 243.819 214.233 245.635 213.284 247.166C212.929 248.029 212.251 247.921 211.541 247.752C210.379 247.321 209.125 247.199 207.902 247.397H60.7205C59.4935 247.219 58.2417 247.33 57.0653 247.721L56.2324 247.783Z" fill="#4A4C9B"/>
<path d="M357.643 120.008C346.676 117.55 335.532 115.963 324.314 115.262C318.145 114.923 318.145 114.708 318.145 120.779C318.145 142.444 318.145 164.11 318.145 185.775C318.145 187.409 318.006 189.042 317.929 190.691C317.654 190.89 317.341 191.031 317.01 191.105C316.678 191.179 316.335 191.185 316.001 191.122C312.747 190.444 311.374 192.124 310.804 195.036C309.794 194.279 309.088 193.186 308.814 191.954C307.827 189.504 309.477 187.332 311.899 188.118C316.032 189.458 316.526 187.47 316.526 184.142C316.464 163.596 316.464 143.02 316.526 122.412C316.526 119.423 315.647 115.848 316.957 113.583C318.777 110.501 322.417 113.459 325.24 113.444C336.03 113.555 346.753 115.157 357.103 118.206C357.488 118.273 357.842 118.457 358.118 118.732C358.394 119.008 358.578 119.362 358.646 119.746C358.61 119.842 358.553 119.927 358.477 119.995C358.402 120.063 358.311 120.113 358.213 120.138C358.114 120.164 358.011 120.166 357.912 120.143C357.813 120.12 357.721 120.074 357.643 120.008Z" fill="#E4E4F1"/>
<path d="M447.065 154.602H447.79C448.161 155.711 448.515 156.82 448.87 157.93C449.996 162.707 448.346 165.542 443.765 166.775L435.606 168.054L428.003 160.087C427.7 159.769 427.531 159.347 427.531 158.908C427.531 158.47 427.7 158.048 428.003 157.73C431.175 158.931 434.608 159.275 437.955 158.726C441.302 158.176 444.445 156.754 447.065 154.602Z" fill="#C27871"/>
<path d="M214.872 247.891L214.039 247.059C213.568 245.913 213.434 244.657 213.653 243.437C213.653 193.871 213.653 144.299 213.653 94.7223C213.464 93.4956 213.581 92.2413 213.993 91.0703H214.856C215.364 92.3524 215.503 93.7508 215.257 95.1076C215.257 144.715 215.257 194.307 215.257 243.884C215.486 245.23 215.353 246.613 214.872 247.891Z" fill="#DAD9EE"/>
<path d="M214.873 247.89C214.873 195.601 214.873 143.318 214.873 91.0391C216.246 92.2564 215.69 93.8744 215.69 95.3074C215.69 144.751 215.69 194.189 215.69 243.622C215.675 245.009 216.23 246.673 214.873 247.89Z" fill="#F5F5FB"/>
<path d="M213.993 91.0686V247.057L213.253 247.242C213.253 202.76 213.227 158.274 213.176 113.782C213.176 106.231 213.176 98.6808 213.176 91.1302C213.3 91.062 213.437 91.0212 213.578 91.0106C213.719 91 213.86 91.0197 213.993 91.0686Z" fill="#5E5DA6"/>
<path d="M57.0645 247.8C58.3446 246.567 59.9485 247.091 61.3983 247.091C110.011 247.091 158.624 247.091 207.238 247.091C208.687 247.091 210.322 246.567 211.556 247.831C210.6 247.831 209.628 248 208.672 248C158.959 248 109.245 248 59.5321 248C58.7147 247.954 57.8819 247.862 57.0645 247.8Z" fill="#5155A1"/>
<path d="M446.217 271.08C447.389 269.632 449.008 270.217 450.458 270.202C458.432 270.202 466.405 270.202 474.379 270.202C475.088 272.945 473.963 273.731 471.294 273.654C466.837 273.499 462.349 273.654 457.876 273.761C456.054 273.351 454.146 273.568 452.463 274.378C451.648 274.667 450.774 274.752 449.918 274.624C447.851 274.285 445.723 273.946 446.217 271.08Z" fill="#2E3092"/>
<path d="M224.805 258.001H224.451H224.096L223.957 257.046C224.79 256.368 225.792 256.599 226.733 256.599H314.027C314.847 256.492 315.681 256.598 316.448 256.907H317.991C317.883 257.832 317.065 257.724 316.448 257.924C315.53 258.229 314.556 258.329 313.595 258.217H226.857C226.165 258.277 225.469 258.204 224.805 258.001Z" fill="#C3BEE0"/>
<path d="M316.448 256.891L223.91 257.03C224.943 255.689 226.424 256.167 227.735 256.167C255.99 256.167 284.265 256.167 312.561 256.167C313.872 256.167 315.322 255.705 316.448 256.891Z" fill="#F9F8FC"/>
<path d="M443.764 166.79C447.496 165.003 448.606 161.721 448.869 157.945C451.953 159.887 452.57 163.277 453.711 166.343C452.94 168.177 452.169 170.011 451.383 171.86C450.503 174.063 449.64 173 448.745 171.86C447.314 171.156 446.17 169.981 445.506 168.532L443.764 166.79Z" fill="#E6E9ED"/>
<path d="M310.819 195.037C309.909 189.737 311.174 188.966 317.945 190.692C318.243 194.283 318.217 197.893 317.868 201.479C315.088 199.855 312.685 197.659 310.819 195.037Z" fill="#C37973"/>
<path d="M383.352 129.286L368.607 123.277C372.263 122.445 381.193 126.081 383.352 129.286Z" fill="#CBCBCB"/>
<path d="M421.478 110.855C421.987 112.674 421.478 113.937 419.412 113.629C416.574 113.167 415.278 114.846 414.106 116.896C413.751 113.49 414.029 110.732 418.733 111.533C419.683 111.488 420.616 111.258 421.478 110.855Z" fill="#E6E5F2"/>
<path d="M213.115 257.77L211.48 258.417C208.087 257.647 205.002 259.711 201.655 259.45C201.533 259.575 201.386 259.673 201.222 259.737C201.059 259.802 200.884 259.83 200.709 259.821C200.534 259.813 200.363 259.767 200.207 259.687C200.051 259.607 199.914 259.494 199.805 259.357L212.39 256.121C212.651 256.303 212.857 256.553 212.985 256.844C213.112 257.134 213.157 257.455 213.115 257.77Z" fill="#EB225A"/>
<path d="M433.015 109.286C431.874 109.84 430.626 110.138 429.358 110.16C428.09 110.181 426.833 109.925 425.674 109.409C427.124 108.469 428.758 108.808 430.301 108.516C431.103 109.07 432.29 108.423 433.015 109.286Z" fill="#423634"/>
<path d="M368.609 123.275C366.832 123.182 365.113 122.618 363.627 121.641C365.524 121.456 367.945 119.515 368.609 123.275Z" fill="#CBCBCB"/>
<path d="M419.843 151.227L423.143 154.601C423.087 154.678 423.014 154.74 422.93 154.783C422.845 154.825 422.752 154.848 422.657 154.848C422.563 154.848 422.469 154.825 422.385 154.783C422.301 154.74 422.227 154.678 422.172 154.601L419.766 152.552C419.796 152.059 419.812 151.643 419.843 151.227Z" fill="#DCCCD8"/>
<path d="M363.581 121.627C363.113 121.699 362.634 121.669 362.179 121.539C361.724 121.408 361.302 121.181 360.943 120.872C361.869 120.563 362.671 119.562 363.75 120.255C363.982 120.363 363.642 121.149 363.581 121.627Z" fill="#CBCBCB"/>
<path d="M357.643 120.011L358.691 119.857L360.434 119.379L360.311 120.72C359.841 120.795 359.361 120.771 358.901 120.648C358.442 120.526 358.013 120.309 357.643 120.011Z" fill="#CBCBCB"/>
<path d="M433.015 109.283L430.301 108.482C431.843 108.405 433.385 107.85 434.65 109.098L433.015 109.283Z" fill="#DFDDE9"/>
<path d="M318.176 271.004C319.658 270.263 321.326 269.974 322.972 270.172C359.679 270.172 396.401 270.172 433.107 270.172C435.822 270.172 438.752 269.371 441.328 271.081C440.572 273.978 437.981 274.163 435.729 274.903C431.673 275.211 427.555 276.336 423.622 274.24H423.329C419.551 276.166 415.618 275.473 411.639 275.072C410.096 274.933 408.754 274.132 407.197 274.317C403.491 273.44 399.662 273.206 395.876 273.624H380.361C360.959 273.624 341.562 273.567 322.17 273.454C320.443 273.469 317.975 274.286 318.176 271.004Z" fill="#2E3092"/>
<path d="M436.115 274.178C438.034 273.494 439.804 272.448 441.328 271.097L446.217 271.02C446.988 272.668 448.006 273.947 450.119 273.639C450.767 274.718 450.026 275.427 449.44 276.166C445.801 278.77 442.361 282.022 437.272 279.864C434.619 278.478 433.786 276.644 436.115 274.178Z" fill="#C27872"/>
<path d="M436.114 274.18C435.691 275.14 435.576 276.208 435.783 277.236C435.99 278.265 436.509 279.204 437.27 279.927C435.404 280.251 433.538 280.713 431.656 280.883C424.438 281.545 424.439 281.515 423.621 274.318L436.114 274.18Z" fill="#55527D"/>
<path d="M437.132 341.18C432.366 335.556 428.773 329.531 430.284 321.672C431.364 316.048 430.084 310.454 429.405 304.938C429.112 301.134 429.02 297.317 429.127 293.504C430.207 301.301 432.104 309.083 431.271 316.957C430.346 325.848 432.968 333.645 437.147 341.165L437.132 341.18Z" fill="#A3C5E3"/>
<path d="M407.166 274.395H423.298C421.972 278.57 419.273 279.017 415.587 277.476C412.857 276.259 410.004 275.396 407.166 274.395Z" fill="#56557E"/>
<path d="M442.917 388.209C446.958 387.393 450.166 383.987 454.669 384.218C453.997 386.249 452.591 387.956 450.725 389.005C448.859 390.054 446.669 390.369 444.583 389.889C443.549 390.521 442.531 390.736 441.945 389.411C441.621 388.687 442.022 388.148 442.917 388.209Z" fill="#A1C1DE"/>
<path d="M442.915 388.21C441.774 390.429 443.733 389.612 444.581 389.889L446.324 394.204L445.383 394.697C443.841 394.281 442.915 392.555 441.08 392.925C439.414 392.617 439.538 390.999 438.828 389.936V388.241C440.139 385.313 441.527 386.361 442.915 388.21Z" fill="#B5D6F2"/>
<path d="M437.148 341.164C440.563 345.573 443.207 350.528 444.968 355.818L443.95 356.296C441.677 351.252 439.405 346.213 437.133 341.179L437.148 341.164Z" fill="#A4C5E3"/>
<path d="M434.773 328.344C437.565 328.19 440.572 325.662 443.703 328.96C440.434 330.347 437.642 329.314 434.773 328.344Z" fill="#A2C2DF"/>
<path d="M407.166 280.452C410.066 280.036 412.965 279.482 415.757 281.469H407.166V280.452Z" fill="#ACCFED"/>
<path d="M424.562 334.23C426.898 334.882 428.909 336.376 430.207 338.422C427.215 338.191 426.012 336.018 424.562 334.23Z" fill="#A2C4E2"/>
<path d="M421.894 286.169C419.55 287.34 417.684 287.941 415.463 287.186C416.396 286.558 417.455 286.142 418.566 285.966C419.677 285.79 420.813 285.859 421.894 286.169Z" fill="#A7CAE8"/>
<path d="M434.28 303.564C433.941 301.745 435.668 301.453 436.516 299.465C436.084 302.177 436.084 302.177 434.28 303.564Z" fill="#A9CBEC"/>
<path d="M449.439 276.23C449.655 275.383 449.887 274.535 450.118 273.703L452.401 274.35C451.651 275.29 450.609 275.952 449.439 276.23Z" fill="#65628B"/>
<path d="M199.804 259.355L201.655 259.448C193.697 262.668 185.276 263.947 176.87 265.226C176.746 265.352 176.598 265.451 176.433 265.515C176.269 265.579 176.093 265.608 175.916 265.599C175.74 265.59 175.567 265.544 175.41 265.464C175.253 265.384 175.114 265.271 175.004 265.134C183.157 262.749 191.436 260.82 199.804 259.355Z" fill="#EB225A"/>
<path d="M133.903 275.135H131.25C135.806 273.515 140.529 272.409 145.331 271.838C145.864 271.557 146.457 271.41 147.059 271.41C147.661 271.41 148.253 271.557 148.786 271.838C144.02 273.825 138.9 274.195 133.903 275.135Z" fill="#EB225A"/>
<path d="M148.785 271.854H145.33C150.222 270.332 155.224 269.183 160.29 268.418C156.908 270.734 152.885 271.935 148.785 271.854Z" fill="#EB225A"/>
<path d="M175.005 265.133L176.871 265.225C173.154 266.504 169.56 268.569 165.381 267.09C168.62 266.581 171.658 265.04 175.005 265.133Z" fill="#EB225A"/>
<path d="M447.373 417.793H451.83L453.65 418.055V418.671C451.358 418.86 449.053 418.809 446.771 418.517C445.723 418.363 447.111 418.086 447.373 417.793Z" fill="#F1F1F8"/>
<path d="M438.828 389.934L441.126 392.414C442.451 393.277 443.598 394.386 444.504 395.681C445.95 400.233 445.72 405.152 443.856 409.55C441.018 406.129 436.021 405.081 436.145 399.796C436.469 396.59 438.844 393.971 438.782 390.658C438.812 390.418 438.827 390.176 438.828 389.934Z" fill="#FDFDFD"/>
<path d="M444.505 395.68C443.657 395.592 442.864 395.222 442.251 394.63C441.639 394.037 441.243 393.257 441.127 392.414C443.518 391.366 444.366 393.169 445.384 394.694L444.505 395.68Z" fill="#B4D6F3"/>
<path d="M518.719 455.175C519.444 455.083 520.169 455.021 520.585 454.297C524.842 456.023 529.561 455.191 533.864 456.701C533.864 457.178 533.294 457.24 533.016 457.517H530.502C529.176 456.732 527.602 457.61 526.261 456.886C523.652 456.871 521.078 456.287 518.719 455.175Z" fill="#909092"/>
<path d="M548.749 456.797C544.986 459.524 540.93 458.338 536.904 457.69C537.29 456.92 538.277 457.382 538.74 456.781L548.749 456.797Z" fill="#8C8C8F"/>
<path d="M538.74 456.78L536.904 457.689L533.018 457.52C533.295 457.242 533.573 456.965 533.866 456.703L538.74 456.78Z" fill="#838385"/>
<path d="M432.151 389.855L423.699 388.068C427.632 387.143 428.465 387.267 432.151 389.855Z" fill="#ABCDED"/>
<path d="M432.505 392.013C429.297 392.968 426.691 391.597 423.977 391.073C426.768 390.888 429.668 389.855 432.505 392.013Z" fill="#AACCEB"/>
<path d="M526.262 456.843C527.712 456.843 529.238 456.303 530.503 457.475C529.059 457.771 527.557 457.547 526.262 456.843Z" fill="#A8A8A8"/>
<path d="M224.805 257.997C234.305 257.997 243.79 257.812 253.275 257.812C274.343 257.812 295.421 257.843 316.51 257.905C315.646 258.876 314.489 258.614 313.425 258.614C284.121 258.717 254.818 258.804 225.514 258.876C225.252 258.876 225.036 258.306 224.805 257.997Z" fill="#4F57A2"/>
<path d="M428.125 157.916C428.125 158.656 428.125 159.457 428.001 160.105C426.696 159.332 425.579 158.28 424.732 157.023C424.651 156.944 424.588 156.848 424.549 156.743C424.51 156.637 424.495 156.524 424.505 156.411C424.515 156.299 424.551 156.19 424.609 156.094C424.667 155.997 424.746 155.914 424.84 155.852L427.816 157.1C428.387 157.177 428.495 157.485 428.125 157.916Z" fill="#D0CCDF"/>
<path d="M424.84 155.912C424.84 156.297 424.84 156.698 424.732 157.083L422.172 154.648H423.143C423.714 155.034 424.285 155.465 424.84 155.912Z" fill="#D0C4D9"/>
<path d="M445.507 168.578C446.908 169.322 448.041 170.486 448.745 171.907C446.602 171.829 445.383 170.859 445.507 168.578Z" fill="#4E4B71"/>
<path d="M444.612 127.358C443.912 126.805 443.045 126.503 442.152 126.503C441.259 126.503 440.392 126.805 439.692 127.358C436.499 129.716 433.122 129.546 429.652 128.267C428.294 127.623 426.768 127.426 425.291 127.702C423.814 127.979 422.463 128.717 421.431 129.808C419.966 128.144 421.786 127.959 422.526 127.173C424.917 124.646 424.901 124.554 428.541 126.28C432.921 128.344 436.854 127.451 440.88 125.186C442.083 124.508 439.692 121.795 442.036 123.259C442.992 123.86 446.077 124.662 444.612 127.358Z" fill="#4B3C38"/>
<path d="M428.125 157.915C427.997 157.674 427.894 157.421 427.816 157.159C434.633 159.332 440.941 157.606 447.064 154.602C442.638 159.794 433.554 161.382 428.125 157.915Z" fill="#BB736C"/>
</g>
<defs>
<clipPath id="clip0_5424_3993">
<rect width="551" height="461" fill="white"/>
</clipPath>
</defs>
</svg>
