<svg xmlns="http://www.w3.org/2000/svg" viewBox="0 0 357.26 299.17"><defs><style>.cls-1{fill:#efeef8;}.cls-2{fill:#585ea7;}.cls-3{fill:#7275b6;}.cls-4{fill:#b4d6f3;}.cls-5{fill:#ee7490;}.cls-6{fill:#57b46a;}.cls-7{fill:#5f5a6c;}.cls-8{fill:#55527c;}.cls-9{fill:#5257a3;}.cls-10{fill:#a8a8a8;}.cls-11{fill:#b5d6f2;}.cls-12{fill:#595ea7;}.cls-13{fill:#f1f2f9;}.cls-14{fill:#4c4a70;}.cls-15{fill:#f2f0f7;}.cls-16{fill:#f8f7fc;}.cls-17{fill:#f6f5fb;}.cls-18{fill:#eeecf6;}.cls-19{fill:#8d8d8e;}.cls-20{fill:#e9748b;}.cls-21{fill:#a5c6e3;}.cls-22{fill:#ea758b;}.cls-23{fill:#53b36b;}.cls-24{fill:#e2c680;}.cls-25{fill:#ffe176;}.cls-26{fill:#8f8f90;}.cls-27{fill:#666aaf;}.cls-28{fill:#5155a1;}.cls-29{fill:#4d3f3e;}.cls-30{fill:#c37872;}.cls-31{fill:#4a4c9b;}.cls-32{fill:#e4e4f1;}.cls-33{fill:#c27871;}.cls-34{fill:#dad9ee;}.cls-35{fill:#f5f5fb;}.cls-36{fill:#5e5da6;}.cls-37{fill:#5358a3;}.cls-38{fill:#c3bee0;}.cls-39{fill:#f9f8fc;}.cls-40{fill:#e6e9ed;}.cls-41{fill:#c37973;}.cls-42{fill:#e4e3f2;}.cls-43{fill:#e6e5f2;}.cls-44{fill:#eb7a90;}.cls-45{fill:#423634;}.cls-46{fill:#dcccd8;}.cls-47{fill:#dfdde9;}.cls-48{fill:#c27872;}.cls-49{fill:#55527d;}.cls-50{fill:#a3c5e3;}.cls-51{fill:#56557e;}.cls-52{fill:#a1c1de;}.cls-53{fill:#a4c5e3;}.cls-54{fill:#a2c2df;}.cls-55{fill:#accfed;}.cls-56{fill:#a2c4e2;}.cls-57{fill:#a7cae8;}.cls-58{fill:#a9cbec;}.cls-59{fill:#65628b;}.cls-60{fill:#e9758a;}.cls-61{fill:#e9758b;}.cls-62{fill:#e9768c;}.cls-63{fill:#e86c85;}.cls-64{fill:#51b26b;}.cls-65{fill:#50b26b;}.cls-66{fill:#f1f1f8;}.cls-67{fill:#fdfdfd;}.cls-68{fill:#909092;}.cls-69{fill:#8c8c8f;}.cls-70{fill:#838385;}.cls-71{fill:#abcded;}.cls-72{fill:#aacceb;}.cls-73{fill:#4f57a2;}.cls-74{fill:#d0ccdf;}.cls-75{fill:#d0c4d9;}.cls-76{fill:#4e4b71;}.cls-77{fill:#4b3c38;}.cls-78{fill:#bb736c;}</style></defs><g id="Calque_2" data-name="Calque 2"><g id="Calque_1-2" data-name="Calque 1"><path class="cls-1" d="M35.91,160.87c-.17-.29-.53-.63-.48-.89.75-3.73-1.53-5.93-4-8.13A51.88,51.88,0,0,1,18.1,133.71c-5.45-12.85-5.3-25.51,2.52-37.41,4.69-7.12,11.77-11.12,19.82-13.64,10.26-3.21,21-4.47,31.28-7.47,10.8-3.14,21.06-7.37,29.28-15.27,5.67-5.45,7.85-12,6-20.13-1.85-8.26-2.18-16.69,3.36-24.06,4.66-6.19,11.07-9.88,18.3-12.28C138.91.06,149.51-.42,160.08.27a184.94,184.94,0,0,1,32,5,233,233,0,0,1,37.05,12.61,300.34,300.34,0,0,1,33.62,17.4A418.11,418.11,0,0,1,303.86,63,109.4,109.4,0,0,1,326,84.85a64.41,64.41,0,0,1,12.14,31.43,65.93,65.93,0,0,1-6.06,36c-6.21,13.33-16.07,23.53-28.57,31.31-2.81,1.74-6.27,2.67-8.25,5.66a16.26,16.26,0,0,1,1.4-12c2.37-1.12,4.89-.37,7.33-.63,1.14-.12,2.67.32,2.75-1.62.44-4.61-.86-9.18-.27-13.79,4.16-4.7,2.19-10.14,1.74-15.35-.8-9.24-3.41-18.22-4.23-27.47a5.94,5.94,0,0,0-3.11-5,40.1,40.1,0,0,1-6.58-5c-1.43-1.83-2.06-4.16-3.69-5.87a4.19,4.19,0,0,1-.73-2.21c.11-1.69,1.45-2.77,2.06-4.21.93-3.15,2-6.24,3.06-9.34,1.48-4.39.84-6.72-2.86-9.69a12.94,12.94,0,0,1-2.92-3.39c-2-3.15-2.78-3.46-6.26-2.47a2.91,2.91,0,0,1-1.06,0,9.83,9.83,0,0,0-2.7-.27,8.84,8.84,0,0,0-3,.35,9,9,0,0,0-2.8,1,3,3,0,0,1-1.49.5c-2.29-.2-3,1-2.8,3-2.33,3.56-1.41,7.47-1.3,11.32.07,2.27,2.06,3.43,2.72,5.32s1.62,3.61,2,5.56a1.5,1.5,0,0,1-.29.73,2.22,2.22,0,0,1-2.19-.65A104.1,104.1,0,0,0,249.36,85a4,4,0,0,1-1.06-.8c-2.36-2.58-5.63-3.11-8.8-3.89a1.78,1.78,0,0,1-.65-.28,2.76,2.76,0,0,0-2.52-.79,1.54,1.54,0,0,1-.63-.23c-.42-.45-1-.34-1.48-.32a1.61,1.61,0,0,1-.61-.19c-.42-.81-1.42-.36-2-.9a83,83,0,0,0-21.52-3.36c-4.11-.15-4.14-.17-4.15,4,0,13.44,0,26.88,0,40.32,0,3.87,0,3.79-3.82,4.47-2.43.43-.68,1.73-.39,2.7,1.29,2.35,4.19,3.31,5.18,5.94.48,9.07.14,18.16.19,27.23,0,2.55.5,5.17-.54,7.66a1.57,1.57,0,0,1-1.38.59,12.58,12.58,0,0,0-2.12-.2c-18.71,0-37.42-.06-56.11,0a2.18,2.18,0,0,0-.69.28c-.45.53-.26,1,.1,1.52,13.15,13.34,26.49,26.49,39.67,39.79.86.86,2.35,1.47,1.93,3.16-1.28,1.09-3-1-4.22.61-1.49.09-2.15-1.15-3-2Q163,192.76,145.38,175.06c-2.28-2.28-2.21-2.18-4.56-.1-7.89,7-14.94,14.78-22.81,21.75-.64.57-1.17,1.41-2.24,1.18-.7-.95-2.25-.61-2.76-1.83,0-1.35,1.09-2,1.88-2.78q10.92-11,21.88-21.92a8,8,0,0,0,2.19-2.64c0-.63-.53-.89-.88-1.28a3.83,3.83,0,0,1-.65-1.19c-.3-.77-1.07-.93-1.7-1.27a45.24,45.24,0,0,0-6.16,0q-43.39,0-86.78,0c-.9,0-1.79.05-2.68,0-2.08-.11-2.88.87-2.83,2.89,0,1.3.25,2.72-.91,3.76-.95-2.21-.32-4.53-.43-6.79-.06-1.3,1-1.25,1.89-1.26l7.18,0a4.18,4.18,0,0,1,2.1-.21h90c-10.06,0-20.49,0-30.92,0q-29.16,0-58.32,0A5.92,5.92,0,0,1,45,163l-1.6-.54c.4-1.5,1.62-.75,2.41-.76,13.37-.05,26.75,0,40.12,0q24.89,0,49.76,0c.78,0,1.73.47,2.28-.25-.15.56-.8.24-1.26.24q-46.42,0-92.83,0a2.18,2.18,0,0,1-1-.21c-2.3-.4-4.71.63-6.94-.58a3.45,3.45,0,0,1,.87-.55,4.54,4.54,0,0,1,1-.18q49.08-.1,98.17,0a14.14,14.14,0,0,0,1.72-.07c.24-.06.49-.11.73-.18a1.11,1.11,0,0,0,.64-.91c0-32.73.08-65.45,0-98.15a1.67,1.67,0,0,0-.37-.71,2.29,2.29,0,0,0-.73-.27l-.8,0Q99.49,60.09,71,84.72c-17.74,15.44-28.57,34.9-32.9,58a75.7,75.7,0,0,0-1.51,14.87C36.62,158.7,36.81,159.91,35.91,160.87Z"/><path class="cls-2" d="M213.76,245c-6.94,7.52-15.2,13.3-24.11,18.19-2.1,1.15-4.25,2.2-6.38,3.3a6.08,6.08,0,0,1-3.11,2,102.17,102.17,0,0,1-48.52,6.9,97.68,97.68,0,0,1-29.95-7.61c-1-.41-2-.71-2.58-1.78a107.75,107.75,0,0,1-25.5-17,21.67,21.67,0,0,1-3.92-4c.27-3.05,3-4.36,4.78-6.13Q87.7,226,101,213.23c6.62-6.35,13.26-12.68,19.81-19.1,5.58-5.48,11.4-10.71,16.81-16.37,1-1,2.19-1.82,3.24-2.78,2.14-1.92,2.66-1.83,4.62.12,7.94,7.92,15.89,15.81,23.77,23.78s16,16,23.92,24c5.94,6,12,11.91,17.92,17.93C212.23,242,213.57,243.12,213.76,245Z"/><path class="cls-3" d="M188,211.78c-.28-1-1.18-1.53-1.86-2.2q-19.22-19.26-38.45-38.49c-.69-.68-1.29-1.45-1.93-2.18.93-.95,2.15-.74,3.28-.75,18.35,0,36.7.05,55.05-.07,2.13,0,2.87.95,3,2.82.13,1.51,0,3,.1,4.53.83,1.74,2.46,1.16,3.76,1.16,10.31.06,20.62,0,30.94,0a11.58,11.58,0,0,1,4.22.39c1.3.83,1.1,2.14,1,3.35A99.44,99.44,0,0,1,240.62,207a4.76,4.76,0,0,1-1.68,2.64c-3.92,8.13-8.21,16-13.94,23.06-1.86,2.28-3.91,4.41-5.75,6.7-1.19,1.49-2,1.41-3.33.06-8.4-8.51-16.89-16.95-25.36-25.39C189.75,213.22,188.83,212.53,188,211.78Z"/><path class="cls-4" d="M296.85,177.64c-1.28,3.78-1.31,7.72-1.58,11.63-.93,8.25-3.46,16.2-4,24.58A129.62,129.62,0,0,1,289,229.49a6.41,6.41,0,0,0,.61,4.87c2.59,4.22,4.68,8.74,7.67,12.72,1.86,4.66-1.89,9-7.8,8.95a3.47,3.47,0,0,1-1.35-3.08c2-.54,4.16-.72,5.68-2.71-2.52,0-4.17,2.16-6.52,2a2.7,2.7,0,0,0-2.93-.05c-1.32-.21-1.8-1.31-2.42-2.27a129.55,129.55,0,0,1-8.11-14.63c-.74-3.07-2.75-5.5-4.29-8.15-1.68-2.9-3.95-5.7-4.95-8.7-1.33-4-4.53-7.52-3.72-12.2a5.65,5.65,0,0,0-.5-2c-1.24-1-1.41-2.44-1.61-3.83-.82-5.8-2.06-11.56-1.84-17.46.07-1.87-.91-3.65-.41-5.54,2.37-1.29,4.78-.71,7.18-.09,1.56.63,3.2,1.06,4.75,1.69,2.28.93,4.25.84,5.88-1.19a.92.92,0,0,1,.72.24c1.16,3.91,1.16,3.91,5.45,3.44.89-.09,1.74-.37,2.64-.4,3.21.94,5.63-.77,8.08-2.4.73-.36,1.36-.87,2.06-1.27C294.51,177,295.73,176.33,296.85,177.64Z"/><path class="cls-5" d="M58.94,184.41c3.49-1.29,7.19-1.63,10.76-2.55,2.57.44,4.79-1,7.18-1.45,3.33-.67,6.8-.87,10-2.34,3.06-.83,6.19-1.32,9.28-2a21.22,21.22,0,0,0,7.59-2.42,5.85,5.85,0,0,1,3.5-.89c2.69.63,5.08-.66,7.58-1.18a158.39,158.39,0,0,0,15.71-3.66c1.65-.61,3.44-.45,5.1-1.06a1.27,1.27,0,0,1,1.73.75c-.71,1.77-2.49,2.23-3.9,3q-16.92,9.45-33.75,19a19.29,19.29,0,0,1-3.21,1.16q-13,7.21-25.91,14.43c-6.46,3.61-12.92,7.21-19.32,10.92-1.46.84-2,.6-2.8-.86a115,115,0,0,1-9.13-23.62c-.64-2.39-.2-3.48,2.33-3.57a17.25,17.25,0,0,0,2.35-.41A78,78,0,0,0,58.94,184.41Z"/><path class="cls-6" d="M139.85,168.36c-.07,1.23-1.13,1.76-1.86,2.49q-12.47,12.63-25,25.21-13.47,13.37-26.94,26.73c-5.62,5.6-11.26,11.18-16.79,16.85-1.22,1.26-1.89,1.34-3.11,0a108.2,108.2,0,0,1-14.58-19.73c-.6-1.05-1.21-1.91.38-2.79q20.67-11.47,41.28-23a18.14,18.14,0,0,0,7.89-4.77,30.27,30.27,0,0,1,9-5.2,16.42,16.42,0,0,0,8-4.41,7.19,7.19,0,0,1,4.4-2.54c3.06-.34,5.34-2.37,7.86-3.79,1.73-1,3.85-1.53,5-3.43C136.64,168.68,137.86,167.46,139.85,168.36Z"/><path class="cls-7" d="M36.37,171.59l.06-.8c.13-2.18-1.07-5.07.43-6.36,1.26-1.07,4.07-.4,6.19-.4q46,0,91.94,0c.45,0,2.56-1.39,1.67,1.09-.86.92-2.07,1-3.17,1.26-19.17,4.49-38.39,8.77-57.57,13.22-1.58.37-3.21-.08-4.75.47-9.22,2-18.44,4.06-27.65,6.12-5.12,1.15-5.16,1.2-5.91-4C37.1,178.69,36.77,175.13,36.37,171.59Z"/><path class="cls-1" d="M99.11,265.94A109.88,109.88,0,0,0,126.74,274a101.78,101.78,0,0,0,54.53-6.87c.65-.27,1.33-.47,2-.7,2.58.87,5.18,1.71,7.73,2.65a3.88,3.88,0,0,1,2.89,3.17c.14,1.66-1.43,2.06-2.58,2.7-5.63,3.18-12,3.86-18.17,4.76-15.36,2.22-30.88,2.11-46.32,1.53-11.46-.43-23-1.13-34-5.12-2.06-.76-4.63-1.29-4.81-3.95-.21-3,2.81-3.05,4.63-4C94.63,267.08,97.09,267.11,99.11,265.94Z"/><path class="cls-1" d="M256.68,177.62a13.76,13.76,0,0,1,1.06,5.68c0,7.1,1.25,14,2.66,21q-9.06,2.53-18.13,5.05c-1.08.3-2.17.82-3.33.29,2.87-7.85,5.56-15.75,6.7-24.08.37-2.64.65-5.29,1-7.94A11.6,11.6,0,0,1,256.68,177.62Z"/><path class="cls-1" d="M300,265.34a54.64,54.64,0,0,1,8.34,2.66,2.7,2.7,0,0,1,1.84,2.06c.21,1.22-.58,1.8-1.43,2.3-3.53,2.08-7.54,2.53-11.46,3.12-7.34,1.1-14.74.64-22.11.49a60.32,60.32,0,0,1-14.39-2.18,3.37,3.37,0,0,1-.73-.32c-1.42-.82-3.62-1.21-3.59-3.13,0-2.08,2.18-2.5,3.86-3.14a26.87,26.87,0,0,1,8-1.79c1.8-.11,2.27-.73,2.23-2.4,0-1.17-.52-2.5.53-3.55,1.18,1.48.6,3.24.76,4.88,0,.17-.06.44,0,.51,2.9,2.06,4.59,6,9,5.67,2-.15,4-.63,6.06-.62,1.07,0,2.13-.11,2.91.83.41.13-.59.8.15.63a5.08,5.08,0,0,1,2.84,0,2,2,0,0,0,.74.15c-.18-.23-.61,0-.7-.43a1.15,1.15,0,0,1,1.09-1A7.17,7.17,0,0,0,300,265.34Z"/><path class="cls-8" d="M271.14,264.79v-5.33l.06,0a14,14,0,0,1,6.59-3.66c2.54-.59,4.16.51,5.48,3.41.36,2.44,2.12,3.79,4.14,5.2,1.25-2.44.6-4.89.41-7.3a1.56,1.56,0,0,1,.48-1,1.37,1.37,0,0,1,1.09-.26c2.24-.68,4.65-.8,6.35-2.9,1.45-1.8,2.45-3.51,1.57-5.84a26.27,26.27,0,0,1,4.26,5.41c-.76,2.26-1.1,4.63-2.28,6.8-.77,1.39-.48,3.14-.06,4.7a3.18,3.18,0,0,1-2.17,4.26c-3.41,1.05-6.83,2.61-10.57,1.07-1.26-.52-2.64,0-3.95.21-2.92.47-5.63.58-7.63-2.28C274.05,266,272.28,265.81,271.14,264.79Z"/><path class="cls-9" d="M213.76,245c-3.67-4.54-8-8.46-12-12.61-3.33-3.39-6.66-6.81-10-10.16-3.89-3.84-7.65-7.83-11.72-11.5-3.13-2.82-5.91-6.05-8.91-9-4-4-7.92-8.06-12-12-3.38-3.22-6.54-6.67-9.81-10-1.67-1.7-3.33-3.42-5.07-5.05-.54-.51-1.19-.93-2.06-.09-5,4.85-10.08,9.6-15.09,14.44-6.75,6.51-13.45,13.08-20.19,19.62-5.77,5.61-11.53,11.24-17.35,16.8-4.87,4.66-9.93,9.13-14.67,13.91-1.77,1.79-3.85,3.37-5.1,5.65-1.3-1.68.1-2.57,1.08-3.52q15.23-14.7,30.46-29.36c4.87-4.71,9.69-9.47,14.54-14.2,8.5-8.12,17-16.19,25.46-24.39,1.45-1.41,2.13-1.39,3.53,0q18.44,18.6,37,37.08c.62.62,1.3,1.19,2,1.78l28.83,29C213.55,242.38,214.93,243.26,213.76,245Z"/><path class="cls-10" d="M5.32,277.72a5.41,5.41,0,0,1-.94-2.45c-.57-1.92.18-2.89,2.17-2.87A16.38,16.38,0,0,0,14,270.51a16.37,16.37,0,0,1,4.59-1.32c2.7-.44,5.19-.48,6.59,2.74.9,2.09,2.49,3.88,3.66,5.87.55,1,1.2,2.06.3,3.22-7,1.38-13.89.18-20.73-1.24C7.11,279.52,6.31,278.45,5.32,277.72Z"/><path class="cls-10" d="M334.77,294.38a4.21,4.21,0,0,1-1-2.08c-.9-3-.82-3.06,2.3-3.46,1.69-.22,3.55-.07,4.92-1.46a3.85,3.85,0,0,1,4.13-1.22c3.3-1,5.89-.64,7.6,3,1.15,2.43,3.39,4.33,3.57,7.26a1.47,1.47,0,0,1-.74.36,29.34,29.34,0,0,1-6.28.38,15.28,15.28,0,0,1-3-.19c-2.77-.54-5.62-.51-8.35-1.23C336.68,295.61,335.88,294.64,334.77,294.38Z"/><path class="cls-11" d="M282.79,259.48c-1.16-3.13-3.15-4-6.24-2.66-1.82.79-3.31,2.27-5.35,2.62-.61-4.37.36-8.67.69-13,.26-3.37.48-6.85,1.89-10.05.68-.28,1,.19,1.25.66a104.68,104.68,0,0,0,9.9,16.68A8.09,8.09,0,0,1,282.79,259.48Z"/><path class="cls-2" d="M54.63,282.92a1.78,1.78,0,0,1,.09-.53c.62-1.2,1.36-2.7,2.88-2.21s.52,2.07.24,3.19c1.8.49,3.16-2.76,4.57-.44,1.18,1.94-1,2.91-2.22,4.39,2.39.38,4.6.69,6.8,1.09.77.14,1.85.29,1.9,1.19s-1.1,1.06-1.81,1.2a58.05,58.05,0,0,1-22.06,0c-.71-.13-1.86-.21-1.8-1.2s1.15-1.05,1.91-1.18c2.54-.43,5.09-.77,7.73-1.16-1-1.81-4.72-2.22-3-5.14.78-1.32,2.61-1.32,3.82.19C53.89,282.66,53.8,283.51,54.63,282.92Z"/><path class="cls-12" d="M345.07,286.16l-4.13,1.22c-2.13-2.73-4.14-5.41-7.95-6.24-2.39-.52-1.05-2.51-.53-3.95.24-.61.14-1.39.91-1.72l2.49-3c-.18,5.91,4.7,8.67,6.55,13.23,1.87-4.48,6.78-7.21,6.52-12.79,1.33.31,1.55,1.7,2.48,2.29a2.08,2.08,0,0,1,1.12,2c1.05,3.21,1,3.11-2.25,4.35A9.82,9.82,0,0,0,345.07,286.16Z"/><path class="cls-13" d="M71.17,180.11c9.43-2.2,18.85-4.42,28.29-6.6q17.79-4.12,35.61-8.19a11.89,11.89,0,0,1,1.59-.16c.65.05,1.66-.26,1.05,1.05-2.45,1.66-5.54,1.17-8.13,2.37-5.28,1.45-10.73,2.22-16,3.73-2.16.06-4.1,1.51-6.35,1l-3.3.81c-3.06,1.39-6.41,1.69-9.61,2.54a65.17,65.17,0,0,0-9.25,2.21c-3.49.7-6.95,1.56-10.45,2.21a1.3,1.3,0,0,1-1.19-.39C72.84,179.88,71.93,180.29,71.17,180.11Z"/><path class="cls-14" d="M271.14,264.79a3.89,3.89,0,0,1,3.92,1.78c1.54,2.55,3.78,2.67,6.25,2.49a22.62,22.62,0,0,1,6.8.16,13.25,13.25,0,0,0,9.82-2.21c1-.74,1.13-2,.77-3.4-1.07-4.19,1.18-7.6,2.87-11.12,1.07,2.13,0,4.09-1,5.69-1.47,2.43-1.28,4.71-.53,7.16.06,3-1.75,4.35-4.33,5.07l-2.75.76a2.87,2.87,0,0,1-2.89,0c-1.93-1.23-4-.4-5.95-.3-1.59.08-3.16.36-4.75.43s-3-.34-3.6-1.77A3.93,3.93,0,0,0,272.4,267C271.11,266.71,270.9,265.9,271.14,264.79Z"/><path class="cls-1" d="M27.35,282c-9,2.31-17.94,3.28-27.35.45,2.05-2.55,5-1.34,7-2.62.86-.61,1.75-.09,2.56.07a79.47,79.47,0,0,0,15.3,1.53C25.71,281.42,26.66,281.2,27.35,282Z"/><path class="cls-15" d="M110.35,184.35l-9.25,5.35c-1,1.05-2,1.89-3.57,1.68a1.18,1.18,0,0,0-1.07-.52l27.17-15.49,13.49-7.67c.26-.37.57-.63,1.06-.42a1.68,1.68,0,0,1,1.67,1.08c-1.88-.18-3.07,1.19-4.49,2a60.22,60.22,0,0,1-12.64,7.11l-4.5,2.54A21.89,21.89,0,0,1,110.35,184.35Z"/><path class="cls-16" d="M42.86,161.46h95.22l0,.48h-2.56q-44.53,0-89.09,0c-1,0-2.16-.41-3,.52A1.12,1.12,0,0,1,42.86,161.46Z"/><path class="cls-17" d="M45,163h92v.49H45A4,4,0,0,0,45,163Z"/><path class="cls-18" d="M355.8,296.44l.44-.05c1.66.52,1,1.09,0,1.57-1.31.61-2.76.48-4.16.69a42.57,42.57,0,0,1-15.79-.47c-.79-.18-2.06.09-2.2-1.06s1.34-.94,1.85-1.63a.42.42,0,0,1,.61-.29,46.42,46.42,0,0,0,4.7.91,6.56,6.56,0,0,0,2.78.3,8.33,8.33,0,0,1,1.66.1,13.38,13.38,0,0,0,2.53.23A17.84,17.84,0,0,0,355.8,296.44Z"/><path class="cls-19" d="M27.35,282A88.79,88.79,0,0,1,7,279.82a4,4,0,0,1-1.67-2.1c7.6,3.53,15.76,2.88,23.79,3.3A2.93,2.93,0,0,1,27.35,282Z"/><path class="cls-20" d="M73.43,180.71l11.67-2.2a1.62,1.62,0,0,1,1.72,0c-3.1,2-6.79,1.88-10.22,2.58-2.22.45-4.45,2-6.9.73Z"/><path class="cls-21" d="M284.5,253.55c-4-4.78-6.66-10.35-9.6-15.77-.3-.56-.5-1.11-1.12-1.37,0-.36.05-.72.08-1.08,1.25.16,1.4,1.3,1.77,2.13,2,4.58,4.9,8.69,7.38,13A7.74,7.74,0,0,0,284.5,252a1,1,0,0,1,.38,1A1.15,1.15,0,0,1,284.5,253.55Z"/><path class="cls-22" d="M58.94,184.41c-.15.3-.26.84-.45.87-4.67.7-9.12,2.42-13.84,2.85-.21,0-.44-.24-.67-.38C48.92,186.42,53.9,185.26,58.94,184.41Z"/><path class="cls-23" d="M97.53,191.38l3.57-1.68c.11.2.32.58.31.59-2.42,1.44-4.84,2.87-7.29,4.24-.16.09-.57-.28-.87-.43Z"/><path class="cls-24" d="M333.37,275.47c-.16.65,0,1.46-.91,1.72-.85-.95-.33-1.77.39-2.4C333.09,274.58,333.26,275.17,333.37,275.47Z"/><path class="cls-25" d="M352.53,277.22c-.85-.39-.79-1.31-1.12-2,.23-.33.7-.91.87-.39C352.5,275.56,353.74,276.32,352.53,277.22Z"/><path class="cls-26" d="M336.33,295.39l-.4.1-1.16-1.11c1.07-.82,1.74.95,2.77.44C337.54,295.88,336.91,295.57,336.33,295.39Z"/><path class="cls-27" d="M54.63,282.92c0,.38,0,1-.54.86-.78-.2-.39-.94-.42-1.47Z"/><path class="cls-2" d="M206.3,175.87c-.19-2.28,1-5.29-.54-6.64-1.24-1.1-4.18-.32-6.36-.32H145.73c-.51-.39-.39-1-.43-1.49a1.16,1.16,0,0,1,.92-.31c19.4-.07,38.8,0,58.21-.05.58-.08,1.25.21,1.74-.35.12-12,.26-24-.07-36-1-2.26-.57-4.63-.59-7a93.56,93.56,0,0,0,.23-11.23c0-11,0-22,0-32.93,0-.72,0-1.43,0-2.15.09-3.27.36-3.56,3.54-3.38a99.94,99.94,0,0,1,22.15,3.27,16.88,16.88,0,0,0,2.17,1,.37.37,0,0,0,.41.1c.53.29,1.28-.19,1.71.49h0c1.05.42,2.37,0,3.23,1h0c3.36.91,6.77,1.7,9.6,3.92a114.19,114.19,0,0,1,23.61,15c.82-.06,1.28.54,1.82,1s1.13,1.17,1.72,1.73a11.51,11.51,0,0,0,2.36,2,26.23,26.23,0,0,1,4.94,5.1c12.88,14.06,20.5,30.68,24.06,49.29a5.29,5.29,0,0,1,0,2.9c-.4,3.74.76,7.4.59,11.13-.05,1.07-.05,2.13-.08,3.19-1.12.95-2.48.8-3.79.84-4.76.12-9.53-.26-14.29.24a8.31,8.31,0,0,1-3.58,0,74.35,74.35,0,0,0-7.46-.22q-34.77,0-69.54,0A5.22,5.22,0,0,1,206.3,175.87Z"/><path class="cls-28" d="M36.46,160.8l-.54.08h0C35,113.7,69.8,70.56,116.22,61.24a89.77,89.77,0,0,1,21.5-2.11c.89.95.74,2.15.74,3.3q0,46.95,0,93.91c0,3.82-.21,4-4.16,4q-47.09,0-94.19,0C38.89,160.35,37.6,160.06,36.46,160.8Z"/><path class="cls-8" d="M307.07,161c-1.31-5.59-2.42-11.22-4.24-16.7a98,98,0,0,0-20.39-35.23c1.38-1.36,3.17-1.13,4.87-1.28a2.08,2.08,0,0,1,1.61,1.08,3.47,3.47,0,0,0,2.24,2.42c2-.23,1.46-2.74,3-3.35,3.26,1.5,5.61,4.31,8.74,6,1.33.73,1.73,2.53,1.82,4,.54,9,3.33,17.68,4.05,26.66.26,3.2.78,6.37,1,9.57C310,156.91,309.56,159.4,307.07,161Z"/><path class="cls-29" d="M273.28,71.94A2.81,2.81,0,0,1,276,71c1.57-.18,3.16,0,4.72-.27a1.42,1.42,0,0,1,1.14.09c1.46,1,1.22-1.42,2.45-1.19,1.42.26,3.15.29,3.88,1.46a40.85,40.85,0,0,0,6.28,7.58c4.4,4.29,1.14,8.26-.14,12.13-.63,1.91-.73,4-1.83,5.76-1.77.7-1.86-.74-2.19-1.77a63.43,63.43,0,0,1-2.37-11.48,3,3,0,0,0-1-2.37,7.71,7.71,0,0,1-9.11,1.63c-3-1.29-3-1.24-4.16,2.26-.64,2.08-.48,4.35-1.4,6.35-.39.85-.52,2.19-2.06,1.7-1.64-2.3-4.21-4.27-2.61-7.71a1.83,1.83,0,0,0-.36-1.48c-1.43-2-1.4-3.7.44-5.4a3,3,0,0,0,.91-2.41,2.93,2.93,0,0,1,2.76-2.79A2.78,2.78,0,0,0,273.28,71.94Z"/><path class="cls-30" d="M288.28,82.65c1.14,3.9,1.3,8,2.69,11.89.32.88,0,2.06,1.49,2-.32,1.48-2,2.22-2.12,3.8-.19.18-.4.36-.62.53a14,14,0,0,1-12.05,1.79,4.47,4.47,0,0,1-2.08-1,7.28,7.28,0,0,1-1.34-1.2,10.89,10.89,0,0,1-2-2.36,15,15,0,0,1-2.1-5.28,4.45,4.45,0,0,0,2-4,15,15,0,0,1,1.13-4.62,3.3,3.3,0,0,1,4.44-1.71c2.58.93,5.16,1.2,7.65-.49C286.36,81.36,287.54,81.25,288.28,82.65Z"/><path class="cls-31" d="M36.46,160.8c.5-1.71,1.93-1,2.93-1q47.28-.06,94.55,0c3.77,0,3.77,0,3.77-3.71q0-48.48,0-97h.52c.9,1,.75,2.15.76,3.29q0,47.34,0,94.69a5,5,0,0,1-.7,3.33c-.23.56-.67.49-1.13.38a4.65,4.65,0,0,0-2.36-.23H39.37a5.15,5.15,0,0,0-2.37.21Z"/><path class="cls-32" d="M231.89,77.88a138,138,0,0,0-21.61-3.08c-4-.22-4-.36-4,3.58q0,21.09,0,42.18c0,1.06-.09,2.12-.14,3.19a1.62,1.62,0,0,1-1.25.28c-2.11-.44-3,.65-3.37,2.54a3.43,3.43,0,0,1-1.29-2c-.64-1.59.43-3,2-2.49,2.68.87,3-.42,3-2.58q-.06-20,0-40.06c0-1.94-.57-4.26.28-5.73,1.18-2,3.54-.08,5.37-.09a75.83,75.83,0,0,1,20.66,3.09,1.23,1.23,0,0,1,1,1A.41.41,0,0,1,231.89,77.88Z"/><path class="cls-33" d="M289.87,100.33h.47c.24.72.47,1.44.7,2.16.73,3.1-.34,4.94-3.31,5.74l-5.29.83-4.93-5.17a1.11,1.11,0,0,1,0-1.53A12.49,12.49,0,0,0,289.87,100.33Z"/><path class="cls-34" d="M139.32,160.87l-.54-.54a4.22,4.22,0,0,1-.25-2.35q0-48.25,0-96.51a4.9,4.9,0,0,1,.22-2.37l.56,0a4.8,4.8,0,0,1,.26,2.62q0,48.29,0,96.55A5,5,0,0,1,139.32,160.87Z"/><path class="cls-35" d="M139.32,160.87q0-50.9,0-101.79c.89.79.53,1.84.53,2.77q0,48.13,0,96.25C139.84,159,140.2,160.08,139.32,160.87Z"/><path class="cls-36" d="M138.75,59.1l0,101.23-.48.12q0-43.3-.05-86.61,0-7.35,0-14.7A.64.64,0,0,1,138.75,59.1Z"/><path class="cls-28" d="M37,160.81c.83-.8,1.87-.46,2.81-.46q47.28,0,94.56,0c.94,0,2-.34,2.8.48-.62,0-1.25.11-1.87.11q-48.35,0-96.7,0C38.07,160.91,37.53,160.85,37,160.81Z"/><path class="cls-37" d="M289.32,175.92c.76-.94,1.81-.56,2.75-.57,5.17,0,10.34,0,15.51,0,.46,1.78-.27,2.29-2,2.24-2.89-.1-5.8,0-8.7.07a5.37,5.37,0,0,0-3.51.4,3.42,3.42,0,0,1-1.65.16C290.38,178,289,177.78,289.32,175.92Z"/><path class="cls-38" d="M145.76,167.43l-.23,0h-.23l-.09-.62c.54-.44,1.19-.29,1.8-.29h56.6a3.12,3.12,0,0,1,1.57.2h1c-.07.6-.6.53-1,.66a4.29,4.29,0,0,1-1.85.19H147.09A3.51,3.51,0,0,1,145.76,167.43Z"/><path class="cls-39" d="M205.18,166.71l-60,.09c.67-.87,1.63-.56,2.48-.56q27.48,0,55,0C203.51,166.24,204.45,165.94,205.18,166.71Z"/><path class="cls-40" d="M287.73,108.24c2.42-1.16,3.14-3.29,3.31-5.74,2,1.26,2.4,3.46,3.14,5.45-.5,1.19-1,2.38-1.51,3.58-.57,1.43-1.13.74-1.71,0a4.49,4.49,0,0,1-2.1-2.16Z"/><path class="cls-41" d="M201.53,126.57c-.59-3.44.23-3.94,4.62-2.82a39,39,0,0,1-.05,7A14.73,14.73,0,0,1,201.53,126.57Z"/><path class="cls-42" d="M248.56,83.9,239,80C241.37,79.46,247.16,81.82,248.56,83.9Z"/><path class="cls-43" d="M273.28,71.94c.33,1.18,0,2-1.34,1.8-1.84-.3-2.68.79-3.44,2.12-.23-2.21-.05-4,3-3.48A4.74,4.74,0,0,0,273.28,71.94Z"/><path class="cls-44" d="M138.18,167.28l-1.06.42c-2.2-.5-4.2.84-6.37.67a.8.8,0,0,1-1.2-.06l8.16-2.1A1.12,1.12,0,0,1,138.18,167.28Z"/><path class="cls-45" d="M280.76,70.92A5.64,5.64,0,0,1,276,71c.94-.61,2-.39,3-.58C279.52,70.78,280.29,70.36,280.76,70.92Z"/><path class="cls-42" d="M239,80a6.49,6.49,0,0,1-3.23-1.06C237,78.82,238.57,77.56,239,80Z"/><path class="cls-46" d="M272.22,98.14l2.14,2.19a.39.39,0,0,1-.63,0L272.17,99C272.19,98.68,272.2,98.41,272.22,98.14Z"/><path class="cls-42" d="M235.74,78.93a2.12,2.12,0,0,1-1.71-.49c.6-.2,1.12-.85,1.82-.4C236,78.11,235.78,78.62,235.74,78.93Z"/><path class="cls-42" d="M231.89,77.88l.68-.1,1.13-.31-.08.87A2.2,2.2,0,0,1,231.89,77.88Z"/><path class="cls-47" d="M280.76,70.92,279,70.4c1-.05,2-.41,2.82.4Z"/><path class="cls-37" d="M206.3,175.87a5.49,5.49,0,0,1,3.11-.54c23.8,0,47.61,0,71.41,0,1.76,0,3.66-.52,5.33.59-.49,1.88-2.17,2-3.63,2.48-2.63.2-5.3.93-7.85-.43h-.19c-2.45,1.25-5,.8-7.58.54-1-.09-1.87-.61-2.88-.49a21.58,21.58,0,0,0-7.34-.45l-10.06,0q-18.87,0-37.73-.11C207.77,177.47,206.17,178,206.3,175.87Z"/><path class="cls-48" d="M282.77,177.93a10.32,10.32,0,0,0,3.38-2l3.17-.05c.5,1.07,1.16,1.9,2.53,1.7.42.7-.06,1.16-.44,1.64-2.36,1.69-4.59,3.8-7.89,2.4C281.8,180.72,281.26,179.53,282.77,177.93Z"/><path class="cls-49" d="M282.77,177.93a3.31,3.31,0,0,0,.75,3.73c-1.21.21-2.42.51-3.64.62-4.68.43-4.68.41-5.21-4.26Z"/><path class="cls-50" d="M283.43,221.41c-3.09-3.65-5.42-7.56-4.44-12.66.7-3.65-.13-7.28-.57-10.86a70.83,70.83,0,0,1-.18-7.42c.7,5.06,1.93,10.11,1.39,15.22-.6,5.77,1.1,10.83,3.81,15.71Z"/><path class="cls-51" d="M264,178.07l10.46,0c-.86,2.71-2.61,3-5,2C267.69,179.28,265.84,178.72,264,178.07Z"/><path class="cls-52" d="M287.18,251.93c2.62-.53,4.7-2.74,7.62-2.59a5.57,5.57,0,0,1-6.54,3.68c-.67.41-1.33.55-1.71-.31C286.34,252.24,286.6,251.89,287.18,251.93Z"/><path class="cls-11" d="M287.18,251.93c-.74,1.44.53.91,1.08,1.09l1.13,2.8-.61.32c-1-.27-1.6-1.39-2.79-1.15-1.08-.2-1-1.25-1.46-1.94l0-1.1C285.38,250.05,286.28,250.73,287.18,251.93Z"/><path class="cls-53" d="M283.44,221.4a32.08,32.08,0,0,1,5.07,9.51l-.66.31q-2.21-4.91-4.42-9.81Z"/><path class="cls-54" d="M281.9,213.08c1.81-.1,3.76-1.74,5.79.4C285.57,214.38,283.76,213.71,281.9,213.08Z"/><path class="cls-55" d="M264,182c1.88-.27,3.76-.63,5.57.66H264Z"/><path class="cls-56" d="M275.28,216.9a6.36,6.36,0,0,1,3.66,2.72C277,219.47,276.22,218.06,275.28,216.9Z"/><path class="cls-57" d="M273.55,185.71c-1.52.76-2.73,1.15-4.17.66A5,5,0,0,1,273.55,185.71Z"/><path class="cls-58" d="M281.58,197c-.22-1.18.9-1.37,1.45-2.66C282.75,196.1,282.75,196.1,281.58,197Z"/><path class="cls-59" d="M291.41,179.26c.14-.55.29-1.1.44-1.64l1.48.42A3.49,3.49,0,0,1,291.41,179.26Z"/><path class="cls-60" d="M129.55,168.31l1.2.06c-5.16,2.09-10.62,2.92-16.07,3.75a.81.81,0,0,1-1.21-.06A148.16,148.16,0,0,1,129.55,168.31Z"/><path class="cls-61" d="M86.82,178.55l-1.72,0a42.09,42.09,0,0,1,9.13-2.14,2.4,2.4,0,0,1,2.24,0C93.38,177.7,90.06,177.94,86.82,178.55Z"/><path class="cls-62" d="M96.47,176.42l-2.24,0a65.56,65.56,0,0,1,9.7-2.23A12.75,12.75,0,0,1,96.47,176.42Z"/><path class="cls-63" d="M113.47,172.06l1.21.06c-2.41.83-4.74,2.17-7.45,1.21C109.33,173,111.3,172,113.47,172.06Z"/><path class="cls-64" d="M122.72,177.5c4.14-2.49,8.18-5.17,12.64-7.11.55.33.47.73,0,1q-5.73,3.27-11.5,6.5A.88.88,0,0,1,122.72,177.5Z"/><path class="cls-65" d="M110.35,184.35q3.93-2.16,7.87-4.31c.11.2.34.57.33.58a38.09,38.09,0,0,1-7.62,4.17C110.81,184.84,110.55,184.51,110.35,184.35Z"/><path class="cls-66" d="M290.07,271.13l2.89,0,1.18.17,0,.4a21.34,21.34,0,0,1-4.46-.1C289,271.5,289.9,271.32,290.07,271.13Z"/><path class="cls-67" d="M284.53,253.05l1.49,1.61a8,8,0,0,1,2.19,2.12,13,13,0,0,1-.42,9c-1.84-2.22-5.08-2.9-5-6.33.21-2.08,1.75-3.78,1.71-5.93A4.07,4.07,0,0,0,284.53,253.05Z"/><path class="cls-4" d="M288.21,256.78a2.47,2.47,0,0,1-2.19-2.12c1.55-.68,2.1.49,2.76,1.48Z"/><path class="cls-68" d="M336.33,295.39c.47-.06.94-.1,1.21-.57,2.76,1.12,5.82.58,8.61,1.56,0,.31-.37.35-.55.53l-1.63,0c-.86-.51-1.88.06-2.75-.41A11.62,11.62,0,0,1,336.33,295.39Z"/><path class="cls-69" d="M355.8,296.44c-2.44,1.77-5.07,1-7.68.58.25-.5.89-.2,1.19-.59Z"/><path class="cls-70" d="M349.31,296.43l-1.19.59-2.52-.11c.18-.18.36-.36.55-.53Z"/><path class="cls-71" d="M280.2,253l-5.48-1.16C277.27,251.24,277.81,251.32,280.2,253Z"/><path class="cls-72" d="M280.43,254.4c-2.08.62-3.77-.27-5.53-.61C276.71,253.67,278.59,253,280.43,254.4Z"/><path class="cls-10" d="M341.22,296.47c.94,0,1.93-.35,2.75.41A4.05,4.05,0,0,1,341.22,296.47Z"/><path class="cls-73" d="M145.76,167.43c6.16,0,12.31-.12,18.46-.12q20.49,0,41,.06c-.56.63-1.31.46-2,.46q-28.5.1-57,.17C146.05,168,145.91,167.63,145.76,167.43Z"/><path class="cls-74" d="M277.59,102.48c0,.48,0,1-.08,1.42a6.63,6.63,0,0,1-2.12-2,.49.49,0,0,1,.07-.76l1.93.81C277.76,102,277.83,102.2,277.59,102.48Z"/><path class="cls-75" d="M275.46,101.18c0,.25,0,.51-.07.76l-1.66-1.58.63,0C274.73,100.61,275.1,100.89,275.46,101.18Z"/><path class="cls-76" d="M288.86,109.4a4.92,4.92,0,0,1,2.1,2.16C289.57,111.51,288.78,110.88,288.86,109.4Z"/><path class="cls-77" d="M288.28,82.65a2.57,2.57,0,0,0-3.19,0c-2.07,1.53-4.26,1.42-6.51.59a4.61,4.61,0,0,0-5.33,1c-.95-1.08.23-1.2.71-1.71,1.55-1.64,1.54-1.7,3.9-.58,2.84,1.34,5.39.76,8-.71.78-.44-.77-2.2.75-1.25C287.23,80.38,289.23,80.9,288.28,82.65Z"/><path class="cls-78" d="M277.59,102.48a2.65,2.65,0,0,1-.2-.49c4.42,1.41,8.51.29,12.48-1.66C287,103.7,281.11,104.73,277.59,102.48Z"/></g></g></svg>