<svg width="530" height="634" viewBox="0 0 530 634" fill="none" xmlns="http://www.w3.org/2000/svg">
<path d="M199.5 611C167.767 611 139.067 604.233 113.4 590.7C88.2 576.7 68.1333 556.867 53.2 531.2C38.2667 505.067 30.8 474.5 30.8 439.5C30.8 406.367 37.5667 377.433 51.1 352.7C65.1 327.5 84.4667 308.133 109.2 294.6C134.4 281.067 163.333 274.3 196 274.3C220.733 274.3 241.967 277.567 259.7 284.1C277.9 290.167 292.133 297.867 302.4 307.2L268.8 368.1C249.2 348.5 227.033 338.7 202.3 338.7C172.433 338.7 149.567 347.8 133.7 366C118.3 384.2 110.6 408.467 110.6 438.8C110.6 473.333 118.533 500.167 134.4 519.3C150.733 538.433 173.367 548 202.3 548C216.767 548 230.767 545.9 244.3 541.7C258.3 537.5 269.033 532.6 276.5 527L303.8 580.2C293.533 588.133 279.067 595.367 260.4 601.9C242.2 607.967 221.9 611 199.5 611Z" fill="black"/>
<path d="M427.574 611C413.574 611 401.674 606.333 391.874 597C382.074 587.2 377.174 575.3 377.174 561.3C377.174 546.833 381.841 534.933 391.174 525.6C400.974 515.8 413.108 510.9 427.574 510.9C442.041 510.9 453.941 515.8 463.274 525.6C473.074 534.933 477.974 546.833 477.974 561.3C477.974 575.3 473.074 587.2 463.274 597C453.941 606.333 442.041 611 427.574 611Z" fill="#EB225A"/>
</svg>
