<svg width="173" height="60" viewBox="0 0 173 60" fill="none" xmlns="http://www.w3.org/2000/svg">
<path d="M7.55 25.3C6.19 25.3 4.96 25.01 3.86 24.43C2.78 23.83 1.92 22.98 1.28 21.88C0.64 20.76 0.32 19.45 0.32 17.95C0.32 16.53 0.61 15.29 1.19 14.23C1.79 13.15 2.62 12.32 3.68 11.74C4.76 11.16 6 10.87 7.4 10.87C8.46 10.87 9.37 11.01 10.13 11.29C10.91 11.55 11.52 11.88 11.96 12.28L10.52 14.89C9.68 14.05 8.73 13.63 7.67 13.63C6.39 13.63 5.41 14.02 4.73 14.8C4.07 15.58 3.74 16.62 3.74 17.92C3.74 19.4 4.08 20.55 4.76 21.37C5.46 22.19 6.43 22.6 7.67 22.6C8.29 22.6 8.89 22.51 9.47 22.33C10.07 22.15 10.53 21.94 10.85 21.7L12.02 23.98C11.58 24.32 10.96 24.63 10.16 24.91C9.38 25.17 8.51 25.3 7.55 25.3ZM15.3446 11.23H18.7046V25H15.3446V11.23ZM16.9946 8.65C16.3746 8.65 15.8546 8.44 15.4346 8.02C15.0146 7.6 14.8046 7.08 14.8046 6.46C14.8046 5.9 15.0146 5.42 15.4346 5.02C15.8546 4.62 16.3746 4.42 16.9946 4.42C17.5946 4.42 18.1046 4.62 18.5246 5.02C18.9446 5.42 19.1546 5.9 19.1546 6.46C19.1546 7.08 18.9446 7.6 18.5246 8.02C18.1246 8.44 17.6146 8.65 16.9946 8.65ZM24.3905 13.87H21.9605V11.23H24.3905V5.62L27.6605 4.9V11.23H30.8405V13.87H27.6605V25H24.3905V13.87ZM39.8938 25.3C38.4738 25.3 37.2138 24.98 36.1138 24.34C35.0138 23.7 34.1638 22.83 33.5638 21.73C32.9638 20.63 32.6638 19.41 32.6638 18.07C32.6638 16.75 32.9538 15.54 33.5338 14.44C34.1338 13.34 34.9838 12.47 36.0838 11.83C37.1838 11.19 38.4538 10.87 39.8938 10.87C41.3338 10.87 42.5938 11.19 43.6738 11.83C44.7738 12.47 45.6138 13.34 46.1938 14.44C46.7938 15.54 47.0938 16.75 47.0938 18.07C47.0938 19.41 46.7938 20.63 46.1938 21.73C45.5938 22.83 44.7438 23.7 43.6438 24.34C42.5638 24.98 41.3138 25.3 39.8938 25.3ZM39.9838 22.66C41.1438 22.66 42.0538 22.23 42.7138 21.37C43.3938 20.51 43.7338 19.43 43.7338 18.13C43.7338 16.83 43.3738 15.74 42.6538 14.86C41.9338 13.96 40.9838 13.51 39.8038 13.51C38.6638 13.51 37.7438 13.95 37.0438 14.83C36.3638 15.71 36.0238 16.81 36.0238 18.13C36.0238 19.41 36.3938 20.49 37.1338 21.37C37.8738 22.23 38.8238 22.66 39.9838 22.66ZM54.5138 25.42L48.8138 11.23H52.4738L55.4138 19.99L56.0738 22.12L56.7338 19.99L59.8238 11.23H63.3638L54.9038 32.56H51.5438L54.5138 25.42ZM71.9759 25.3C70.3359 25.3 68.9659 24.98 67.8659 24.34C66.7659 23.68 65.9559 22.81 65.4359 21.73C64.9159 20.63 64.6559 19.43 64.6559 18.13C64.6559 16.67 64.9559 15.39 65.5559 14.29C66.1759 13.19 67.0259 12.35 68.1059 11.77C69.1859 11.17 70.4059 10.87 71.7659 10.87C73.8859 10.87 75.4559 11.46 76.4759 12.64C77.5159 13.8 78.0359 15.44 78.0359 17.56C78.0359 18.1 78.0059 18.66 77.9459 19.24H68.0459C68.2659 20.46 68.6959 21.34 69.3359 21.88C69.9959 22.42 70.9059 22.69 72.0659 22.69C73.0259 22.69 73.8159 22.61 74.4359 22.45C75.0559 22.29 75.6259 22.07 76.1459 21.79L77.1359 24.1C76.6359 24.42 75.9559 24.7 75.0959 24.94C74.2359 25.18 73.1959 25.3 71.9759 25.3ZM74.8859 16.99C74.9059 15.75 74.6359 14.88 74.0759 14.38C73.5159 13.86 72.7159 13.6 71.6759 13.6C69.5759 13.6 68.3659 14.73 68.0459 16.99H74.8859ZM81.4327 11.23H84.6127L84.6427 13.75C85.0227 12.91 85.6227 12.22 86.4427 11.68C87.2627 11.14 88.2227 10.87 89.3227 10.87C90.7427 10.87 91.8327 11.17 92.5927 11.77C93.3527 12.35 93.8627 13.17 94.1227 14.23C94.3827 15.29 94.5127 16.67 94.5127 18.37V25H91.2727V18.46C91.2727 16.72 91.1027 15.47 90.7627 14.71C90.4227 13.93 89.7227 13.54 88.6627 13.54C88.0627 13.54 87.4527 13.73 86.8327 14.11C86.2127 14.47 85.6927 15 85.2727 15.7C84.8727 16.4 84.6727 17.22 84.6727 18.16V25H81.4327V11.23ZM98.6886 11.23H101.869L101.899 13.75C102.279 12.91 102.879 12.22 103.699 11.68C104.519 11.14 105.479 10.87 106.579 10.87C107.999 10.87 109.089 11.17 109.849 11.77C110.609 12.35 111.119 13.17 111.379 14.23C111.639 15.29 111.769 16.67 111.769 18.37V25H108.529V18.46C108.529 16.72 108.359 15.47 108.019 14.71C107.679 13.93 106.979 13.54 105.919 13.54C105.319 13.54 104.709 13.73 104.089 14.11C103.469 14.47 102.949 15 102.529 15.7C102.129 16.4 101.929 17.22 101.929 18.16V25H98.6886V11.23ZM122.454 25.3C120.814 25.3 119.444 24.98 118.344 24.34C117.244 23.68 116.434 22.81 115.914 21.73C115.394 20.63 115.134 19.43 115.134 18.13C115.134 16.67 115.434 15.39 116.034 14.29C116.654 13.19 117.504 12.35 118.584 11.77C119.664 11.17 120.884 10.87 122.244 10.87C124.364 10.87 125.934 11.46 126.954 12.64C127.994 13.8 128.514 15.44 128.514 17.56C128.514 18.1 128.484 18.66 128.424 19.24H118.524C118.744 20.46 119.174 21.34 119.814 21.88C120.474 22.42 121.384 22.69 122.544 22.69C123.504 22.69 124.294 22.61 124.914 22.45C125.534 22.29 126.104 22.07 126.624 21.79L127.614 24.1C127.114 24.42 126.434 24.7 125.574 24.94C124.714 25.18 123.674 25.3 122.454 25.3ZM125.364 16.99C125.384 15.75 125.114 14.88 124.554 14.38C123.994 13.86 123.194 13.6 122.154 13.6C120.054 13.6 118.844 14.73 118.524 16.99H125.364ZM133.111 13.87H130.681V11.23H133.111V5.62L136.381 4.9V11.23H139.561V13.87H136.381V25H133.111V13.87ZM148.704 25.3C147.064 25.3 145.694 24.98 144.594 24.34C143.494 23.68 142.684 22.81 142.164 21.73C141.644 20.63 141.384 19.43 141.384 18.13C141.384 16.67 141.684 15.39 142.284 14.29C142.904 13.19 143.754 12.35 144.834 11.77C145.914 11.17 147.134 10.87 148.494 10.87C150.614 10.87 152.184 11.46 153.204 12.64C154.244 13.8 154.764 15.44 154.764 17.56C154.764 18.1 154.734 18.66 154.674 19.24H144.774C144.994 20.46 145.424 21.34 146.064 21.88C146.724 22.42 147.634 22.69 148.794 22.69C149.754 22.69 150.544 22.61 151.164 22.45C151.784 22.29 152.354 22.07 152.874 21.79L153.864 24.1C153.364 24.42 152.684 24.7 151.824 24.94C150.964 25.18 149.924 25.3 148.704 25.3ZM151.614 16.99C151.634 15.75 151.364 14.88 150.804 14.38C150.244 13.86 149.444 13.6 148.404 13.6C146.304 13.6 145.094 14.73 144.774 16.99H151.614ZM146.184 7.42L150.774 0.549998L153.624 2.38L148.374 8.65L146.184 7.42ZM7.64 52.3C6 52.3 4.63 51.98 3.53 51.34C2.43 50.68 1.62 49.81 1.1 48.73C0.58 47.63 0.32 46.43 0.32 45.13C0.32 43.67 0.62 42.39 1.22 41.29C1.84 40.19 2.69 39.35 3.77 38.77C4.85 38.17 6.07 37.87 7.43 37.87C9.55 37.87 11.12 38.46 12.14 39.64C13.18 40.8 13.7 42.44 13.7 44.56C13.7 45.1 13.67 45.66 13.61 46.24H3.71C3.93 47.46 4.36 48.34 5 48.88C5.66 49.42 6.57 49.69 7.73 49.69C8.69 49.69 9.48 49.61 10.1 49.45C10.72 49.29 11.29 49.07 11.81 48.79L12.8 51.1C12.3 51.42 11.62 51.7 10.76 51.94C9.9 52.18 8.86 52.3 7.64 52.3ZM10.55 43.99C10.57 42.75 10.3 41.88 9.74 41.38C9.18 40.86 8.38 40.6 7.34 40.6C5.24 40.6 4.03 41.73 3.71 43.99H10.55ZM5.12 34.42L9.71 27.55L12.56 29.38L7.31 35.65L5.12 34.42ZM23.5168 52.3C22.1568 52.3 20.9268 52.01 19.8268 51.43C18.7468 50.83 17.8868 49.98 17.2468 48.88C16.6068 47.76 16.2868 46.45 16.2868 44.95C16.2868 43.53 16.5768 42.29 17.1568 41.23C17.7568 40.15 18.5868 39.32 19.6468 38.74C20.7268 38.16 21.9668 37.87 23.3668 37.87C24.4268 37.87 25.3368 38.01 26.0968 38.29C26.8768 38.55 27.4868 38.88 27.9268 39.28L26.4868 41.89C25.6468 41.05 24.6968 40.63 23.6368 40.63C22.3568 40.63 21.3768 41.02 20.6968 41.8C20.0368 42.58 19.7068 43.62 19.7068 44.92C19.7068 46.4 20.0468 47.55 20.7268 48.37C21.4268 49.19 22.3968 49.6 23.6368 49.6C24.2568 49.6 24.8568 49.51 25.4368 49.33C26.0368 49.15 26.4968 48.94 26.8168 48.7L27.9868 50.98C27.5468 51.32 26.9268 51.63 26.1268 51.91C25.3468 52.17 24.4768 52.3 23.5168 52.3ZM37.4914 52.3C36.0714 52.3 34.8114 51.98 33.7114 51.34C32.6114 50.7 31.7614 49.83 31.1614 48.73C30.5614 47.63 30.2614 46.41 30.2614 45.07C30.2614 43.75 30.5514 42.54 31.1314 41.44C31.7314 40.34 32.5814 39.47 33.6814 38.83C34.7814 38.19 36.0514 37.87 37.4914 37.87C38.9314 37.87 40.1914 38.19 41.2714 38.83C42.3714 39.47 43.2114 40.34 43.7914 41.44C44.3914 42.54 44.6914 43.75 44.6914 45.07C44.6914 46.41 44.3914 47.63 43.7914 48.73C43.1914 49.83 42.3414 50.7 41.2414 51.34C40.1614 51.98 38.9114 52.3 37.4914 52.3ZM37.5814 49.66C38.7414 49.66 39.6514 49.23 40.3114 48.37C40.9914 47.51 41.3314 46.43 41.3314 45.13C41.3314 43.83 40.9714 42.74 40.2514 41.86C39.5314 40.96 38.5814 40.51 37.4014 40.51C36.2614 40.51 35.3414 40.95 34.6414 41.83C33.9614 42.71 33.6214 43.81 33.6214 45.13C33.6214 46.41 33.9914 47.49 34.7314 48.37C35.4714 49.23 36.4214 49.66 37.5814 49.66ZM48.1515 38.23H51.3315L51.3615 40.75C51.7415 39.91 52.3415 39.22 53.1615 38.68C53.9815 38.14 54.9415 37.87 56.0415 37.87C57.4615 37.87 58.5515 38.17 59.3115 38.77C60.0715 39.35 60.5815 40.17 60.8415 41.23C61.1015 42.29 61.2315 43.67 61.2315 45.37V52H57.9915V45.46C57.9915 43.72 57.8215 42.47 57.4815 41.71C57.1415 40.93 56.4415 40.54 55.3815 40.54C54.7815 40.54 54.1715 40.73 53.5515 41.11C52.9315 41.47 52.4115 42 51.9915 42.7C51.5915 43.4 51.3915 44.22 51.3915 45.16V52H48.1515V38.23ZM71.8273 52.3C70.4073 52.3 69.1473 51.98 68.0473 51.34C66.9473 50.7 66.0973 49.83 65.4973 48.73C64.8973 47.63 64.5973 46.41 64.5973 45.07C64.5973 43.75 64.8873 42.54 65.4673 41.44C66.0673 40.34 66.9173 39.47 68.0173 38.83C69.1173 38.19 70.3873 37.87 71.8273 37.87C73.2673 37.87 74.5273 38.19 75.6073 38.83C76.7073 39.47 77.5473 40.34 78.1273 41.44C78.7273 42.54 79.0273 43.75 79.0273 45.07C79.0273 46.41 78.7273 47.63 78.1273 48.73C77.5273 49.83 76.6773 50.7 75.5773 51.34C74.4973 51.98 73.2473 52.3 71.8273 52.3ZM71.9173 49.66C73.0773 49.66 73.9873 49.23 74.6473 48.37C75.3273 47.51 75.6673 46.43 75.6673 45.13C75.6673 43.83 75.3073 42.74 74.5873 41.86C73.8673 40.96 72.9173 40.51 71.7373 40.51C70.5973 40.51 69.6773 40.95 68.9773 41.83C68.2973 42.71 67.9573 43.81 67.9573 45.13C67.9573 46.41 68.3273 47.49 69.0673 48.37C69.8073 49.23 70.7573 49.66 71.9173 49.66ZM82.4874 38.23H85.7274V40.72C86.1674 39.78 86.8074 39.07 87.6474 38.59C88.5074 38.11 89.4874 37.87 90.5874 37.87C93.0474 37.89 94.5574 38.74 95.1174 40.42C95.5574 39.64 96.2174 39.02 97.0974 38.56C97.9774 38.1 98.9074 37.87 99.8874 37.87C101.327 37.87 102.417 38.15 103.157 38.71C103.897 39.25 104.387 40.03 104.627 41.05C104.887 42.05 105.017 43.4 105.017 45.1V52H101.747V45.07C101.747 43.45 101.577 42.29 101.237 41.59C100.917 40.89 100.287 40.54 99.3474 40.54C98.0874 40.54 97.1274 40.97 96.4674 41.83C95.8274 42.67 95.5074 43.78 95.5074 45.16V52H92.2674V44.59C92.2674 43.53 92.2274 42.74 92.1474 42.22C92.0674 41.7 91.8474 41.29 91.4874 40.99C91.1274 40.69 90.5474 40.54 89.7474 40.54C89.0474 40.54 88.3874 40.75 87.7674 41.17C87.1674 41.59 86.6774 42.16 86.2974 42.88C85.9374 43.58 85.7574 44.34 85.7574 45.16V52H82.4874V38.23ZM109.388 38.23H112.748V52H109.388V38.23ZM111.038 35.65C110.418 35.65 109.898 35.44 109.478 35.02C109.058 34.6 108.848 34.08 108.848 33.46C108.848 32.9 109.058 32.42 109.478 32.02C109.898 31.62 110.418 31.42 111.038 31.42C111.638 31.42 112.148 31.62 112.568 32.02C112.988 32.42 113.198 32.9 113.198 33.46C113.198 34.08 112.988 34.6 112.568 35.02C112.168 35.44 111.658 35.65 111.038 35.65ZM128.184 49.93C127.704 50.69 127.034 51.28 126.174 51.7C125.314 52.1 124.294 52.3 123.114 52.3C121.874 52.3 120.744 52 119.724 51.4C118.704 50.8 117.894 49.95 117.294 48.85C116.714 47.75 116.424 46.48 116.424 45.04C116.424 43.48 116.724 42.17 117.324 41.11C117.924 40.03 118.724 39.22 119.724 38.68C120.744 38.14 121.874 37.87 123.114 37.87C125.434 37.87 127.124 38.83 128.184 40.75L128.214 38.23H131.334V59.29H128.154L128.184 49.93ZM123.864 49.6C125.004 49.6 125.964 49.21 126.744 48.43C127.524 47.63 127.914 46.59 127.914 45.31V45.1C127.914 44.24 127.734 43.47 127.374 42.79C127.014 42.11 126.524 41.58 125.904 41.2C125.284 40.82 124.604 40.63 123.864 40.63C122.584 40.63 121.594 41.05 120.894 41.89C120.194 42.71 119.844 43.78 119.844 45.1C119.844 46.44 120.184 47.53 120.864 48.37C121.564 49.19 122.564 49.6 123.864 49.6ZM140.402 52.3C138.502 52.3 137.192 51.74 136.472 50.62C135.772 49.5 135.422 47.94 135.422 45.94V38.23H138.662V45.13C138.662 46.27 138.722 47.16 138.842 47.8C138.982 48.42 139.242 48.88 139.622 49.18C140.022 49.48 140.612 49.63 141.392 49.63C141.952 49.63 142.492 49.47 143.012 49.15C143.532 48.83 143.952 48.4 144.272 47.86C144.612 47.3 144.782 46.69 144.782 46.03V38.23H147.992V52H145.352L144.992 49.99C144.492 50.77 143.862 51.35 143.102 51.73C142.362 52.11 141.462 52.3 140.402 52.3ZM158.812 52.3C157.172 52.3 155.802 51.98 154.702 51.34C153.602 50.68 152.792 49.81 152.272 48.73C151.752 47.63 151.492 46.43 151.492 45.13C151.492 43.67 151.792 42.39 152.392 41.29C153.012 40.19 153.862 39.35 154.942 38.77C156.022 38.17 157.242 37.87 158.602 37.87C160.722 37.87 162.292 38.46 163.312 39.64C164.352 40.8 164.872 42.44 164.872 44.56C164.872 45.1 164.842 45.66 164.782 46.24H154.882C155.102 47.46 155.532 48.34 156.172 48.88C156.832 49.42 157.742 49.69 158.902 49.69C159.862 49.69 160.652 49.61 161.272 49.45C161.892 49.29 162.462 49.07 162.982 48.79L163.972 51.1C163.472 51.42 162.792 51.7 161.932 51.94C161.072 52.18 160.032 52.3 158.812 52.3ZM161.722 43.99C161.742 42.75 161.472 41.88 160.912 41.38C160.352 40.86 159.552 40.6 158.512 40.6C156.412 40.6 155.202 41.73 154.882 43.99H161.722Z" fill="black"/>
<path d="M170.489 52.3C169.889 52.3 169.379 52.1 168.959 51.7C168.539 51.28 168.329 50.77 168.329 50.17C168.329 49.55 168.529 49.04 168.929 48.64C169.349 48.22 169.869 48.01 170.489 48.01C171.109 48.01 171.619 48.22 172.019 48.64C172.439 49.04 172.649 49.55 172.649 50.17C172.649 50.77 172.439 51.28 172.019 51.7C171.619 52.1 171.109 52.3 170.489 52.3Z" fill="#EB225A"/>
</svg>
